<svg width="22" height="9" viewBox="0 0 22 9" fill="none" xmlns="http://www.w3.org/2000/svg">
<path d="M17 7.66634H5.5C3.29 7.66634 1.5 6.24926 1.5 4.49967C1.5 2.75009 3.29 1.33301 5.5 1.33301H18C19.38 1.33301 20.5 2.21967 20.5 3.31217C20.5 4.40467 19.38 5.29134 18 5.29134H7.5C6.95 5.29134 6.5 4.93509 6.5 4.49967C6.5 4.06426 6.95 3.70801 7.5 3.70801H17V2.52051H7.5C6.12 2.52051 5 3.40717 5 4.49967C5 5.59218 6.12 6.47884 7.5 6.47884H18C20.21 6.47884 22 5.06176 22 3.31217C22 1.56259 20.21 0.145508 18 0.145508H5.5C2.46 0.145508 0 2.09301 0 4.49967C0 6.90634 2.46 8.85384 5.5 8.85384H17V7.66634Z" fill="white" fill-opacity="0.6"/>
</svg>
