<svg width="24" height="25" viewBox="0 0 24 25" fill="none" xmlns="http://www.w3.org/2000/svg">
<circle cx="10" cy="12.5" r="8.5" stroke="white"/>
<path fill-rule="evenodd" clip-rule="evenodd" d="M16 12.5C16 12.8407 15.9716 13.1748 15.917 13.5H12.8293C12.4175 14.6652 11.3062 15.5 10 15.5C8.34315 15.5 7 14.1569 7 12.5C7 10.8431 8.34315 9.5 10 9.5C11.3062 9.5 12.4175 10.3348 12.8293 11.5H15.917C15.9716 11.8252 16 12.1593 16 12.5ZM15.917 11.5C15.441 8.66229 12.973 6.5 10 6.5C6.68629 6.5 4 9.18629 4 12.5C4 15.8137 6.68629 18.5 10 18.5C12.973 18.5 15.441 16.3377 15.917 13.5H20.01V16.5L24 12.5L20.01 8.5V11.5H15.917Z" fill="white"/>
</svg>
