<svg width="50" height="50" viewBox="0 0 50 50" fill="none" xmlns="http://www.w3.org/2000/svg">
<path d="M46.0938 28.125C46.7148 28.1231 47.3098 27.8756 47.749 27.4365C48.1881 26.9973 48.4356 26.4023 48.4375 25.7812V3.90625C48.4356 3.28522 48.1881 2.69015 47.749 2.25102C47.3098 1.81188 46.7148 1.56435 46.0938 1.5625H3.90625C3.28522 1.56435 2.69015 1.81188 2.25102 2.25102C1.81188 2.69015 1.56435 3.28522 1.5625 3.90625V25.7812C1.56435 26.4023 1.81188 26.9973 2.25102 27.4365C2.69015 27.8756 3.28522 28.1231 3.90625 28.125H13.0391C13.3102 28.7093 13.6862 29.2389 14.1484 29.6875H14.0625C13.4415 29.6894 12.8464 29.9369 12.4073 30.376C11.9681 30.8152 11.7206 31.4102 11.7188 32.0312V32.8125H8.59375C7.97272 32.8144 7.37765 33.0619 6.93852 33.501C6.49938 33.9402 6.25185 34.5352 6.25 35.1562V36.7188H3.90625C3.28522 36.7206 2.69015 36.9681 2.25102 37.4073C1.81188 37.8464 1.56435 38.4415 1.5625 39.0625V47.6562C1.5625 47.8634 1.64481 48.0622 1.79132 48.2087C1.93784 48.3552 2.13655 48.4375 2.34375 48.4375H7.03125C7.23845 48.4375 7.43716 48.3552 7.58368 48.2087C7.73019 48.0622 7.8125 47.8634 7.8125 47.6562V46.875H42.1875V47.6562C42.1875 47.8634 42.2698 48.0622 42.4163 48.2087C42.5628 48.3552 42.7616 48.4375 42.9688 48.4375H47.6562C47.8634 48.4375 48.0622 48.3552 48.2087 48.2087C48.3552 48.0622 48.4375 47.8634 48.4375 47.6562V39.0625C48.4356 38.4415 48.1881 37.8464 47.749 37.4073C47.3098 36.9681 46.7148 36.7206 46.0938 36.7188H43.75V35.1562C43.7481 34.5352 43.5006 33.9402 43.0615 33.501C42.6223 33.0619 42.0273 32.8144 41.4062 32.8125H38.2812V32.0312C38.2794 31.4102 38.0319 30.8152 37.5927 30.376C37.1536 29.9369 36.5585 29.6894 35.9375 29.6875H35.8516C36.3138 29.2389 36.6898 28.7093 36.9609 28.125H46.0938ZM6.25 46.875H3.125V39.0625C3.125 38.8553 3.20731 38.6566 3.35382 38.5101C3.50034 38.3636 3.69905 38.2812 3.90625 38.2812H6.25V46.875ZM43.75 38.2812H46.0938C46.3009 38.2812 46.4997 38.3636 46.6462 38.5101C46.7927 38.6566 46.875 38.8553 46.875 39.0625V46.875H43.75V38.2812ZM12.5625 26.5625H3.90625C3.69905 26.5625 3.50034 26.4802 3.35382 26.3337C3.20731 26.1872 3.125 25.9885 3.125 25.7812V3.90625C3.125 3.69905 3.20731 3.50034 3.35382 3.35382C3.50034 3.20731 3.69905 3.125 3.90625 3.125H46.0938C46.3009 3.125 46.4997 3.20731 46.6462 3.35382C46.7927 3.50034 46.875 3.69905 46.875 3.90625V25.7812C46.875 25.9885 46.7927 26.1872 46.6462 26.3337C46.4997 26.4802 46.3009 26.5625 46.0938 26.5625H37.4375C37.478 26.304 37.4989 26.0429 37.5 25.7812C37.5 24.3308 36.9238 22.9398 35.8982 21.9143C34.8727 20.8887 33.4817 20.3125 32.0312 20.3125C30.5808 20.3125 29.1898 20.8887 28.1643 21.9143C27.1387 22.9398 26.5625 24.3308 26.5625 25.7812C26.5636 26.0429 26.5845 26.304 26.625 26.5625H23.375C23.4155 26.304 23.4364 26.0429 23.4375 25.7812C23.4375 24.3308 22.8613 22.9398 21.8357 21.9143C20.8102 20.8887 19.4192 20.3125 17.9688 20.3125C16.5183 20.3125 15.1273 20.8887 14.1018 21.9143C13.0762 22.9398 12.5 24.3308 12.5 25.7812C12.5011 26.0429 12.522 26.304 12.5625 26.5625ZM21.875 29.6875H21.7891C22.2513 29.2389 22.6273 28.7093 22.8984 28.125H27.1016C27.3727 28.7093 27.7487 29.2389 28.2109 29.6875H28.125C27.504 29.6894 26.9089 29.9369 26.4698 30.376C26.0306 30.8152 25.7831 31.4102 25.7812 32.0312V32.8125H24.2188V32.0312C24.2169 31.4102 23.9694 30.8152 23.5302 30.376C23.0911 29.9369 22.496 29.6894 21.875 29.6875ZM14.0625 25.7812C14.0625 25.0087 14.2916 24.2534 14.7208 23.6111C15.15 22.9687 15.7601 22.468 16.4739 22.1723C17.1877 21.8767 17.9731 21.7993 18.7308 21.9501C19.4886 22.1008 20.1846 22.4728 20.7309 23.0191C21.2772 23.5654 21.6492 24.2614 21.7999 25.0192C21.9507 25.7769 21.8733 26.5623 21.5777 27.2761C21.282 27.9899 20.7813 28.6 20.1389 29.0292C19.4966 29.4584 18.7413 29.6875 17.9688 29.6875C16.9327 29.6875 15.9392 29.2759 15.2066 28.5434C14.4741 27.8108 14.0625 26.8173 14.0625 25.7812ZM13.2812 32.0312C13.2812 31.824 13.3636 31.6253 13.5101 31.4788C13.6566 31.3323 13.8553 31.25 14.0625 31.25H21.875C22.0822 31.25 22.2809 31.3323 22.4274 31.4788C22.5739 31.6253 22.6562 31.824 22.6562 32.0312V32.8125H13.2812V32.0312ZM41.4062 34.375C41.6134 34.375 41.8122 34.4573 41.9587 34.6038C42.1052 34.7503 42.1875 34.9491 42.1875 35.1562V45.3125H7.8125V35.1562C7.8125 34.9491 7.89481 34.7503 8.04132 34.6038C8.18784 34.4573 8.38655 34.375 8.59375 34.375H41.4062ZM35.9375 31.25C36.1447 31.25 36.3434 31.3323 36.4899 31.4788C36.6364 31.6253 36.7188 31.824 36.7188 32.0312V32.8125H27.3438V32.0312C27.3438 31.824 27.4261 31.6253 27.5726 31.4788C27.7191 31.3323 27.9178 31.25 28.125 31.25H35.9375ZM32.0312 29.6875C31.2587 29.6875 30.5034 29.4584 29.8611 29.0292C29.2187 28.6 28.718 27.9899 28.4223 27.2761C28.1267 26.5623 28.0493 25.7769 28.2001 25.0192C28.3508 24.2614 28.7228 23.5654 29.2691 23.0191C29.8154 22.4728 30.5114 22.1008 31.2692 21.9501C32.0269 21.7993 32.8123 21.8767 33.5261 22.1723C34.2399 22.468 34.85 22.9687 35.2792 23.6111C35.7084 24.2534 35.9375 25.0087 35.9375 25.7812C35.9375 26.8173 35.526 27.8108 34.7934 28.5434C34.0608 29.2759 33.0673 29.6875 32.0312 29.6875Z" fill="#D8004E"/>
<path d="M31.6016 12.586L22.2266 7.89851C22.1076 7.83858 21.9754 7.81005 21.8423 7.81563C21.7092 7.8212 21.5798 7.8607 21.4663 7.93036C21.3528 8.00003 21.259 8.09755 21.1938 8.21367C21.1286 8.32979 21.0942 8.46065 21.0938 8.59383V17.9688C21.0935 18.1016 21.1271 18.2322 21.1913 18.3484C21.2556 18.4646 21.3484 18.5625 21.4609 18.6329C21.5855 18.7094 21.7288 18.75 21.875 18.7501C21.9972 18.7485 22.1174 18.7191 22.2266 18.6641L31.6016 13.9766C31.7295 13.9111 31.8369 13.8115 31.9119 13.6888C31.9869 13.5661 32.0266 13.4251 32.0266 13.2813C32.0266 13.1375 31.9869 12.9965 31.9119 12.8739C31.8369 12.7512 31.7295 12.6516 31.6016 12.586ZM22.6562 16.7032V9.85945L29.5 13.2813L22.6562 16.7032Z" fill="#D8004E"/>
</svg>
