<svg width="18" height="18" viewBox="0 0 18 18" fill="none" xmlns="http://www.w3.org/2000/svg">
<g opacity="0.6">
<path fill-rule="evenodd" clip-rule="evenodd" d="M3.135 2.25C2.64623 2.25 2.25 2.64623 2.25 3.135V14.865C2.25 15.3538 2.64623 15.75 3.135 15.75H14.865C15.3538 15.75 15.75 15.3538 15.75 14.865V3.135C15.75 2.64623 15.3538 2.25 14.865 2.25H3.135ZM0.75 3.135C0.75 1.8178 1.8178 0.75 3.135 0.75H14.865C16.1822 0.75 17.25 1.8178 17.25 3.135V14.865C17.25 16.1822 16.1822 17.25 14.865 17.25H3.135C1.8178 17.25 0.75 16.1822 0.75 14.865V3.135Z" fill="white"/>
<path fill-rule="evenodd" clip-rule="evenodd" d="M5.25 0.75C5.66421 0.75 6 1.08579 6 1.5V16.5C6 16.9142 5.66421 17.25 5.25 17.25C4.83579 17.25 4.5 16.9142 4.5 16.5V1.5C4.5 1.08579 4.83579 0.75 5.25 0.75Z" fill="white"/>
<path fill-rule="evenodd" clip-rule="evenodd" d="M12.75 0.75C13.1642 0.75 13.5 1.08579 13.5 1.5V16.5C13.5 16.9142 13.1642 17.25 12.75 17.25C12.3358 17.25 12 16.9142 12 16.5V1.5C12 1.08579 12.3358 0.75 12.75 0.75Z" fill="white"/>
<path fill-rule="evenodd" clip-rule="evenodd" d="M0.75 9C0.75 8.58579 1.08579 8.25 1.5 8.25H16.5C16.9142 8.25 17.25 8.58579 17.25 9C17.25 9.41421 16.9142 9.75 16.5 9.75H1.5C1.08579 9.75 0.75 9.41421 0.75 9Z" fill="white"/>
<path fill-rule="evenodd" clip-rule="evenodd" d="M0.75 5.25C0.75 4.83579 1.08579 4.5 1.5 4.5H5.25C5.66421 4.5 6 4.83579 6 5.25C6 5.66421 5.66421 6 5.25 6H1.5C1.08579 6 0.75 5.66421 0.75 5.25Z" fill="white"/>
<path fill-rule="evenodd" clip-rule="evenodd" d="M0.75 12.75C0.75 12.3358 1.08579 12 1.5 12H5.25C5.66421 12 6 12.3358 6 12.75C6 13.1642 5.66421 13.5 5.25 13.5H1.5C1.08579 13.5 0.75 13.1642 0.75 12.75Z" fill="white"/>
<path fill-rule="evenodd" clip-rule="evenodd" d="M12 12.75C12 12.3358 12.3358 12 12.75 12H16.5C16.9142 12 17.25 12.3358 17.25 12.75C17.25 13.1642 16.9142 13.5 16.5 13.5H12.75C12.3358 13.5 12 13.1642 12 12.75Z" fill="white"/>
<path fill-rule="evenodd" clip-rule="evenodd" d="M12 5.25C12 4.83579 12.3358 4.5 12.75 4.5H16.5C16.9142 4.5 17.25 4.83579 17.25 5.25C17.25 5.66421 16.9142 6 16.5 6H12.75C12.3358 6 12 5.66421 12 5.25Z" fill="white"/>
</g>
</svg>
