<svg width="50" height="50" viewBox="0 0 50 50" fill="none" xmlns="http://www.w3.org/2000/svg">
<path d="M49.3759 0H0.701906C0.356986 0 0.0778809 0.279846 0.0778809 0.625V33.0765C0.0778809 33.4216 0.356986 33.7015 0.701906 33.7015H49.3759C49.7208 33.7015 49.9999 33.4216 49.9999 33.0765V0.625C49.9999 0.279846 49.7208 0 49.3759 0ZM48.7518 32.4515H1.32593V1.25H48.7518V32.4515Z" fill="#D8004E"/>
<path d="M0.624025 50.0001H49.298C49.6429 50.0001 49.922 49.7203 49.922 49.3751V45.2266C49.922 42.1531 47.4253 39.6528 44.357 39.6528H42.0705C39.9213 39.6528 38.0562 40.8818 37.1295 42.673C36.2028 40.8818 34.3377 39.6528 32.1885 39.6528H29.902C27.7528 39.6528 25.8877 40.8818 24.961 42.673C24.0343 40.8818 22.1692 39.6528 20.02 39.6528H17.7335C15.5843 39.6528 13.7192 40.8818 12.7925 42.673C11.8658 40.8818 10.0007 39.6528 7.8515 39.6528H5.56504C2.49671 39.6528 0 42.1531 0 45.2266V49.3751C0 49.7203 0.279105 50.0001 0.624025 50.0001ZM42.0705 40.9028H44.357C46.7373 40.9028 48.674 42.8425 48.674 45.2266V48.7501H37.7535V45.2266C37.7535 42.8425 39.6902 40.9028 42.0705 40.9028ZM29.902 40.9028H32.1885C34.5688 40.9028 36.5055 42.8425 36.5055 45.2266V48.7501H25.585V45.2266C25.585 42.8425 27.5217 40.9028 29.902 40.9028ZM17.7335 40.9028H20.02C22.4003 40.9028 24.337 42.8425 24.337 45.2266V48.7501H13.4165V45.2266C13.4165 42.8425 15.3532 40.9028 17.7335 40.9028ZM1.24805 45.2266C1.24805 42.8425 3.18472 40.9028 5.56504 40.9028H7.8515C10.2318 40.9028 12.1685 42.8425 12.1685 45.2266V48.7501H1.24805V45.2266Z" fill="#D8004E"/>
<path d="M19.4423 19.51L19.0334 24.9812C19.0169 25.1973 19.1138 25.4063 19.2887 25.5336C19.4636 25.6605 19.6922 25.6892 19.892 25.6062L24.961 23.5258L30.03 25.6062C30.1062 25.6376 30.1866 25.6529 30.2665 25.6529C30.3963 25.6529 30.5248 25.6123 30.6333 25.5336C30.8082 25.4063 30.9051 25.1973 30.8887 24.9812L30.4797 19.51L34.0216 15.3242C34.1617 15.1591 34.2062 14.933 34.1392 14.727C34.0722 14.521 33.904 14.3644 33.6937 14.3129L28.3718 13.0116L25.4918 8.34485C25.2639 7.9762 24.6582 7.9762 24.4302 8.34485L21.5502 13.0116L16.2283 14.3129C16.0181 14.3644 15.8499 14.521 15.7829 14.727C15.7158 14.933 15.7603 15.1591 15.9005 15.3242L19.4423 19.51ZM22.0944 14.1655C22.2535 14.1264 22.3912 14.0263 22.4771 13.8868L24.961 9.86218L27.4449 13.8868C27.5309 14.0263 27.6686 14.1264 27.8276 14.1655L32.417 15.2876L29.3627 18.8972C29.2567 19.0223 29.2043 19.1844 29.2165 19.348L29.5687 24.0663L25.1975 22.2722C25.1219 22.241 25.0415 22.2255 24.961 22.2255C24.8806 22.2255 24.8001 22.241 24.7246 22.2722L20.3534 24.0663L20.7056 19.348C20.7178 19.1844 20.6654 19.0223 20.5593 18.8972L17.505 15.2876L22.0944 14.1655Z" fill="#D8004E"/>
</svg>
