<svg width="50" height="50" viewBox="0 0 50 50" fill="none" xmlns="http://www.w3.org/2000/svg">
<g clip-path="url(#clip0)">
<path d="M49.1652 39.9998H44.9854C53.2768 28.9692 51.0561 13.3056 40.0255 5.01417C35.6931 1.7576 30.4192 -0.0019364 24.9993 0.000980183C11.1926 0.000980183 0 11.1936 0 25.0003C0 38.8069 11.1926 49.9995 24.9993 49.9995H49.1652C49.6254 49.9995 49.9985 49.6264 49.9985 49.1662V40.8331C49.9985 40.3729 49.6254 39.9998 49.1652 39.9998ZM33.4099 46.7571C33.1077 46.8738 32.8021 46.9849 32.4932 47.0904C32.4216 47.1146 32.3499 47.1396 32.2774 47.1629C31.9563 47.2691 31.6327 47.3676 31.3066 47.4588C31.2416 47.4771 31.1774 47.4963 31.1124 47.5138C30.7791 47.6046 30.4458 47.6863 30.1083 47.7638C30.045 47.7779 29.9833 47.7938 29.92 47.8071C29.5866 47.8804 29.2433 47.9438 28.9017 48.0012C28.8367 48.0129 28.7717 48.0262 28.7058 48.0371C28.3725 48.0904 28.0392 48.1346 27.6975 48.1737C27.6225 48.1821 27.5492 48.1946 27.4742 48.2021C27.1409 48.2379 26.8076 48.2621 26.4742 48.2854C26.3909 48.2904 26.3142 48.2996 26.2334 48.3037C25.8256 48.3232 25.4143 48.3329 24.9993 48.3329C12.1191 48.3182 1.68131 37.8804 1.66662 25.0003C1.65526 12.114 12.0925 1.65843 24.9786 1.64708C37.8648 1.63572 48.3206 12.0729 48.3319 24.9591C48.337 30.7205 46.2103 36.2801 42.3613 40.5673C42.2779 40.6581 42.1946 40.7473 42.1113 40.8365C41.9263 41.0365 41.7396 41.2339 41.548 41.4273C41.4738 41.5023 41.3971 41.5748 41.3213 41.6489C41.1171 41.8489 40.9121 42.0481 40.7005 42.2414C40.6455 42.2906 40.5888 42.3381 40.5338 42.3881C39.84 43.0073 39.1101 43.585 38.348 44.118C38.2322 44.2014 38.1189 44.2847 38.0022 44.3622C37.8472 44.4664 37.6872 44.5647 37.5297 44.6655C37.3456 44.783 37.1631 44.9013 36.9756 45.0138C36.8439 45.093 36.7089 45.1672 36.5748 45.2438C36.3539 45.3705 36.1331 45.4938 35.9081 45.6155C35.794 45.6763 35.6781 45.7338 35.564 45.7921C35.314 45.9205 35.0581 46.0421 34.8023 46.1646C34.704 46.2105 34.6048 46.2546 34.5065 46.2988C34.2282 46.423 33.9473 46.543 33.6648 46.6563L33.4099 46.7571ZM48.3319 48.3329H33.9673C34.014 48.3146 34.059 48.2929 34.1057 48.2746C34.4623 48.1346 34.8148 47.9871 35.1631 47.8321L35.4673 47.6938C35.7901 47.5449 36.1084 47.3888 36.4223 47.2254C36.5281 47.1713 36.6348 47.1188 36.7398 47.0588C37.0848 46.8749 37.4251 46.6824 37.7606 46.4813C37.8231 46.4438 37.8872 46.4105 37.9497 46.373C38.318 46.1488 38.6797 45.9138 39.033 45.6713C39.2097 45.5513 39.3822 45.4213 39.5563 45.2988C39.7305 45.1763 39.9222 45.0355 40.1013 44.8988C40.2955 44.7522 40.4855 44.6005 40.6755 44.448C40.8271 44.3255 40.9763 44.198 41.1246 44.0755C41.3221 43.9089 41.518 43.7422 41.7079 43.5689C41.8379 43.4522 41.9629 43.3314 42.0904 43.2122C42.5249 42.8039 42.9462 42.3801 43.3546 41.9406C43.4012 41.8906 43.4504 41.8423 43.4962 41.7914C43.5421 41.7406 43.5821 41.7106 43.6237 41.6664H48.3319V48.3329Z" fill="#D8004E"/>
<path d="M45.8246 20.0118C45.3766 16.3574 42.0509 13.7581 38.3966 14.206C37.6745 14.2945 36.9718 14.5005 36.3164 14.816C36.3106 14.816 36.3047 14.816 36.2997 14.821C36.2947 14.826 36.2747 14.8369 36.2614 14.8427C35.7136 15.1078 35.2047 15.4468 34.749 15.8502L34.7048 15.8902C33.7847 16.718 33.1133 17.7856 32.7657 18.9734V18.9809C32.6893 19.2469 32.6304 19.5174 32.589 19.7909C32.579 19.8501 32.5699 19.9084 32.5615 19.9676C32.5221 20.2545 32.5012 20.5437 32.499 20.8334C32.5032 24.5135 35.4854 27.4957 39.1655 27.4998C39.4487 27.498 39.7315 27.478 40.0121 27.4398H40.0188C43.6732 26.9919 46.2725 23.6662 45.8246 20.0118ZM39.1396 25.8332C39.0496 25.8332 38.9612 25.8249 38.8721 25.8199C38.7962 25.8157 38.7187 25.8149 38.6437 25.8074C38.5487 25.7974 38.4562 25.7799 38.3629 25.7641C38.2912 25.7524 38.2196 25.7449 38.1496 25.7307C38.0563 25.7116 37.9663 25.6841 37.8746 25.6599C37.8071 25.6416 37.7379 25.6274 37.6721 25.6066C37.5838 25.5791 37.4996 25.5441 37.4146 25.5124C37.3471 25.4874 37.2788 25.4657 37.2129 25.4374C37.1296 25.4032 37.0538 25.3616 36.9738 25.3224C36.9088 25.2899 36.8413 25.2616 36.7771 25.2266C36.713 25.1916 36.6321 25.1382 36.5596 25.0941C36.4871 25.0499 36.428 25.0174 36.3655 24.9749C36.303 24.9324 36.2371 24.8791 36.1721 24.8308C36.1071 24.7824 36.043 24.7374 35.9813 24.6866C35.9197 24.6358 35.8663 24.5824 35.8088 24.5299C35.7513 24.4774 35.6847 24.4224 35.6272 24.3633C35.5697 24.3041 35.5255 24.2508 35.4738 24.1966C35.4222 24.1424 35.3588 24.0749 35.3072 24.0099C35.2555 23.9449 35.218 23.8899 35.173 23.8308C35.128 23.7716 35.068 23.6958 35.0205 23.625C34.973 23.5541 34.9372 23.4925 34.8997 23.4266C34.8622 23.3608 34.8105 23.2866 34.7705 23.2133C34.7305 23.14 34.7047 23.0775 34.6722 23.0091C34.6397 22.9408 34.5939 22.8558 34.5605 22.7766C34.5272 22.6975 34.508 22.6333 34.4814 22.5617C34.4547 22.49 34.418 22.4017 34.3922 22.3183C34.3664 22.235 34.343 22.1292 34.3189 22.0342C34.303 21.9692 34.283 21.9067 34.2697 21.8408C34.248 21.735 34.2347 21.6267 34.2205 21.5183C34.2122 21.4609 34.1997 21.4042 34.1939 21.3459C34.1558 20.9806 34.1598 20.612 34.2055 20.2476L34.203 20.2451C34.208 20.2034 34.2164 20.1617 34.2222 20.1217C34.2449 19.96 34.2761 19.7994 34.3155 19.6409C34.3222 19.6121 34.3297 19.5829 34.338 19.5534C34.6591 18.3613 35.4062 17.3283 36.438 16.6502C38.2202 19.0682 39.1765 21.9959 39.1654 24.9999C39.1654 25.2749 39.1562 25.5499 39.1396 25.8332ZM40.817 25.5474C40.8237 25.3641 40.832 25.1816 40.832 24.9999C40.8268 21.7744 39.8384 18.6271 37.9988 15.9777C40.6704 15.3228 43.3671 16.9576 44.022 19.6293C44.1186 20.0234 44.1667 20.4278 44.1652 20.8334C44.1616 22.9557 42.8197 24.8449 40.817 25.5474Z" fill="#D8004E"/>
<path d="M31.6674 10.8337C31.6683 7.1519 28.6844 4.16647 25.0026 4.16553C21.3208 4.16459 18.3354 7.14857 18.3345 10.8303C18.3336 14.2645 20.9418 17.1374 24.3601 17.4675H24.3585C24.4285 17.4742 24.501 17.4734 24.571 17.4784C24.7135 17.4875 24.8551 17.5 24.9993 17.5H25.0168C28.5466 17.4967 31.4619 14.7424 31.6657 11.2186C31.6648 11.178 31.6608 11.1376 31.6541 11.0977C31.6541 11.0095 31.6674 10.9228 31.6674 10.8337ZM29.8975 11.8395C29.8585 12.0228 29.8096 12.2039 29.7508 12.382C29.7125 12.5003 29.6675 12.6169 29.6233 12.7311C29.5558 12.8964 29.4797 13.0581 29.395 13.2153C29.3341 13.3261 29.2667 13.4319 29.1983 13.5378C29.13 13.6436 29.0683 13.7286 28.9992 13.8211C28.892 13.9645 28.7771 14.1019 28.655 14.2327C28.5717 14.3161 28.4883 14.3994 28.405 14.4827C28.2942 14.5861 28.18 14.6852 28.06 14.7777C27.94 14.8702 27.81 14.961 27.685 15.0435C27.6017 15.0994 27.5117 15.1535 27.4217 15.2035C27.2418 15.3034 27.056 15.3919 26.8651 15.4685C26.7867 15.5002 26.7059 15.5285 26.6251 15.556C26.4104 15.6317 26.1907 15.6924 25.9676 15.7377C25.9134 15.7485 25.8576 15.7535 25.8009 15.7627C25.5481 15.8052 25.2923 15.8283 25.0359 15.8319H25.0076C24.7181 15.8314 24.4292 15.8055 24.1443 15.7544L24.1043 15.7485C22.0591 15.3659 20.4638 13.7577 20.0978 11.7095C23.2671 10.5477 26.7455 10.5463 29.9158 11.7053C29.91 11.7503 29.9066 11.7953 29.8975 11.8395ZM20.0828 9.96703C20.5051 7.58084 22.576 5.83985 24.9993 5.83381C27.4194 5.83642 29.4903 7.5721 29.9158 9.95453C26.7184 8.92414 23.2775 8.92851 20.0828 9.96703Z" fill="#D8004E"/>
<path d="M24.9993 20.8335C22.6982 20.8335 20.8328 22.699 20.8328 25C20.8328 27.3011 22.6982 29.1666 24.9993 29.1666C27.2992 29.1639 29.1631 27.3 29.1659 25C29.1659 22.699 27.3004 20.8335 24.9993 20.8335ZM24.9993 27.5C23.6186 27.5 22.4994 26.3807 22.4994 25C22.4994 23.6194 23.6186 22.5001 24.9993 22.5001C26.38 22.5001 27.4992 23.6194 27.4992 25C27.4992 26.3807 26.38 27.5 24.9993 27.5Z" fill="#D8004E"/>
<path d="M18.3027 20.2333C18.3027 20.1958 18.2977 20.1583 18.2935 20.1216C18.271 19.9099 18.2402 19.705 18.1977 19.4966L18.191 19.4666C18.1086 19.0808 17.9924 18.7029 17.8435 18.3375C17.8219 18.2842 17.8002 18.23 17.7769 18.1767C17.5418 17.6386 17.2361 17.1341 16.8677 16.6767C16.8186 16.6159 16.7686 16.5567 16.7177 16.4984C16.5312 16.2819 16.3308 16.078 16.1178 15.8876C16.0303 15.8042 15.9436 15.7284 15.8511 15.6542C15.7344 15.5601 15.6153 15.4709 15.4911 15.3842C15.3161 15.2618 15.1353 15.1468 14.9486 15.0409C14.8511 14.9851 14.7511 14.9334 14.6503 14.8826C14.4258 14.7703 14.1952 14.6706 13.9595 14.5843C13.9178 14.5693 13.8812 14.5468 13.8387 14.5326C13.8249 14.5293 13.8111 14.5268 13.797 14.5251C10.3157 13.3365 6.53012 15.1951 5.34151 18.6764C4.1529 22.1577 6.01149 25.9433 9.49285 27.1319C9.89586 27.2695 10.3112 27.3682 10.7329 27.4265L10.8004 27.4373C11.0874 27.4767 11.3765 27.4976 11.6662 27.4998H11.6837C15.3638 27.4957 18.346 24.5135 18.3502 20.8334C18.3502 20.6299 18.3202 20.4324 18.3027 20.2333ZM9.1838 24.9998C9.1838 25.0548 9.1838 25.114 9.1838 25.1665C7.62916 24.2772 6.66887 22.6242 6.66637 20.8333C6.66908 18.073 8.90599 15.8361 11.6662 15.8334C11.8129 15.8334 11.9579 15.8426 12.102 15.8551C10.2065 18.5279 9.18682 21.723 9.1838 24.9998ZM15.2042 24.3659C14.2691 25.3025 13.0007 25.8302 11.6771 25.8331C11.4076 25.833 11.1385 25.8102 10.8729 25.7648C10.8571 25.5006 10.8504 25.2473 10.8504 25.0006C10.854 21.8623 11.8994 18.814 13.8228 16.3342L13.9545 16.3926C14.0462 16.4401 14.1345 16.4925 14.2228 16.5442C14.4346 16.6683 14.637 16.8075 14.8286 16.9609L14.847 16.975C14.9691 17.0767 15.0864 17.1834 15.1986 17.295C17.1527 19.246 17.1552 22.4118 15.2042 24.3659Z" fill="#D8004E"/>
<path d="M39.0656 33.278C38.8697 32.9474 38.6454 32.6344 38.3954 32.3424C38.3904 32.3333 38.3888 32.3333 38.3838 32.3233C38.3521 32.2866 38.3163 32.2549 38.2838 32.2183C38.1729 32.0958 38.0604 31.9758 37.9413 31.8616C37.8846 31.8074 37.8263 31.7558 37.7679 31.7033C37.6554 31.6033 37.5404 31.5058 37.4213 31.4125C37.3563 31.3625 37.2913 31.3133 37.2255 31.2658C37.1038 31.1825 36.9805 31.0991 36.8538 31.0158C36.7863 30.9733 36.7188 30.9325 36.6505 30.8916C36.5171 30.815 36.3796 30.7441 36.2405 30.6758C36.1747 30.6441 36.1097 30.6108 36.0422 30.5808C35.8938 30.5142 35.7413 30.4558 35.5872 30.4C35.5255 30.3775 35.4647 30.3525 35.4022 30.3325C35.2355 30.2792 35.0689 30.235 34.9022 30.1942C34.8447 30.18 34.788 30.1625 34.7297 30.15C34.553 30.1117 34.373 30.085 34.1914 30.0608C34.1397 30.0542 34.0889 30.0433 34.0372 30.0375C33.8031 30.0128 33.5678 30.0003 33.3322 30C29.6521 30.0042 26.6699 32.9864 26.6658 36.6665C26.6672 36.9384 26.6856 37.2101 26.7208 37.4798C26.7283 37.5423 26.7391 37.6031 26.7491 37.6648C26.7829 37.8891 26.828 38.1116 26.8841 38.3314C26.8958 38.3764 26.9066 38.4214 26.9191 38.4664C27.0706 39.0058 27.2898 39.5238 27.5716 40.008C27.5791 40.0205 27.5841 40.0339 27.5907 40.0464C27.5974 40.0589 27.6041 40.0605 27.6091 40.0689C29.4843 43.2325 33.5691 44.277 36.7328 42.4017C39.8964 40.5265 40.9409 36.4416 39.0656 33.278ZM31.323 32.0834C31.9567 31.8068 32.6408 31.665 33.3322 31.6667C33.6266 31.6684 33.9202 31.6963 34.2097 31.7501C34.2314 31.7542 34.2539 31.7567 34.2747 31.7601C34.5537 31.8148 34.8274 31.8932 35.093 31.9942L35.163 32.02C35.423 32.1242 35.6738 32.2499 35.913 32.3959C35.9363 32.41 35.9597 32.4234 35.9822 32.4384C36.2205 32.5884 36.4457 32.758 36.6555 32.9459L36.6863 32.9742C34.7899 35.7431 31.9779 37.7545 28.7449 38.6549C27.6422 36.1282 28.7964 33.1861 31.323 32.0834ZM35.6733 41.0852C34.9522 41.4673 34.1484 41.6667 33.3322 41.6663C31.9576 41.6659 30.6443 41.0975 29.7032 40.0955C32.9285 39.0771 35.7463 37.0591 37.7488 34.3332C39.0402 36.7708 38.111 39.7939 35.6733 41.0852Z" fill="#D8004E"/>
<path d="M16.6661 30C16.43 30.0005 16.1941 30.0133 15.9594 30.0383C15.9078 30.0442 15.8569 30.055 15.8053 30.0617C15.6236 30.0858 15.4436 30.1125 15.267 30.1508C15.2086 30.1633 15.152 30.1808 15.0945 30.195C14.9278 30.2358 14.7611 30.2783 14.5945 30.3333C14.532 30.3533 14.4711 30.3783 14.4095 30.4008C14.2553 30.4567 14.1028 30.515 13.9545 30.5817C13.887 30.6117 13.822 30.645 13.7562 30.6766C13.617 30.745 13.4795 30.8158 13.3462 30.8925C13.2778 30.9325 13.2103 30.9758 13.1428 31.0166C13.0162 31.0958 12.8929 31.1783 12.7712 31.2666C12.7054 31.3141 12.6404 31.3633 12.5754 31.4133C12.4562 31.5066 12.3412 31.6041 12.2287 31.7041C12.1704 31.7566 12.112 31.8083 12.0554 31.8624C11.9362 31.9766 11.8237 32.0966 11.7129 32.2191C11.6804 32.2558 11.6446 32.2874 11.6121 32.3241C11.6089 32.3302 11.6053 32.3361 11.6012 32.3416C9.20932 35.1351 9.53483 39.3388 12.3283 41.7307C15.1219 44.1226 19.3255 43.7971 21.7174 41.0036C21.9674 40.7117 22.1915 40.3987 22.3876 40.068C22.3926 40.0597 22.4009 40.0539 22.4059 40.0455C22.4109 40.0372 22.4176 40.0197 22.4251 40.0072C22.7068 39.523 22.9261 39.0049 23.0776 38.4656C23.0917 38.4164 23.1026 38.3748 23.1142 38.3331C23.1704 38.1133 23.2155 37.8908 23.2492 37.6664C23.2592 37.6039 23.2701 37.5431 23.2776 37.4806C23.3128 37.2106 23.3311 36.9388 23.3326 36.6665C23.3284 32.9864 20.3462 30.0042 16.6661 30ZM16.6661 41.6663C13.9075 41.6679 11.67 39.4328 11.6684 36.6743C11.668 35.8582 11.8675 35.0543 12.2495 34.3332C14.2528 37.0592 17.0715 39.077 20.2976 40.0947C19.3561 41.0976 18.0417 41.6664 16.6661 41.6663ZM21.2493 38.6531C18.0162 37.7527 15.2042 35.7413 13.3078 32.9724L13.3387 32.9441C13.5485 32.7563 13.7737 32.5866 14.012 32.4366C14.0345 32.4216 14.0578 32.4083 14.0812 32.3941C14.3203 32.2482 14.5711 32.1225 14.8311 32.0183L14.9011 31.9924C15.1667 31.8914 15.4405 31.8131 15.7194 31.7583C15.7403 31.7583 15.7628 31.7524 15.7844 31.7483C18.4887 31.2499 21.085 33.038 21.5835 35.7423C21.6397 36.0471 21.6673 36.3566 21.6659 36.6665C21.6649 37.3503 21.523 38.0265 21.2493 38.6531Z" fill="#D8004E"/>
</g>
<defs>
<clipPath id="clip0">
<rect width="50" height="50" fill="white"/>
</clipPath>
</defs>
</svg>
