<svg width="18" height="18" viewBox="0 0 18 18" fill="none" xmlns="http://www.w3.org/2000/svg">
<g clip-path="url(#clip0)">
<path fill-rule="evenodd" clip-rule="evenodd" d="M8.99983 2.25C8.9999 2.25 8.99994 2.25 8.99994 3L8.99993 3.75L8.94333 3.75008C8.90581 3.75017 8.85037 3.75033 8.77922 3.75067C8.63691 3.75133 8.43182 3.75267 8.18156 3.75535C7.68073 3.76071 7.00042 3.77141 6.28097 3.79279C5.56031 3.81421 4.80639 3.84616 4.15653 3.89356C3.49045 3.94214 2.99553 4.0032 2.74895 4.06815C2.52493 4.1325 2.32162 4.2544 2.15929 4.42175C2.00095 4.58499 1.88701 4.78589 1.82815 5.00531C1.60349 6.26053 1.49363 7.53361 1.49993 8.80879L1.49997 8.81721C1.49193 10.0976 1.60097 11.3761 1.8258 12.6365C1.89077 12.8448 2.00584 13.0341 2.16112 13.1878C2.32381 13.3488 2.52514 13.4653 2.74579 13.526C2.99129 13.5913 3.48759 13.6526 4.15653 13.7014C4.80639 13.7488 5.56031 13.7808 6.28097 13.8022C7.00042 13.8236 7.68073 13.8343 8.18156 13.8397C8.43182 13.8423 8.63691 13.8437 8.77922 13.8443C8.85037 13.8447 8.90581 13.8448 8.94333 13.8449H9.05655C9.09407 13.8448 9.14951 13.8447 9.22066 13.8443C9.36297 13.8437 9.56806 13.8423 9.81832 13.8397C10.3191 13.8343 10.9995 13.8236 11.7189 13.8022C12.4396 13.7808 13.1935 13.7488 13.8434 13.7014C14.5094 13.6529 15.0044 13.5918 15.2509 13.5269C15.475 13.4625 15.6783 13.3406 15.8406 13.1733C15.9989 13.01 16.1129 12.8091 16.1717 12.5897C16.3946 11.344 16.5045 10.0807 16.4999 8.8152L16.4999 8.80779C16.508 7.52293 16.3982 6.24006 16.1717 4.97533C16.1129 4.7559 15.9989 4.555 15.8406 4.39175C15.6801 4.22631 15.4796 4.1053 15.2586 4.04038C15.0037 3.9804 14.5069 3.92511 13.8481 3.88123C13.1969 3.83787 12.4419 3.80866 11.7208 3.7891C11.0009 3.76956 10.3201 3.75978 9.81902 3.75489C9.56861 3.75244 9.36339 3.75122 9.22097 3.75061L9.05669 3.75008L8.99993 3.75L8.99994 3C8.99994 2.25 8.9999 2.25 8.99983 2.25L9.05972 2.25008C9.09836 2.25016 9.15499 2.25031 9.22739 2.25062C9.37219 2.25124 9.58017 2.25248 9.83367 2.25496C10.3404 2.25991 11.0303 2.26981 11.7615 2.28965C12.4917 2.30946 13.2686 2.33932 13.9477 2.38455C14.6075 2.42848 15.2336 2.49013 15.6279 2.58641C15.6366 2.58856 15.6454 2.59086 15.6541 2.59333C16.1342 2.72915 16.5699 2.98925 16.9173 3.34736C17.2646 3.70547 17.5114 4.14891 17.6325 4.63289L16.9049 4.815L17.643 4.68186C17.8889 6.04515 18.0084 7.42824 17.9999 8.8135C18.0046 10.178 17.8852 11.5402 17.643 12.8831C17.6401 12.8995 17.6366 12.9159 17.6325 12.9321C17.5114 13.4161 17.2646 13.8595 16.9173 14.2176C16.5699 14.5758 16.1342 14.8359 15.6541 14.9717L15.6437 14.9745C15.2435 15.0816 14.6119 15.1494 13.9525 15.1975C13.272 15.2471 12.4941 15.2798 11.7635 15.3015C11.0317 15.3233 10.3414 15.3341 9.83437 15.3396C9.58072 15.3423 9.37261 15.3436 9.2277 15.3443C9.15523 15.3447 9.09855 15.3448 9.05986 15.3449L9.00027 15.345L8.94002 15.3449C8.90133 15.3448 8.84465 15.3447 8.77218 15.3443C8.62727 15.3436 8.41916 15.3423 8.16551 15.3396C7.65852 15.3341 6.96821 15.3233 6.23641 15.3015C5.50582 15.2798 4.72786 15.2471 4.04741 15.1975C3.38794 15.1494 2.75641 15.0816 2.35617 14.9745L2.352 14.9734C1.8817 14.8447 1.45253 14.5969 1.10597 14.2539C0.759412 13.9109 0.507172 13.4844 0.373621 13.0154C0.366842 12.9916 0.361245 12.9675 0.356852 12.9431C0.110972 11.58 -0.00850862 10.1971 -7.07922e-05 8.812C-0.00660649 7.43727 0.112865 6.06483 0.356846 4.7119C0.359812 4.69545 0.363327 4.67911 0.367385 4.66289C0.488523 4.17892 0.735237 3.73547 1.08261 3.37736C1.42998 3.01925 1.8657 2.75915 2.34577 2.62333L2.35617 2.62046C2.75641 2.51342 3.38794 2.44564 4.04741 2.39753C4.72786 2.3479 5.50582 2.31517 6.23641 2.29346C6.96821 2.27171 7.65852 2.26086 8.16551 2.25543C8.41916 2.25272 8.62727 2.25136 8.77218 2.25068C8.84465 2.25034 8.90133 2.25017 8.94002 2.25009L8.99983 2.25Z" fill="white" fill-opacity="0.6"/>
<path fill-rule="evenodd" clip-rule="evenodd" d="M6.93539 5.71157C7.16624 5.57728 7.4511 5.57589 7.68326 5.70791L11.9958 8.16042C12.2302 8.29374 12.375 8.54267 12.375 8.81236C12.375 9.08206 12.2302 9.33099 11.9958 9.46431L7.68326 11.9168C7.4511 12.0488 7.16624 12.0474 6.93539 11.9132C6.70453 11.7789 6.5625 11.5319 6.5625 11.2649V6.35986C6.5625 6.09279 6.70453 5.84586 6.93539 5.71157ZM8.0625 7.64918V9.97554L10.1078 8.81236L8.0625 7.64918Z" fill="white" fill-opacity="0.6"/>
</g>
<defs>
<clipPath id="clip0">
<rect width="18" height="18" fill="white"/>
</clipPath>
</defs>
</svg>
