<svg width="18" height="22" viewBox="0 0 18 22" fill="none" xmlns="http://www.w3.org/2000/svg">
<path d="M4.48106 14.154C4.48106 13.7887 4.22755 13.5708 3.78024 13.5708C3.59758 13.5708 3.47388 13.5888 3.40918 13.6061V14.7783C3.48579 14.7956 3.57997 14.8013 3.70979 14.8013C4.18657 14.8013 4.48106 14.5604 4.48106 14.154Z" fill="white"/>
<path d="M7.25008 13.583C7.04977 13.583 6.92032 13.6003 6.84375 13.6182V16.2144C6.92036 16.2324 7.04407 16.2324 7.1559 16.2324C7.96853 16.2381 8.49852 15.7908 8.49852 14.843C8.50427 14.0188 8.02132 13.583 7.25008 13.583Z" fill="white"/>
<path d="M12.3947 0H3.55865C2.26778 0 1.21715 1.05136 1.21715 2.3415V11H0.988457C0.467455 11 0.0449219 11.4221 0.0449219 11.9435V17.6657C0.0449219 18.1871 0.467409 18.6092 0.988457 18.6092H1.21715V19.6585C1.21715 20.95 2.26778 22 3.55865 22H15.6151C16.9052 22 17.9559 20.95 17.9559 19.6585V5.54171L12.3947 0ZM2.52021 12.9762C2.79672 12.9295 3.1854 12.8942 3.733 12.8942C4.2864 12.8942 4.68083 12.9999 4.94585 13.212C5.199 13.412 5.36984 13.742 5.36984 14.1304C5.36984 14.5187 5.24039 14.8489 5.00485 15.0725C4.69849 15.3609 4.24543 15.4903 3.71544 15.4903C3.59748 15.4903 3.49176 15.4845 3.40908 15.4731V16.892H2.52021V12.9762ZM15.6151 20.566H3.55865C3.05882 20.566 2.6518 20.159 2.6518 19.6585V18.6092H13.8909C14.412 18.6092 14.8345 18.1871 14.8345 17.6657V11.9435C14.8345 11.4221 14.412 11 13.8909 11H2.6518V2.3415C2.6518 1.8424 3.05887 1.43538 3.55865 1.43538L11.8583 1.42671V4.49455C11.8583 5.39063 12.5853 6.11838 13.4821 6.11838L16.4874 6.10975L16.5212 19.6584C16.5212 20.159 16.1149 20.566 15.6151 20.566ZM5.943 16.874V12.9762C6.27267 12.9237 6.70237 12.8942 7.15584 12.8942C7.90946 12.8942 8.39816 13.0294 8.78109 13.3178C9.19317 13.6241 9.45203 14.1125 9.45203 14.8136C9.45203 15.573 9.17551 16.0973 8.79254 16.4208C8.37471 16.7682 7.73867 16.9329 6.96164 16.9329C6.49631 16.9329 6.16663 16.9034 5.943 16.874ZM12.3689 14.5663V15.2961H10.9439V16.892H10.0432V12.9237H12.4688V13.6594H10.9439V14.5663H12.3689Z" fill="white"/>
</svg>
