<svg width="16" height="14" viewBox="0 0 16 14" fill="none" xmlns="http://www.w3.org/2000/svg">
<path fill-rule="evenodd" clip-rule="evenodd" d="M4.25 0.25H11.75C12.1625 0.25 12.5 0.5875 12.5 1V2.5C12.5 2.9125 12.1625 3.25 11.75 3.25H4.25C3.8375 3.25 3.5 2.9125 3.5 2.5V1C3.5 0.5875 3.8375 0.25 4.25 0.25ZM2.75 4H13.25C14.495 4 15.5 5.005 15.5 6.25V9.25C15.5 10.075 14.825 10.75 14 10.75H12.5V12.25C12.5 13.075 11.825 13.75 11 13.75H5C4.175 13.75 3.5 13.075 3.5 12.25V10.75H2C1.175 10.75 0.5 10.075 0.5 9.25V6.25C0.5 5.005 1.505 4 2.75 4ZM5.75 12.25H10.25C10.6625 12.25 11 11.9125 11 11.5V8.5H5V11.5C5 11.9125 5.3375 12.25 5.75 12.25ZM13.25 7C12.8375 7 12.5 6.6625 12.5 6.25C12.5 5.8375 12.8375 5.5 13.25 5.5C13.6625 5.5 14 5.8375 14 6.25C14 6.6625 13.6625 7 13.25 7Z" fill="#27AE60"/>
</svg>
