<svg width="24" height="28" viewBox="0 0 24 28" fill="none" xmlns="http://www.w3.org/2000/svg">
<path fill-rule="evenodd" clip-rule="evenodd" d="M21.3333 3.33317H20V0.666504H17.3333V3.33317H6.66667V0.666504H4V3.33317H2.66667C1.18667 3.33317 0.0133333 4.53317 0.0133333 5.99984L0 24.6665C0 26.1332 1.18667 27.3332 2.66667 27.3332H21.3333C22.8 27.3332 24 26.1332 24 24.6665V5.99984C24 4.53317 22.8 3.33317 21.3333 3.33317ZM8 12.6665H5.33333V15.3332H8V12.6665ZM13.3333 12.6665H10.6667V15.3332H13.3333V12.6665ZM16 12.6665H18.6667V15.3332H16V12.6665ZM2.66667 24.6665H21.3333V9.99984H2.66667V24.6665Z" fill="white"/>
</svg>
