<svg width="58" height="67" viewBox="0 0 58 67" fill="none" xmlns="http://www.w3.org/2000/svg">
<path d="M4.5 29.5H57.5V62C57.5 64.4853 55.4853 66.5 53 66.5H9C6.51472 66.5 4.5 64.4853 4.5 62V29.5Z" stroke="white"/>
<path d="M5 40H57.5" stroke="white"/>
<path d="M52 29.5L41.5 40" stroke="white"/>
<path d="M41.5 29.5L31 40" stroke="white"/>
<path d="M31 29.5L20.5 40" stroke="white"/>
<path d="M20.5 29.5L10 40" stroke="white"/>
<path d="M4.53872 29.6908L54.1081 10.9324L51.8075 4.85318C50.9279 2.52877 48.3305 1.35754 46.0061 2.23716L4.85418 17.8102C2.52977 18.6898 1.35854 21.2872 2.23816 23.6116L4.53872 29.6908Z" stroke="white"/>
<path d="M5.98847 17.9053L19.5191 24.0228" stroke="white" stroke-linecap="round"/>
<path d="M15.8127 14.1987L29.3433 20.3162" stroke="white" stroke-linecap="round"/>
<path d="M25.6369 10.4922L39.1675 16.6097" stroke="white" stroke-linecap="round"/>
<path d="M35.4611 6.78565L48.9917 12.9031" stroke="white" stroke-linecap="round"/>
<path d="M37.25 52.067C37.5833 52.2594 37.5833 52.7406 37.25 52.933L27.5 58.5622C27.1667 58.7546 26.75 58.5141 26.75 58.1292L26.75 46.8708C26.75 46.4859 27.1667 46.2454 27.5 46.4378L37.25 52.067Z" stroke="white"/>
</svg>
