<svg width="24" height="20" viewBox="0 0 24 20" fill="none" xmlns="http://www.w3.org/2000/svg">
<path d="M18 13.2918H6.5C4.29 13.2918 2.5 11.8747 2.5 10.1252C2.5 8.37558 4.29 6.9585 6.5 6.9585H19C20.38 6.9585 21.5 7.84516 21.5 8.93766C21.5 10.0302 20.38 10.9168 19 10.9168H8.5C7.95 10.9168 7.5 10.5606 7.5 10.1252C7.5 9.68975 7.95 9.3335 8.5 9.3335H18V8.146H8.5C7.12 8.146 6 9.03266 6 10.1252C6 11.2177 7.12 12.1043 8.5 12.1043H19C21.21 12.1043 23 10.6872 23 8.93766C23 7.18808 21.21 5.771 19 5.771H6.5C3.46 5.771 1 7.7185 1 10.1252C1 12.5318 3.46 14.4793 6.5 14.4793H18V13.2918Z" fill="white" fill-opacity="0.6"/>
</svg>
