<svg width="25" height="24" viewBox="0 0 25 24" fill="none" xmlns="http://www.w3.org/2000/svg">
<path fill-rule="evenodd" clip-rule="evenodd" d="M22.5 10C21.4 10 20.5 10.9 20.5 12C20.5 13.1 21.4 14 22.5 14V18C22.5 19.1 21.6 20 20.5 20H4.5C3.4 20 2.5 19.1 2.5 18V14C3.61 14 4.5 13.1 4.5 12C4.5 10.9 3.61 10 2.51 10V6C2.51 4.9 3.4 4 4.5 4H20.5C21.6 4 22.5 4.9 22.5 6V10ZM12.5 14.5L16.08 16.8L14.99 12.69L18.28 10L14.04 9.75L12.5 5.8L10.95 9.74L6.71 9.99L10 12.68L8.92 16.8L12.5 14.5Z" fill="white"/>
</svg>
