<svg width="39" height="26" viewBox="0 0 39 26" fill="none" xmlns="http://www.w3.org/2000/svg">
<g clip-path="url(#clip0)">
<rect y="0.800049" width="39" height="24.96" rx="2.34" fill="#00579F"/>
<path d="M17.524 17.6377H15.1229L16.6247 9.03003H19.0256L17.524 17.6377Z" fill="white"/>
<path d="M26.2279 9.24049C25.7543 9.06632 25.0031 8.87402 24.0743 8.87402C21.7032 8.87402 20.0335 10.0461 20.0233 11.7218C20.0036 12.9581 21.2187 13.6447 22.1276 14.057C23.0565 14.4782 23.3723 14.7531 23.3723 15.1286C23.3628 15.7053 22.6216 15.9711 21.9304 15.9711C20.9718 15.9711 20.4581 15.834 19.6775 15.5132L19.3614 15.3757L19.0254 17.3079C19.5885 17.5457 20.626 17.7568 21.7032 17.766C24.2226 17.766 25.8627 16.6121 25.8822 14.8264C25.8918 13.8465 25.2501 13.0957 23.8667 12.4822C23.027 12.0883 22.5127 11.8228 22.5127 11.4198C22.5225 11.0535 22.9477 10.6782 23.8956 10.6782C24.6762 10.6598 25.2497 10.8338 25.6842 11.0078L25.9013 11.0992L26.2279 9.24049V9.24049Z" fill="white"/>
<path d="M29.4192 14.5883C29.6169 14.0938 30.3778 12.18 30.3778 12.18C30.3678 12.1983 30.5751 11.6763 30.6937 11.3559L30.8615 12.0976C30.8615 12.0976 31.3162 14.158 31.4149 14.5883C31.0396 14.5883 29.8934 14.5883 29.4192 14.5883ZM32.383 9.03003H30.5257C29.953 9.03003 29.5179 9.18557 29.2708 9.74421L25.7043 17.6376H28.2237C28.2237 17.6376 28.6385 16.5752 28.7276 16.3464C29.004 16.3464 31.4548 16.3464 31.8104 16.3464C31.8793 16.6486 32.0969 17.6376 32.0969 17.6376H34.32L32.383 9.03003V9.03003Z" fill="white"/>
<path d="M13.1174 9.03003L10.766 14.8996L10.5091 13.7092C10.0743 12.3356 8.71093 10.8432 7.18945 10.1012L9.34327 17.6286H11.8823L15.6563 9.03003H13.1174V9.03003Z" fill="white"/>
<path d="M8.5825 9.03003H4.71945L4.67993 9.20395C7.69335 9.91826 9.68908 11.6401 10.509 13.7096L9.66926 9.75358C9.531 9.20383 9.10612 9.04816 8.5825 9.03003Z" fill="#FAA61A"/>
</g>
<defs>
<clipPath id="clip0">
<rect width="39" height="24.96" fill="white" transform="translate(0 0.800049)"/>
</clipPath>
</defs>
</svg>
