<svg width="23" height="18" viewBox="0 0 23 18" fill="none" xmlns="http://www.w3.org/2000/svg">
<path d="M7.7 8.85C8.53333 9.21667 9.18333 9.76667 9.65 10.5C10.1167 11.2333 10.35 12.1 10.35 13.1C10.35 14.5333 9.9 15.7 9 16.6C8.1 17.4667 6.95 17.9 5.55 17.9C4.15 17.9 2.98333 17.45 2.05 16.55C1.15 15.65 0.7 14.5 0.7 13.1C0.7 12.4333 0.783333 11.7667 0.95 11.1C1.11667 10.4333 1.48333 9.43333 2.05 8.1L4.95 0.899998H9.9L7.7 8.85ZM19.5 8.85C20.3333 9.21667 20.9833 9.76667 21.45 10.5C21.9167 11.2333 22.15 12.1 22.15 13.1C22.15 14.5333 21.7 15.7 20.8 16.6C19.9 17.4667 18.75 17.9 17.35 17.9C15.95 17.9 14.7833 17.45 13.85 16.55C12.95 15.65 12.5 14.5 12.5 13.1C12.5 12.4333 12.5833 11.7667 12.75 11.1C12.9167 10.4333 13.2833 9.43333 13.85 8.1L16.75 0.899998H21.7L19.5 8.85Z" fill="white"/>
</svg>
