<svg width="249" height="22" viewBox="0 0 249 22" fill="none" xmlns="http://www.w3.org/2000/svg">
<path d="M10.1775 1.22201C10.3688 0.882684 10.8574 0.882684 11.0487 1.22201L13.8694 6.22644C13.9407 6.35303 14.0636 6.44231 14.2061 6.47105L19.8372 7.60725C20.219 7.68429 20.37 8.14901 20.1064 8.43576L16.2186 12.6649C16.1202 12.7718 16.0733 12.9163 16.09 13.0607L16.7495 18.7673C16.7942 19.1542 16.3989 19.4414 16.0447 19.2793L10.8212 16.8886C10.6891 16.8282 10.5372 16.8282 10.405 16.8886L5.1815 19.2793C4.82732 19.4414 4.43201 19.1542 4.47673 18.7673L5.13626 13.0607C5.15294 12.9163 5.106 12.7718 5.00766 12.6649L1.11981 8.43576C0.856194 8.14901 1.00719 7.68429 1.38901 7.60725L7.02015 6.47105C7.16259 6.44231 7.28548 6.35303 7.35683 6.22644L10.1775 1.22201Z" fill="white"/>
<path d="M35.4856 1.22201C35.6769 0.882684 36.1655 0.882684 36.3568 1.22201L39.1775 6.22644C39.2489 6.35303 39.3717 6.44231 39.5142 6.47105L45.1453 7.60725C45.5271 7.68429 45.6781 8.14901 45.4145 8.43576L41.5267 12.6649C41.4283 12.7718 41.3814 12.9163 41.3981 13.0607L42.0576 18.7673C42.1023 19.1542 41.707 19.4414 41.3528 19.2793L36.1293 16.8886C35.9972 16.8282 35.8453 16.8282 35.7131 16.8886L30.4896 19.2793C30.1354 19.4414 29.7401 19.1542 29.7848 18.7673L30.4444 13.0607C30.461 12.9163 30.4141 12.7718 30.3158 12.6649L26.4279 8.43576C26.1643 8.14901 26.3153 7.68429 26.6971 7.60725L32.3283 6.47105C32.4707 6.44231 32.5936 6.35303 32.6649 6.22644L35.4856 1.22201Z" fill="white"/>
<path d="M60.794 1.22201C60.9853 0.882684 61.4739 0.882684 61.6651 1.22201L64.4859 6.22644C64.5572 6.35303 64.6801 6.44231 64.8225 6.47105L70.4537 7.60725C70.8355 7.68429 70.9865 8.14901 70.7229 8.43576L66.835 12.6649C66.7367 12.7718 66.6897 12.9163 66.7064 13.0607L67.366 18.7673C67.4107 19.1542 67.0154 19.4414 66.6612 19.2793L61.4377 16.8886C61.3055 16.8282 61.1536 16.8282 61.0215 16.8886L55.798 19.2793C55.4438 19.4414 55.0485 19.1542 55.0932 18.7673L55.7527 13.0607C55.7694 12.9163 55.7225 12.7718 55.6241 12.6649L51.7363 8.43576C51.4726 8.14901 51.6236 7.68429 52.0055 7.60725L57.6366 6.47105C57.779 6.44231 57.9019 6.35303 57.9733 6.22644L60.794 1.22201Z" fill="white"/>
<path d="M86.1021 1.22201C86.2934 0.882684 86.782 0.882684 86.9733 1.22201L89.794 6.22644C89.8653 6.35303 89.9882 6.44231 90.1306 6.47105L95.7618 7.60725C96.1436 7.68429 96.2946 8.14901 96.031 8.43576L92.1431 12.6649C92.0448 12.7718 91.9978 12.9163 92.0145 13.0607L92.6741 18.7673C92.7188 19.1542 92.3235 19.4414 91.9693 19.2793L86.7458 16.8886C86.6136 16.8282 86.4617 16.8282 86.3296 16.8886L81.1061 19.2793C80.7519 19.4414 80.3566 19.1542 80.4013 18.7673L81.0608 13.0607C81.0775 12.9163 81.0306 12.7718 80.9322 12.6649L77.0444 8.43576C76.7808 8.14901 76.9318 7.68429 77.3136 7.60725L82.9447 6.47105C83.0872 6.44231 83.21 6.35303 83.2814 6.22644L86.1021 1.22201Z" fill="white"/>
<path d="M111.41 1.22201C111.602 0.882684 112.09 0.882684 112.282 1.22201L115.102 6.22644C115.174 6.35303 115.297 6.44231 115.439 6.47105L121.07 7.60725C121.452 7.68429 121.603 8.14901 121.339 8.43576L117.451 12.6649C117.353 12.7718 117.306 12.9163 117.323 13.0607L117.982 18.7673C118.027 19.1542 117.632 19.4414 117.278 19.2793L112.054 16.8886C111.922 16.8282 111.77 16.8282 111.638 16.8886L106.414 19.2793C106.06 19.4414 105.665 19.1542 105.71 18.7673L106.369 13.0607C106.386 12.9163 106.339 12.7718 106.241 12.6649L102.353 8.43576C102.089 8.14901 102.24 7.68429 102.622 7.60725L108.253 6.47105C108.396 6.44231 108.518 6.35303 108.59 6.22644L111.41 1.22201Z" fill="white"/>
<path d="M136.719 1.22201C136.91 0.882684 137.398 0.882684 137.59 1.22201L140.41 6.22644C140.482 6.35303 140.605 6.44231 140.747 6.47105L146.378 7.60725C146.76 7.68429 146.911 8.14901 146.647 8.43576L142.76 12.6649C142.661 12.7718 142.614 12.9163 142.631 13.0607L143.291 18.7673C143.335 19.1542 142.94 19.4414 142.586 19.2793L137.362 16.8886C137.23 16.8282 137.078 16.8282 136.946 16.8886L131.723 19.2793C131.368 19.4414 130.973 19.1542 131.018 18.7673L131.677 13.0607C131.694 12.9163 131.647 12.7718 131.549 12.6649L127.661 8.43576C127.397 8.14901 127.548 7.68429 127.93 7.60725L133.561 6.47105C133.704 6.44231 133.826 6.35303 133.898 6.22644L136.719 1.22201Z" fill="white"/>
<path d="M162.027 1.22201C162.218 0.882684 162.707 0.882684 162.898 1.22201L165.719 6.22644C165.79 6.35303 165.913 6.44231 166.055 6.47105L171.686 7.60725C172.068 7.68429 172.219 8.14901 171.956 8.43576L168.068 12.6649C167.969 12.7718 167.922 12.9163 167.939 13.0607L168.599 18.7673C168.643 19.1542 168.248 19.4415 167.894 19.2794L162.67 16.8886C162.538 16.8282 162.386 16.8282 162.254 16.8886L157.031 19.2794C156.676 19.4415 156.281 19.1542 156.326 18.7673L156.985 13.0607C157.002 12.9163 156.955 12.7718 156.857 12.6649L152.969 8.43576C152.705 8.14901 152.856 7.68429 153.238 7.60725L158.869 6.47105C159.012 6.44231 159.135 6.35303 159.206 6.22644L162.027 1.22201Z" fill="white"/>
<path d="M187.335 1.22201C187.526 0.882684 188.015 0.882684 188.206 1.22201L191.027 6.22644C191.098 6.35303 191.221 6.44231 191.364 6.47105L196.995 7.60725C197.377 7.68429 197.528 8.14901 197.264 8.43576L193.376 12.6649C193.278 12.7718 193.231 12.9163 193.247 13.0607L193.907 18.7673C193.952 19.1542 193.556 19.4415 193.202 19.2794L187.979 16.8886C187.847 16.8282 187.695 16.8282 187.563 16.8886L182.339 19.2794C181.985 19.4415 181.589 19.1542 181.634 18.7673L182.294 13.0607C182.31 12.9163 182.263 12.7718 182.165 12.6649L178.277 8.43576C178.014 8.14901 178.165 7.68429 178.546 7.60725L184.178 6.47105C184.32 6.44231 184.443 6.35303 184.514 6.22644L187.335 1.22201Z" fill="white"/>
<path d="M212.643 1.22201C212.834 0.882684 213.323 0.882684 213.514 1.22201L216.335 6.22644C216.406 6.35303 216.529 6.44231 216.672 6.47105L222.303 7.60725C222.685 7.68429 222.836 8.14901 222.572 8.43576L218.684 12.6649C218.586 12.7718 218.539 12.9163 218.556 13.0607L219.215 18.7673C219.26 19.1542 218.864 19.4415 218.51 19.2794L213.287 16.8886C213.155 16.8282 213.003 16.8282 212.871 16.8886L207.647 19.2794C207.293 19.4415 206.898 19.1542 206.942 18.7673L207.602 13.0607C207.619 12.9163 207.572 12.7718 207.473 12.6649L203.585 8.43576C203.322 8.14901 203.473 7.68429 203.855 7.60725L209.486 6.47105C209.628 6.44231 209.751 6.35303 209.822 6.22644L212.643 1.22201Z" fill="white"/>
<path d="M237.951 1.22201C238.142 0.882684 238.631 0.882684 238.822 1.22201L241.643 6.22644C241.714 6.35303 241.837 6.44231 241.98 6.47105L247.611 7.60725C247.993 7.68429 248.144 8.14901 247.88 8.43576L243.992 12.6649C243.894 12.7718 243.847 12.9163 243.864 13.0607L244.523 18.7673C244.568 19.1542 244.173 19.4415 243.818 19.2794L238.595 16.8886C238.463 16.8282 238.311 16.8282 238.179 16.8886L232.955 19.2794C232.601 19.4415 232.206 19.1542 232.25 18.7673L232.91 13.0607C232.927 12.9163 232.88 12.7718 232.781 12.6649L228.893 8.43576C228.63 8.14901 228.781 7.68429 229.163 7.60725L234.794 6.47105C234.936 6.44231 235.059 6.35303 235.131 6.22644L237.951 1.22201Z" fill="white"/>
</svg>
