<svg width="1440" height="900" viewBox="0 0 1440 900" fill="none" xmlns="http://www.w3.org/2000/svg">
<path opacity="0.35" d="M438 -56.9927L1006 900.007" stroke="#D8004E"/>
<path opacity="0.35" d="M1349.61 61.3664C1335.46 36.8698 1304.52 23.4143 1260.3 20.2917C1216.11 17.1716 1158.89 24.3901 1092.53 41.0013C959.836 74.2211 790.805 144.959 616.913 245.356C443.022 345.752 297.246 456.768 202.127 555.078C154.564 604.238 119.7 650.186 100.309 690.012C80.9038 729.869 77.0846 763.395 91.2277 787.892C105.371 812.388 136.315 825.844 180.534 828.966C224.72 832.086 281.945 824.868 348.3 808.257C480.998 775.037 650.029 704.299 823.921 603.903C997.812 503.506 1143.59 392.49 1238.71 294.18C1286.27 245.021 1321.13 199.072 1340.52 159.246C1359.93 119.389 1363.75 85.8629 1349.61 61.3664Z" stroke="#D8004E" stroke-width="1.6"/>
</svg>
