<svg width="115" height="115" viewBox="0 0 115 115" fill="none" xmlns="http://www.w3.org/2000/svg">
<g filter="url(#filter0_f)">
<circle cx="57.5" cy="57.5" r="27.5" fill="#D8004E" fill-opacity="0.8"/>
</g>
<path d="M74.45 67.4H71.6912C77.1637 60.1196 75.698 49.7813 68.4176 44.3088C65.5581 42.1594 62.0773 40.9981 58.5 41C49.3873 41 42 48.3873 42 57.5C42 66.6127 49.3873 74 58.5 74H74.45C74.7537 74 75 73.7537 75 73.45V67.95C75 67.6463 74.7537 67.4 74.45 67.4ZM64.0511 71.8599C63.8517 71.937 63.65 72.0103 63.4461 72.08C63.3988 72.0959 63.3515 72.1124 63.3037 72.1278C63.0917 72.1979 62.8782 72.2629 62.6629 72.323C62.62 72.3351 62.5777 72.3478 62.5348 72.3594C62.3148 72.4193 62.0948 72.4732 61.872 72.5243C61.8302 72.5337 61.7895 72.5442 61.7477 72.553C61.5277 72.6014 61.3011 72.6432 61.0756 72.6811C61.0327 72.6888 60.9898 72.6976 60.9464 72.7048C60.7264 72.74 60.5064 72.7691 60.2809 72.795C60.2314 72.8005 60.183 72.8087 60.1335 72.8137C59.9135 72.8373 59.6935 72.8533 59.4735 72.8687C59.4185 72.872 59.3679 72.878 59.3145 72.8807C59.0454 72.8936 58.7739 72.9 58.5 72.9C49.9989 72.8903 43.1097 66.0011 43.1 57.5C43.0925 48.9948 49.9813 42.094 58.4864 42.0865C66.9915 42.079 73.8925 48.9677 73.9 57.4728C73.9034 61.2755 72.4997 64.9449 69.9592 67.7745C69.9042 67.8345 69.8492 67.8934 69.7942 67.9522C69.6721 68.0842 69.5489 68.2146 69.4224 68.3421C69.3735 68.3917 69.3229 68.4395 69.2728 68.4884C69.1381 68.6204 69.0028 68.7519 68.8631 68.8795C68.8268 68.912 68.7894 68.9433 68.7531 68.9763C68.2952 69.385 67.8134 69.7663 67.3104 70.1181C67.234 70.1731 67.1592 70.2281 67.0822 70.2792C66.9799 70.348 66.8743 70.4129 66.7703 70.4795C66.6488 70.557 66.5283 70.6351 66.4046 70.7094C66.3177 70.7616 66.2286 70.8106 66.14 70.8612C65.9943 70.9448 65.8485 71.0262 65.7 71.1065C65.6247 71.1466 65.5482 71.1845 65.4729 71.223C65.3079 71.3077 65.139 71.3881 64.9702 71.4689C64.9053 71.4992 64.8398 71.5283 64.7749 71.5575C64.5912 71.6394 64.4059 71.7186 64.2194 71.7934L64.0511 71.8599ZM73.9 72.9H64.4191C64.4499 72.8879 64.4796 72.8736 64.5104 72.8615C64.7458 72.7691 64.9784 72.6718 65.2083 72.5695L65.4091 72.4781C65.6222 72.3799 65.8323 72.2768 66.0394 72.1691C66.1092 72.1333 66.1796 72.0986 66.2489 72.059C66.4766 71.9377 66.7013 71.8107 66.9227 71.6779C66.9639 71.6531 67.0063 71.6312 67.0475 71.6064C67.2906 71.4585 67.5293 71.3033 67.7625 71.1433C67.8791 71.0641 67.993 70.9783 68.1079 70.8974C68.2229 70.8166 68.3494 70.7236 68.4676 70.6334C68.5958 70.5366 68.7212 70.4366 68.8466 70.3359C68.9467 70.2551 69.0451 70.1709 69.143 70.0901C69.2734 69.9801 69.4026 69.8701 69.528 69.7556C69.6138 69.6786 69.6963 69.5989 69.7805 69.5203C70.0673 69.2507 70.3453 68.971 70.6148 68.681C70.6456 68.648 70.6781 68.6161 70.7083 68.5825C70.7386 68.549 70.765 68.5292 70.7925 68.5H73.9V72.9Z" fill="white"/>
<path d="M72.2458 54.2079C71.9501 51.7959 69.7551 50.0803 67.3432 50.3759C66.8666 50.4343 66.4028 50.5703 65.9702 50.7786C65.9664 50.7786 65.9625 50.7786 65.9592 50.7819C65.9559 50.7852 65.9427 50.7923 65.9339 50.7962C65.5724 50.9711 65.2365 51.1949 64.9357 51.4611L64.9065 51.4875C64.2993 52.0339 63.8561 52.7386 63.6267 53.5225V53.5275C63.5763 53.703 63.5374 53.8815 63.5101 54.0621C63.5035 54.1011 63.4974 54.1396 63.4919 54.1787C63.4659 54.3681 63.4521 54.5589 63.4507 54.7501C63.4534 57.1791 65.4217 59.1474 67.8507 59.1501C68.0376 59.1489 68.2243 59.1357 68.4095 59.1105H68.4139C70.8258 58.8149 72.5414 56.6198 72.2458 54.2079ZM67.8336 58.0501C67.7742 58.0501 67.7159 58.0446 67.657 58.0413C67.607 58.0386 67.5558 58.038 67.5063 58.0331C67.4436 58.0265 67.3826 58.0149 67.321 58.0045C67.2737 57.9968 67.2264 57.9918 67.1802 57.9825C67.1186 57.9698 67.0592 57.9517 66.9987 57.9357C66.9541 57.9236 66.9085 57.9143 66.865 57.9005C66.8067 57.8824 66.7512 57.8593 66.6951 57.8384C66.6505 57.8219 66.6054 57.8076 66.562 57.7889C66.507 57.7663 66.4569 57.7388 66.4041 57.713C66.3612 57.6915 66.3167 57.6728 66.2743 57.6497C66.232 57.6266 66.1786 57.5914 66.1308 57.5623C66.0829 57.5331 66.0439 57.5117 66.0026 57.4836C65.9614 57.4556 65.9179 57.4204 65.875 57.3885C65.8321 57.3566 65.7898 57.3269 65.7491 57.2933C65.7084 57.2598 65.6732 57.2246 65.6352 57.1899C65.5973 57.1553 65.5533 57.119 65.5153 57.0799C65.4774 57.0409 65.4482 57.0057 65.4141 56.9699C65.38 56.9342 65.3382 56.8896 65.3041 56.8467C65.27 56.8038 65.2453 56.7675 65.2156 56.7285C65.1859 56.6894 65.1463 56.6394 65.1149 56.5926C65.0836 56.5459 65.0599 56.5052 65.0352 56.4617C65.0104 56.4183 64.9763 56.3693 64.9499 56.3209C64.9235 56.2725 64.9065 56.2313 64.885 56.1862C64.8636 56.1411 64.8333 56.085 64.8113 56.0327C64.7893 55.9805 64.7767 55.9381 64.7591 55.8908C64.7415 55.8435 64.7173 55.7852 64.7002 55.7302C64.6832 55.6752 64.6678 55.6054 64.6518 55.5427C64.6414 55.4998 64.6282 55.4585 64.6194 55.4151C64.6051 55.3452 64.5963 55.2737 64.5869 55.2022C64.5814 55.1643 64.5732 55.1269 64.5693 55.0884C64.5442 54.8473 64.5468 54.604 64.577 54.3635L64.5754 54.3618C64.5787 54.3343 64.5842 54.3068 64.588 54.2804C64.603 54.1737 64.6236 54.0677 64.6496 53.9631C64.654 53.944 64.659 53.9248 64.6645 53.9053C64.8764 53.1185 65.3695 52.4367 66.0505 51.9891C67.2268 53.5851 67.858 55.5174 67.8506 57.5001C67.8506 57.6816 67.8446 57.8631 67.8336 58.0501ZM68.9407 57.8615C68.9451 57.7405 68.9506 57.62 68.9506 57.5001C68.9472 55.3712 68.2948 53.2939 67.0806 51.5453C68.844 51.113 70.6239 52.1921 71.0561 53.9554C71.1198 54.2155 71.1516 54.4824 71.1506 54.7501C71.1482 56.1509 70.2625 57.3978 68.9407 57.8615Z" fill="white"/>
<path d="M62.9011 48.1496C62.9017 45.7196 60.9322 43.7492 58.5022 43.7485C56.0721 43.7479 54.1017 45.7174 54.1011 48.1474C54.1005 50.4141 55.822 52.3102 58.0781 52.5281H58.077C58.1232 52.5325 58.1711 52.532 58.2173 52.5353C58.3113 52.5413 58.4048 52.5496 58.5 52.5496H58.5115C60.8413 52.5474 62.7654 50.7295 62.9 48.4037C62.8994 48.3769 62.8967 48.3502 62.8923 48.3239C62.8923 48.2657 62.9011 48.2085 62.9011 48.1496ZM61.7329 48.8135C61.7072 48.9345 61.6748 49.054 61.6361 49.1715C61.6108 49.2496 61.5811 49.3266 61.5519 49.402C61.5074 49.5111 61.4571 49.6178 61.4012 49.7215C61.3611 49.7947 61.3165 49.8645 61.2714 49.9344C61.2263 50.0042 61.1856 50.0603 61.14 50.1214C61.0692 50.2161 60.9934 50.3067 60.9128 50.3931C60.8578 50.4481 60.8028 50.5031 60.7478 50.5581C60.6747 50.6263 60.5993 50.6917 60.5201 50.7528C60.4409 50.8138 60.3551 50.8738 60.2726 50.9282C60.2176 50.9651 60.1582 51.0008 60.0988 51.0338C59.9801 51.0998 59.8574 51.1581 59.7314 51.2087C59.6797 51.2296 59.6264 51.2483 59.573 51.2665C59.4313 51.3164 59.2863 51.3565 59.1391 51.3864C59.1033 51.3935 59.0665 51.3968 59.0291 51.4029C58.8622 51.4309 58.6934 51.4462 58.5242 51.4485H58.5055C58.3144 51.4483 58.1237 51.4311 57.9357 51.3974L57.9093 51.3935C56.5594 51.141 55.5065 50.0796 55.2649 48.7277C57.3567 47.9609 59.6525 47.96 61.745 48.7249C61.7411 48.7546 61.7389 48.7843 61.7329 48.8135ZM55.255 47.5776C55.5338 46.0027 56.9006 44.8536 58.5 44.8496C60.0973 44.8514 61.4641 45.9969 61.745 47.5694C59.6346 46.8893 57.3635 46.8922 55.255 47.5776Z" fill="white"/>
<path d="M58.4995 54.75C56.9808 54.75 55.7495 55.9812 55.7495 57.5C55.7495 59.0188 56.9808 60.25 58.4995 60.25C60.0175 60.2482 61.2477 59.018 61.2495 57.5C61.2495 55.9812 60.0183 54.75 58.4995 54.75ZM58.4995 59.15C57.5882 59.15 56.8495 58.4113 56.8495 57.5C56.8495 56.5887 57.5882 55.85 58.4995 55.85C59.4108 55.85 60.1495 56.5887 60.1495 57.5C60.1495 58.4113 59.4108 59.15 58.4995 59.15Z" fill="white"/>
<path d="M54.0802 54.3541C54.0802 54.3294 54.0769 54.3046 54.0742 54.2804C54.0593 54.1407 54.039 54.0054 54.0109 53.8679L54.0065 53.8481C53.9521 53.5935 53.8754 53.344 53.7772 53.1029C53.7629 53.0677 53.7486 53.0319 53.7332 52.9967C53.578 52.6416 53.3762 52.3086 53.1331 52.0067C53.1007 51.9666 53.0677 51.9275 53.0341 51.889C52.911 51.7462 52.7787 51.6115 52.6381 51.4859C52.5804 51.4309 52.5232 51.3808 52.4621 51.3319C52.3851 51.2697 52.3065 51.2109 52.2245 51.1537C52.109 51.0728 51.9897 50.9969 51.8665 50.9271C51.8021 50.8902 51.7361 50.8561 51.6696 50.8226C51.5214 50.7485 51.3692 50.6827 51.2136 50.6257C51.1861 50.6158 51.1619 50.6009 51.1339 50.5916C51.1248 50.5894 51.1156 50.5877 51.1064 50.5866C48.8087 49.8021 46.3101 51.0288 45.5256 53.3266C44.7411 55.6243 45.9678 58.1229 48.2655 58.9074C48.5315 58.9982 48.8056 59.0633 49.084 59.1018L49.1286 59.1089C49.318 59.1349 49.5088 59.1487 49.7 59.1502H49.7116C52.1405 59.1474 54.1088 57.1791 54.1116 54.7502C54.1116 54.6159 54.0918 54.4856 54.0802 54.3541ZM48.0616 57.5001C48.0616 57.5364 48.0616 57.5755 48.0616 57.6101C47.0355 57.0232 46.4017 55.9322 46.4 54.7501C46.4018 52.9283 47.8782 51.4519 49.7 51.4501C49.7968 51.4501 49.8925 51.4562 49.9877 51.4644C48.7366 53.2285 48.0636 55.3374 48.0616 57.5001ZM52.0352 57.0817C51.4179 57.6999 50.5808 58.0482 49.7072 58.0501C49.5293 58.05 49.3517 58.035 49.1764 58.005C49.166 57.8307 49.1616 57.6635 49.1616 57.5007C49.1639 55.4293 49.8539 53.4174 51.1234 51.7807L51.2103 51.8192C51.2708 51.8505 51.3291 51.8852 51.3874 51.9193C51.5272 52.0011 51.6608 52.0931 51.7873 52.1943L51.7994 52.2036C51.88 52.2707 51.9574 52.3411 52.0315 52.4148C53.3212 53.7025 53.3229 55.792 52.0352 57.0817Z" fill="white"/>
<path d="M67.7842 62.9634C67.6549 62.7452 67.5069 62.5386 67.3419 62.3459C67.3386 62.3398 67.3375 62.3398 67.3342 62.3332C67.3133 62.309 67.2896 62.2881 67.2682 62.2639C67.195 62.1831 67.1208 62.1039 67.0421 62.0285C67.0047 61.9928 66.9662 61.9587 66.9277 61.924C66.8535 61.858 66.7776 61.7937 66.6989 61.7321C66.656 61.6991 66.6131 61.6666 66.5697 61.6353C66.4894 61.5803 66.408 61.5253 66.3244 61.4703C66.2798 61.4422 66.2353 61.4153 66.1902 61.3883C66.1022 61.3377 66.0114 61.291 65.9196 61.2459C65.8761 61.225 65.8332 61.203 65.7887 61.1832C65.6908 61.1392 65.5901 61.1007 65.4884 61.0638C65.4477 61.049 65.4075 61.0325 65.3663 61.0193C65.2563 60.9841 65.1463 60.9549 65.0363 60.928C64.9983 60.9186 64.9609 60.9071 64.9224 60.8988C64.8058 60.8735 64.687 60.8559 64.5671 60.84C64.533 60.8356 64.4995 60.8284 64.4654 60.8246C64.3108 60.8083 64.1555 60.8 64.0001 60.7998C61.5712 60.8026 59.6028 62.7709 59.6001 65.1998C59.6011 65.3793 59.6132 65.5586 59.6364 65.7366C59.6413 65.7779 59.6485 65.818 59.6551 65.8587C59.6774 66.0068 59.7071 66.1536 59.7442 66.2987C59.7519 66.3284 59.759 66.3581 59.7673 66.3878C59.8673 66.7438 60.012 67.0857 60.1979 67.4053C60.2029 67.4136 60.2062 67.4224 60.2106 67.4306C60.215 67.4389 60.2194 67.44 60.2227 67.4455C61.4604 69.5335 64.1564 70.2229 66.2445 68.9852C68.3326 67.7475 69.0219 65.0514 67.7842 62.9634ZM62.674 62.1749C63.0922 61.9923 63.5437 61.8987 64.0001 61.8999C64.1944 61.901 64.3882 61.9194 64.5792 61.9549C64.5935 61.9576 64.6084 61.9593 64.6221 61.9615C64.8063 61.9976 64.9869 62.0493 65.1622 62.116L65.2084 62.1331C65.38 62.2018 65.5456 62.2848 65.7034 62.3811C65.7188 62.3905 65.7342 62.3993 65.7491 62.4092C65.9064 62.5082 66.055 62.6202 66.1935 62.7441L66.2138 62.7628C64.9622 64.5903 63.1062 65.9179 60.9723 66.5122C60.2446 64.8445 61.0064 62.9027 62.674 62.1749ZM65.5453 68.1163C65.0693 68.3684 64.5388 68.5001 64.0001 68.4998C63.0928 68.4995 62.226 68.1244 61.6048 67.4631C63.7336 66.7909 65.5934 65.4589 66.9151 63.6598C67.7675 65.2687 67.1541 67.264 65.5453 68.1163Z" fill="white"/>
<path d="M53.0007 60.7998C52.8449 60.8001 52.6891 60.8086 52.5343 60.8251C52.5002 60.829 52.4666 60.8361 52.4325 60.8405C52.3126 60.8565 52.1938 60.8741 52.0772 60.8994C52.0387 60.9076 52.0013 60.9192 51.9634 60.9285C51.8534 60.9555 51.7434 60.9835 51.6334 61.0198C51.5921 61.033 51.552 61.0495 51.5113 61.0644C51.4095 61.1012 51.3089 61.1397 51.211 61.1837C51.1664 61.2035 51.1235 61.2255 51.0801 61.2464C50.9882 61.2915 50.8975 61.3383 50.8095 61.3889C50.7644 61.4153 50.7198 61.4439 50.6753 61.4708C50.5917 61.5231 50.5103 61.5775 50.43 61.6358C50.3865 61.6672 50.3436 61.6996 50.3007 61.7326C50.2221 61.7942 50.1462 61.8586 50.0719 61.9246C50.0334 61.9592 49.9949 61.9933 49.9575 62.0291C49.8789 62.1044 49.8046 62.1836 49.7315 62.2645C49.71 62.2887 49.6864 62.3096 49.6649 62.3338C49.6628 62.3378 49.6604 62.3417 49.6578 62.3453C48.079 64.189 48.2939 66.9636 50.1376 68.5423C51.9814 70.121 54.7559 69.9062 56.3346 68.0624C56.4996 67.8697 56.6476 67.6631 56.777 67.4449C56.7803 67.4394 56.7858 67.4356 56.7891 67.4301C56.7924 67.4246 56.7968 67.413 56.8017 67.4048C56.9877 67.0851 57.1324 66.7432 57.2324 66.3873C57.2417 66.3548 57.2489 66.3273 57.2566 66.2998C57.2936 66.1547 57.3234 66.0079 57.3457 65.8598C57.3523 65.8186 57.3594 65.7784 57.3644 65.7372C57.3876 65.559 57.3997 65.3795 57.4007 65.1998C57.3979 62.7709 55.4296 60.8026 53.0007 60.7998ZM53.0007 68.4998C51.1799 68.5008 49.7031 67.0257 49.7021 65.205C49.7018 64.6663 49.8335 64.1358 50.0857 63.6598C51.4079 65.459 53.2682 66.7908 55.3976 67.4625C54.7761 68.1244 53.9086 68.4999 53.0007 68.4998ZM56.0257 66.511C53.8918 65.9167 52.0358 64.5892 50.7842 62.7617L50.8045 62.743C50.943 62.619 51.0916 62.507 51.2489 62.408C51.2638 62.3981 51.2792 62.3893 51.2946 62.38C51.4524 62.2836 51.618 62.2007 51.7896 62.1319L51.8358 62.1149C52.0111 62.0482 52.1917 61.9965 52.3759 61.9603C52.3896 61.9603 52.4045 61.9565 52.4188 61.9537C54.2036 61.6247 55.9172 62.805 56.2463 64.5899C56.2833 64.791 56.3015 64.9953 56.3007 65.1998C56.3 65.6511 56.2063 66.0975 56.0257 66.511Z" fill="white"/>
<defs>
<filter id="filter0_f" x="0" y="0" width="115" height="115" filterUnits="userSpaceOnUse" color-interpolation-filters="sRGB">
<feFlood flood-opacity="0" result="BackgroundImageFix"/>
<feBlend mode="normal" in="SourceGraphic" in2="BackgroundImageFix" result="shape"/>
<feGaussianBlur stdDeviation="15" result="effect1_foregroundBlur"/>
</filter>
</defs>
</svg>
