<svg width="115" height="115" viewBox="0 0 115 115" fill="none" xmlns="http://www.w3.org/2000/svg">
<g filter="url(#filter0_f)">
<circle cx="57.5" cy="57.5" r="27.5" fill="#D8004E" fill-opacity="0.8"/>
</g>
<path d="M63.481 55.8302C63.4317 55.7428 63.3595 55.6706 63.2722 55.6213L54.4722 50.6713C54.2082 50.521 53.8724 50.613 53.722 50.877C53.6746 50.9603 53.6497 51.0545 53.6499 51.1504V61.0504C53.6505 61.2462 53.7552 61.4271 53.9249 61.525C54.0936 61.6236 54.3019 61.6253 54.4722 61.5294L63.2722 56.5794C63.5367 56.4302 63.6302 56.0947 63.481 55.8302ZM54.7499 60.1099V52.0909L61.8779 56.1004L54.7499 60.1099Z" fill="white"/>
<path d="M52.0002 67.0995V65.9995H50.9002V67.0995H43.2002V68.1995H50.9002V69.2995H52.0002V68.1995H71.8002V67.0995H52.0002Z" fill="white"/>
<path d="M57.4997 47.3003C52.6396 47.3003 48.6997 51.2402 48.6997 56.1003C48.7055 60.958 52.642 64.8945 57.4997 64.9003C62.3598 64.9003 66.2997 60.9604 66.2997 56.1003C66.2997 51.2402 62.3598 47.3003 57.4997 47.3003ZM57.4997 63.8003C53.2471 63.8003 49.7997 60.3529 49.7997 56.1003C49.8042 51.8496 53.249 48.4048 57.4997 48.4003C61.7523 48.4003 65.1997 51.8477 65.1997 56.1003C65.1997 60.3529 61.7523 63.8003 57.4997 63.8003Z" fill="white"/>
<path d="M72.35 44H42.65C41.7387 44 41 44.7387 41 45.65V69.85C41 70.7613 41.7387 71.5 42.65 71.5H72.35C73.2613 71.5 74 70.7613 74 69.85V45.65C74 44.7387 73.2613 44 72.35 44ZM72.9 69.85C72.9 70.1537 72.6537 70.4 72.35 70.4H42.65C42.3463 70.4 42.1 70.1537 42.1 69.85V45.65C42.1 45.3463 42.3463 45.1 42.65 45.1H72.35C72.6537 45.1 72.9 45.3463 72.9 45.65V69.85Z" fill="white"/>
<path d="M44.3002 46.2002H43.2002V47.3002H44.3002V46.2002Z" fill="white"/>
<path d="M46.4999 46.2002H45.3999V47.3002H46.4999V46.2002Z" fill="white"/>
<path d="M48.7001 46.2002H47.6001V47.3002H48.7001V46.2002Z" fill="white"/>
<defs>
<filter id="filter0_f" x="0" y="0" width="115" height="115" filterUnits="userSpaceOnUse" color-interpolation-filters="sRGB">
<feFlood flood-opacity="0" result="BackgroundImageFix"/>
<feBlend mode="normal" in="SourceGraphic" in2="BackgroundImageFix" result="shape"/>
<feGaussianBlur stdDeviation="15" result="effect1_foregroundBlur"/>
</filter>
</defs>
</svg>
