<svg width="46" height="46" viewBox="0 0 46 46" fill="none" xmlns="http://www.w3.org/2000/svg">
<path d="M37.6669 21.1858V3.20001C37.6669 2.61653 37.4351 2.05695 37.0225 1.64437C36.6099 1.23179 36.0503 1 35.4668 1H3.20001C2.61653 1 2.05695 1.23179 1.64437 1.64437C1.23179 2.05695 1 2.61653 1 3.20001V35.4668C1 36.0503 1.23179 36.6099 1.64437 37.0225C2.05695 37.4351 2.61653 37.6669 3.20001 37.6669H21.1858C22.0152 39.5042 23.278 41.1129 24.8658 42.3548C26.4537 43.5968 28.3192 44.4348 30.3022 44.7971C32.2853 45.1594 34.3266 45.0351 36.2511 44.4349C38.1755 43.8346 39.9255 42.7764 41.3509 41.3509C42.7764 39.9255 43.8346 38.1755 44.4349 36.2511C45.0351 34.3266 45.1594 32.2853 44.7971 30.3022C44.4348 28.3192 43.5968 26.4537 42.3548 24.8658C41.1129 23.278 39.5042 22.0152 37.6669 21.1858ZM3.20001 2.46667H35.4668C35.6613 2.46667 35.8479 2.54394 35.9854 2.68146C36.1229 2.81899 36.2002 3.00552 36.2002 3.20001V6.8667H2.46667V3.20001C2.46667 3.00552 2.54394 2.81899 2.68146 2.68146C2.81899 2.54394 3.00552 2.46667 3.20001 2.46667ZM3.20001 36.2002C3.00552 36.2002 2.81899 36.1229 2.68146 35.9854C2.54394 35.8479 2.46667 35.6613 2.46667 35.4668V8.33337H36.2002V20.619C34.0345 19.9527 31.7282 19.8894 29.5291 20.4356C27.3301 20.9819 25.3215 22.1171 23.7193 23.7193C22.1171 25.3215 20.9819 27.3301 20.4356 29.5291C19.8894 31.7282 19.9527 34.0345 20.619 36.2002H3.20001ZM32.5335 43.5336C30.3579 43.5336 28.2311 42.8884 26.4222 41.6797C24.6132 40.471 23.2033 38.753 22.3708 36.743C21.5382 34.733 21.3204 32.5213 21.7448 30.3875C22.1692 28.2537 23.2169 26.2937 24.7553 24.7553C26.2937 23.2169 28.2537 22.1692 30.3875 21.7448C32.5213 21.3204 34.733 21.5382 36.743 22.3708C38.753 23.2033 40.471 24.6132 41.6797 26.4222C42.8884 28.2311 43.5336 30.3579 43.5336 32.5335C43.5303 35.4499 42.3703 38.2459 40.3081 40.3081C38.2459 42.3703 35.4499 43.5303 32.5335 43.5336Z" fill="white"/>
<path d="M3.93311 3.93359H5.39978V5.40027H3.93311V3.93359Z" fill="white"/>
<path d="M6.86621 3.93359H8.33289V5.40027H6.86621V3.93359Z" fill="white"/>
<path d="M9.79932 3.93359H11.266V5.40027H9.79932V3.93359Z" fill="white"/>
<path d="M33.2661 3.93359H34.7328V5.40027H33.2661V3.93359Z" fill="white"/>
<path d="M33.0164 24.6486C32.8827 24.5314 32.7109 24.4668 32.5331 24.4668C32.3553 24.4668 32.1836 24.5314 32.0499 24.6486L26.1832 29.7819C26.1046 29.8507 26.0417 29.9355 25.9986 30.0306C25.9554 30.1257 25.9331 30.229 25.9331 30.3334V34.0001C25.9332 34.1394 25.9729 34.2759 26.0477 34.3934C26.1225 34.511 26.2292 34.6048 26.3554 34.6639C26.4816 34.723 26.6221 34.7449 26.7602 34.7271C26.8984 34.7093 27.0287 34.6525 27.1358 34.5633L30.3331 31.8991V39.8668C30.3331 40.0613 30.4104 40.2478 30.5479 40.3853C30.6854 40.5228 30.872 40.6001 31.0665 40.6001H33.9998C34.1943 40.6001 34.3808 40.5228 34.5184 40.3853C34.6559 40.2478 34.7332 40.0613 34.7332 39.8668V31.8991L37.9305 34.5633C38.0376 34.6525 38.1678 34.7093 38.306 34.7271C38.4442 34.7449 38.5846 34.723 38.7108 34.6639C38.837 34.6048 38.9438 34.511 39.0186 34.3934C39.0934 34.2759 39.1331 34.1394 39.1332 34.0001V30.3334C39.1332 30.229 39.1108 30.1257 39.0677 30.0306C39.0246 29.9355 38.9616 29.8507 38.8831 29.7819L33.0164 24.6486ZM37.6665 32.4344L34.4691 29.7702C34.3621 29.681 34.2318 29.6242 34.0936 29.6064C33.9554 29.5885 33.815 29.6104 33.6888 29.6695C33.5626 29.7286 33.4559 29.8225 33.3811 29.94C33.3063 30.0576 33.2665 30.194 33.2665 30.3334V39.1334H31.7998V30.3334C31.7998 30.194 31.76 30.0576 31.6852 29.94C31.6104 29.8225 31.5037 29.7286 31.3775 29.6695C31.2513 29.6104 31.1109 29.5885 30.9727 29.6064C30.8345 29.6242 30.7042 29.681 30.5971 29.7702L27.3998 32.4344V30.6663L32.5331 26.1746L37.6665 30.6663V32.4344Z" fill="#D8004E"/>
</svg>
