<svg width="98" height="24" viewBox="0 0 98 24" fill="none" xmlns="http://www.w3.org/2000/svg">
<path d="M49.0349 12.9444C48.3321 12.9476 47.6459 13.156 47.0631 13.5433C46.4803 13.9305 46.027 14.4793 45.7603 15.1202C45.4936 15.7612 45.4255 16.4656 45.5647 17.1447C45.7038 17.8238 46.0439 18.447 46.5421 18.9357C47.0403 19.4244 47.6742 19.7567 48.3638 19.8906C49.0534 20.0246 49.7678 19.9542 50.4169 19.6884C51.0659 19.4225 51.6205 18.9731 52.0107 18.3969C52.4008 17.8206 52.6091 17.1434 52.6091 16.4506C52.6159 15.9869 52.528 15.5266 52.3506 15.0971C52.1732 14.6675 51.9099 14.2776 51.5764 13.9505C51.2429 13.6233 50.846 13.3656 50.4094 13.1928C49.9728 13.0199 49.5054 12.9355 49.0349 12.9444ZM49.0349 18.5791C48.6027 18.6089 48.1713 18.5098 47.7969 18.2948C47.4225 18.0798 47.1224 17.7587 46.9357 17.3733C46.7489 16.988 46.684 16.5561 46.7495 16.1339C46.8151 15.7118 47.0079 15.3188 47.3031 15.0061C47.5982 14.6934 47.982 14.4754 48.4044 14.3805C48.8269 14.2856 49.2686 14.3182 49.6721 14.474C50.0755 14.6298 50.4221 14.9016 50.6667 15.2541C50.9114 15.6066 51.0428 16.0235 51.0438 16.4506C51.0573 16.7212 51.0157 16.9918 50.9214 17.2463C50.8271 17.5008 50.6821 17.7341 50.4948 17.9325C50.3076 18.1308 50.082 18.2903 49.8312 18.4013C49.5805 18.5124 49.3097 18.5728 49.0349 18.5791ZM41.2421 12.9444C40.5389 12.946 39.8519 13.153 39.268 13.5393C38.6841 13.9255 38.2294 14.4737 37.9615 15.1145C37.6935 15.7554 37.6242 16.4601 37.7625 17.1397C37.9007 17.8193 38.2401 18.4433 38.738 18.9328C39.2358 19.4223 39.8697 19.7555 40.5595 19.8901C41.2494 20.0247 41.9642 19.9548 42.6138 19.6892C43.2633 19.4235 43.8184 18.9741 44.2089 18.3977C44.5995 17.8213 44.8079 17.1437 44.8079 16.4506C44.8147 15.9869 44.7268 15.5266 44.5494 15.0971C44.372 14.6675 44.1087 14.2776 43.7752 13.9505C43.4417 13.6233 43.0448 13.3656 42.6082 13.1928C42.1716 13.0199 41.7042 12.9355 41.2337 12.9444H41.2421ZM41.2421 18.5791C40.8096 18.6106 40.3776 18.513 40.0022 18.2991C39.6267 18.0851 39.3254 17.7648 39.1373 17.3796C38.9492 16.9945 38.8831 16.5625 38.9475 16.1399C39.012 15.7172 39.2041 15.3235 39.4988 15.0099C39.7935 14.6964 40.1772 14.4775 40.5998 14.3819C41.0225 14.2862 41.4646 14.3182 41.8685 14.4737C42.2725 14.6291 42.6196 14.9008 42.8647 15.2534C43.1098 15.606 43.2415 16.0232 43.2426 16.4506C43.2561 16.7212 43.2145 16.9918 43.1202 17.2463C43.0259 17.5008 42.8809 17.7341 42.6937 17.9325C42.5064 18.1308 42.2808 18.2903 42.0301 18.4013C41.7793 18.5124 41.5086 18.5728 41.2337 18.5791H41.2421ZM31.9594 14.0251V15.5101H35.5754C35.5187 16.2095 35.2237 16.8695 34.7383 17.3829C34.3766 17.7461 33.9417 18.0306 33.4616 18.2181C32.9816 18.4057 32.467 18.4921 31.951 18.4719C30.8854 18.4719 29.8635 18.0546 29.11 17.312C28.3565 16.5694 27.9332 15.5621 27.9332 14.5119C27.9332 13.4616 28.3565 12.4544 29.11 11.7117C29.8635 10.9691 30.8854 10.5519 31.951 10.5519C32.9703 10.5355 33.9547 10.9182 34.6881 11.6161L35.7512 10.5684C35.256 10.0742 34.6653 9.68304 34.014 9.41804C33.3627 9.15303 32.664 9.01959 31.9594 9.02561C31.2152 8.99707 30.4729 9.11688 29.7769 9.37786C29.0809 9.63884 28.4455 10.0356 27.9087 10.5444C27.372 11.0533 26.945 11.6636 26.6534 12.339C26.3617 13.0143 26.2114 13.7408 26.2114 14.4747C26.2114 15.2087 26.3617 15.9351 26.6534 16.6105C26.945 17.2858 27.372 17.8962 27.9087 18.405C28.4455 18.9138 29.0809 19.3106 29.7769 19.5716C30.4729 19.8326 31.2152 19.9524 31.9594 19.9239C32.6758 19.9558 33.3909 19.8361 34.0565 19.5728C34.7221 19.3095 35.3228 18.9088 35.8181 18.3976C36.6951 17.448 37.1633 16.1996 37.1239 14.9161C37.1266 14.6034 37.0986 14.2912 37.0402 13.9839L31.9594 14.0251ZM69.8855 15.1801C69.6672 14.5471 69.259 13.9944 68.7149 13.5952C68.1708 13.1959 67.5166 12.969 66.8387 12.9444C66.3808 12.9435 65.9277 13.0352 65.5072 13.2137C65.0867 13.3923 64.7078 13.654 64.394 13.9826C64.0802 14.3113 63.8381 14.6998 63.6827 15.1243C63.5273 15.5488 63.4619 16.0002 63.4906 16.4506C63.4804 16.9117 63.5646 17.3701 63.7382 17.7984C63.9118 18.2267 64.1712 18.6161 64.5009 18.9434C64.8306 19.2707 65.2239 19.5291 65.6572 19.7032C66.0905 19.8774 66.555 19.9636 67.0229 19.9569C67.6084 19.96 68.1855 19.8199 68.7026 19.5492C69.2197 19.2786 69.6607 18.8857 69.986 18.4059L68.7723 17.5809C68.5911 17.8785 68.3347 18.1247 68.028 18.2953C67.7214 18.466 67.375 18.5552 67.0229 18.5544C66.6603 18.568 66.3019 18.4738 65.9944 18.284C65.6869 18.0942 65.4444 17.8175 65.2986 17.4901L70.0613 15.5514L69.8855 15.1801ZM65.0307 16.3516C65.0137 16.0964 65.0486 15.8405 65.1333 15.5987C65.2179 15.357 65.3506 15.1344 65.5237 14.9438C65.6967 14.7533 65.9066 14.5987 66.1411 14.4891C66.3755 14.3795 66.6297 14.3171 66.8889 14.3056C67.1589 14.2881 67.4282 14.3491 67.6633 14.4811C67.8984 14.6131 68.089 14.8103 68.2114 15.0481L65.0307 16.3516ZM61.1636 19.7506H62.7289V9.43811H61.1636V19.7506ZM58.6023 13.7281H58.5437C58.3078 13.4682 58.0188 13.2603 57.6957 13.1181C57.3725 12.9759 57.0226 12.9027 56.6687 12.9031C55.754 12.9468 54.8914 13.3358 54.2597 13.9893C53.628 14.6428 53.2756 15.5109 53.2756 16.4135C53.2756 17.3161 53.628 18.1841 54.2597 18.8377C54.8914 19.4912 55.754 19.8801 56.6687 19.9239C57.0234 19.9297 57.3751 19.8589 57.699 19.7164C58.023 19.5738 58.3113 19.3631 58.5437 19.0989H58.5939V19.6021C58.5939 20.9469 57.8657 21.6646 56.6938 21.6646C56.3035 21.6556 55.9248 21.5323 55.6058 21.3105C55.2868 21.0886 55.042 20.7783 54.9026 20.4189L53.5382 20.9799C53.795 21.5956 54.2326 22.1217 54.7949 22.4906C55.3571 22.8596 56.0184 23.0546 56.6938 23.0506C58.5269 23.0506 60.042 21.9864 60.042 19.3959V13.1506H58.6023V13.7281ZM56.811 18.5791C56.2711 18.5322 55.7685 18.2877 55.4025 17.8937C55.0364 17.4997 54.8334 16.9848 54.8334 16.4506C54.8334 15.9164 55.0364 15.4015 55.4025 15.0075C55.7685 14.6136 56.2711 14.369 56.811 14.3221C57.0787 14.3356 57.341 14.4019 57.5823 14.5168C57.8236 14.6318 58.0392 14.7932 58.2163 14.9916C58.3933 15.1899 58.5283 15.4212 58.6133 15.6718C58.6983 15.9224 58.7315 16.1872 58.7111 16.4506C58.7339 16.7152 58.7021 16.9816 58.6175 17.2337C58.5329 17.4858 58.3973 17.7183 58.2189 17.9173C58.0405 18.1162 57.823 18.2775 57.5796 18.3912C57.3361 18.505 57.0718 18.5689 56.8026 18.5791H56.811ZM77.218 9.43811H73.4764V19.7506H75.0417V15.8401H77.2263C77.6724 15.8717 78.1204 15.8124 78.5422 15.6658C78.964 15.5193 79.3506 15.2886 79.678 14.9883C80.0054 14.688 80.2665 14.3244 80.4451 13.9202C80.6236 13.516 80.7157 13.0799 80.7157 12.6391C80.7157 12.1983 80.6236 11.7622 80.4451 11.358C80.2665 10.9538 80.0054 10.5903 79.678 10.2899C79.3506 9.9896 78.964 9.75896 78.5422 9.61241C78.1204 9.46586 77.6724 9.40652 77.2263 9.43811H77.218ZM77.218 14.3881H75.0333V10.8736H77.2514C77.7276 10.8736 78.1843 11.0601 78.521 11.3919C78.8577 11.7238 79.0469 12.1739 79.0469 12.6432C79.0469 13.1126 78.8577 13.5627 78.521 13.8945C78.1843 14.2264 77.7276 14.4129 77.2514 14.4129L77.218 14.3881ZM86.869 12.9031C86.2992 12.8695 85.7318 13.0008 85.2366 13.2807C84.7414 13.5607 84.34 13.9771 84.0817 14.4789L85.4711 15.0481C85.6081 14.7992 85.8156 14.595 86.0682 14.4603C86.3209 14.3255 86.6078 14.266 86.8941 14.2891C87.0928 14.2662 87.2941 14.2826 87.4864 14.3372C87.6786 14.3919 87.8578 14.4837 88.0137 14.6073C88.1695 14.731 88.2988 14.884 88.394 15.0574C88.4892 15.2308 88.5484 15.4212 88.5682 15.6174V15.7246C88.0655 15.4623 87.5048 15.3262 86.936 15.3286C85.4377 15.3286 83.9226 16.1536 83.9226 17.6469C83.9374 17.9653 84.0168 18.2775 84.1562 18.5651C84.2955 18.8528 84.4919 19.1099 84.7338 19.3214C84.9757 19.533 85.2582 19.6945 85.5646 19.7966C85.8709 19.8986 86.1949 19.9391 86.5174 19.9156C86.9116 19.9435 87.3061 19.8663 87.6596 19.6921C88.0131 19.5179 88.3125 19.2532 88.5263 18.9256H88.5765V19.7506H90.0832V15.7824C90.0832 13.9756 88.6937 12.9279 86.9108 12.9279L86.869 12.9031ZM86.6765 18.5544C86.1659 18.5544 85.4544 18.2986 85.4544 17.6799C85.4544 16.8549 86.3417 16.5826 87.1285 16.5826C87.6257 16.5705 88.1171 16.6902 88.5514 16.9291C88.4991 17.3758 88.2848 17.7887 87.9479 18.0919C87.6111 18.3951 87.1744 18.5682 86.7183 18.5791L86.6765 18.5544ZM95.5742 13.1506L93.7829 17.6221H93.7327L91.8745 13.1506H90.2004L92.9877 19.4041L91.3974 22.8774H93.0296L97.3152 13.1506H95.5742ZM81.5036 19.7506H83.0689V9.43811H81.5036V19.7506Z" fill="white"/>
<path d="M27.2472 6.77343H26.6278V5.12343H27.1551C27.3956 4.87229 27.5771 4.5722 27.6871 4.24433C27.797 3.91647 27.8325 3.56882 27.7913 3.22593V0.775677H31.1394V5.11518H31.7002V6.76518H31.0808V5.72568H27.2472V6.77343ZM28.4107 3.25068C28.4497 3.91615 28.2834 4.57769 27.9335 5.14818H30.4447V1.38618H28.4107V3.25068ZM36.7057 5.08218C36.2164 5.56179 35.5543 5.831 34.8642 5.831C34.1741 5.831 33.5121 5.56179 33.0227 5.08218C32.5471 4.58596 32.2821 3.92919 32.2821 3.24655C32.2821 2.56392 32.5471 1.90715 33.0227 1.41093C33.2639 1.17147 33.5508 0.981412 33.8669 0.851718C34.1829 0.722024 34.5219 0.655254 34.8642 0.655254C35.2066 0.655254 35.5455 0.722024 35.8616 0.851718C36.1776 0.981412 36.4645 1.17147 36.7057 1.41093C37.1832 1.9062 37.4495 2.56332 37.4495 3.24655C37.4495 3.92978 37.1832 4.5869 36.7057 5.08218ZM33.4998 4.66968C33.8622 5.02535 34.3528 5.22504 34.8642 5.22504C35.3756 5.22504 35.8662 5.02535 36.2286 4.66968C36.5862 4.28112 36.7843 3.77529 36.7843 3.25068C36.7843 2.72607 36.5862 2.22024 36.2286 1.83168C35.8662 1.476 35.3756 1.27631 34.8642 1.27631C34.3528 1.27631 33.8622 1.476 33.4998 1.83168C33.1422 2.22024 32.9441 2.72607 32.9441 3.25068C32.9441 3.77529 33.1422 4.28112 33.4998 4.66968ZM40.6984 5.83293C40.3528 5.8397 40.0094 5.77747 39.6889 5.64999C39.3684 5.52251 39.0774 5.33242 38.8334 5.09116C38.5894 4.8499 38.3975 4.56246 38.2692 4.24616C38.1409 3.92986 38.0788 3.59123 38.0868 3.25068C38.0788 2.91012 38.1409 2.57149 38.2692 2.25519C38.3975 1.93889 38.5894 1.65146 38.8334 1.4102C39.0774 1.16894 39.3684 0.978843 39.6889 0.851364C40.0094 0.723885 40.3528 0.661658 40.6984 0.668428C41.0486 0.65988 41.3962 0.729672 41.7152 0.872561C42.0341 1.01545 42.3161 1.22772 42.5398 1.49343L42.0878 1.92243C41.9225 1.71556 41.7094 1.55069 41.4662 1.44161C41.223 1.33253 40.9568 1.28241 40.69 1.29543C40.4331 1.28884 40.1774 1.33371 39.9386 1.4273C39.6998 1.52089 39.4827 1.66126 39.3005 1.83993C38.9376 2.23081 38.7363 2.74145 38.7363 3.2713C38.7363 3.80115 38.9376 4.31179 39.3005 4.70268C39.4827 4.88134 39.6998 5.02171 39.9386 5.1153C40.1774 5.2089 40.4331 5.25376 40.69 5.24718C40.9846 5.24458 41.2749 5.17734 41.5399 5.05034C41.8049 4.92333 42.0378 4.73975 42.2218 4.51293L42.6738 4.95843C42.446 5.23078 42.1602 5.45046 41.8367 5.60193C41.4794 5.76142 41.0905 5.84034 40.6984 5.83293ZM45.3021 5.72568H44.6575V1.38618H43.2513V0.775677H46.6999V1.38618H45.3021V5.72568ZM51.1362 0.775677L49.2361 4.95018C49.1601 5.19712 49.0081 5.41468 48.8012 5.57281C48.5943 5.73094 48.3426 5.82183 48.081 5.83293C47.908 5.83076 47.7372 5.79429 47.5788 5.72568L47.7462 5.13993C47.8479 5.19831 47.9633 5.22959 48.081 5.23068C48.2041 5.23981 48.3269 5.21098 48.4326 5.14818C48.5334 5.06404 48.6111 4.95622 48.6586 4.83468L48.8427 4.43868L47.1687 0.783927H47.9304L49.1692 3.62193L50.3745 0.775677H51.1362ZM51.8644 5.72568V0.775677H55.4972V5.72568H54.8526V1.38618H52.5089V5.72568H51.8644ZM56.6439 5.72568V0.775677H57.2884V2.89593H59.7995V0.775677H60.444V5.72568H59.7995V3.48993H57.2884V5.72568H56.6439ZM65.709 5.08218C65.2197 5.56179 64.5576 5.831 63.8675 5.831C63.1774 5.831 62.5154 5.56179 62.0261 5.08218C61.5504 4.58596 61.2854 3.92919 61.2854 3.24655C61.2854 2.56392 61.5504 1.90715 62.0261 1.41093C62.2672 1.17147 62.5541 0.981412 62.8702 0.851718C63.1862 0.722024 63.5252 0.655254 63.8675 0.655254C64.2099 0.655254 64.5488 0.722024 64.8649 0.851718C65.1809 0.981412 65.4678 1.17147 65.709 1.41093C66.1865 1.9062 66.4528 2.56332 66.4528 3.24655C66.4528 3.92978 66.1865 4.5869 65.709 5.08218ZM62.5032 4.66968C62.8655 5.02535 63.3561 5.22504 63.8675 5.22504C64.3789 5.22504 64.8695 5.02535 65.2319 4.66968C65.5895 4.28112 65.7876 3.77529 65.7876 3.25068C65.7876 2.72607 65.5895 2.22024 65.2319 1.83168C64.8695 1.476 64.3789 1.27631 63.8675 1.27631C63.3561 1.27631 62.8655 1.476 62.5032 1.83168C62.1456 2.22024 61.9475 2.72607 61.9475 3.25068C61.9475 3.77529 62.1456 4.28112 62.5032 4.66968ZM69.0823 5.72568V0.775677H70.8986C71.2758 0.768657 71.6413 0.904486 71.9198 1.15518C72.0597 1.27481 72.1712 1.42328 72.2464 1.59008C72.3216 1.75688 72.3587 1.93793 72.3551 2.12043C72.359 2.34034 72.2948 2.5562 72.1709 2.73918C72.048 2.91691 71.8769 3.05699 71.6771 3.14343C71.9199 3.22265 72.1328 3.37214 72.2881 3.57243C72.4491 3.77455 72.5348 4.02501 72.5309 4.28193C72.5351 4.47211 72.4968 4.6609 72.4187 4.83485C72.3406 5.00881 72.2246 5.16367 72.0789 5.28843C71.7874 5.55341 71.4039 5.69809 71.0075 5.69268L69.0823 5.72568ZM69.7268 2.89593H70.8986C71.0081 2.90043 71.1172 2.88136 71.2184 2.84004C71.3196 2.79872 71.4104 2.73614 71.4846 2.65668C71.5587 2.59044 71.6185 2.51018 71.6604 2.42067C71.7024 2.33116 71.7256 2.23423 71.7288 2.13568C71.7319 2.03713 71.7148 1.93897 71.6786 1.84705C71.6424 1.75513 71.5878 1.67134 71.5181 1.60068C71.4481 1.52269 71.3616 1.46083 71.2647 1.41949C71.1678 1.37814 71.0628 1.35832 70.9572 1.36143H69.7603L69.7268 2.89593ZM69.7268 5.11518H71.0242C71.1376 5.11892 71.2504 5.09794 71.3545 5.05373C71.4587 5.00952 71.5517 4.94317 71.6269 4.85943C71.7744 4.70855 71.8582 4.50798 71.8612 4.29843C71.8612 4.07962 71.773 3.86978 71.6161 3.71506C71.4591 3.56035 71.2462 3.47343 71.0242 3.47343H69.7519L69.7268 5.11518Z" fill="white"/>
<path fill-rule="evenodd" clip-rule="evenodd" d="M34.8642 0.737754C34.5329 0.737754 34.2049 0.80237 33.899 0.92788C33.5935 1.05326 33.3161 1.23693 33.0829 1.46832C32.6224 1.94914 32.3658 2.58532 32.3658 3.24655C32.3658 3.90769 32.6223 4.54379 33.0827 5.02458C33.5562 5.48825 34.1967 5.7485 34.8642 5.7485C35.5318 5.7485 36.1723 5.48823 36.6458 5.02451C37.108 4.54467 37.3658 3.90824 37.3658 3.24655C37.3658 2.58478 37.108 1.94827 36.6456 1.46841C36.4124 1.23697 36.135 1.05327 35.8294 0.92788C35.5235 0.80237 35.1955 0.737754 34.8642 0.737754ZM33.8347 0.775555C34.1609 0.641678 34.5108 0.572754 34.8642 0.572754C35.2176 0.572754 35.5675 0.641678 35.8937 0.775555C36.22 0.909433 36.5161 1.10562 36.7651 1.3528L36.7664 1.35408C37.2587 1.86469 37.5332 2.54217 37.5332 3.24655C37.5332 3.95093 37.2587 4.6284 36.7664 5.13901L36.7647 5.1407C36.2597 5.63568 35.5764 5.9135 34.8642 5.9135C34.152 5.9135 33.4687 5.63566 32.9637 5.14067L32.9619 5.13886C32.4715 4.62733 32.1984 3.95026 32.1984 3.24655C32.1984 2.54285 32.4716 1.86581 32.9619 1.35427L32.9633 1.35279C33.2123 1.1056 33.5084 0.909433 33.8347 0.775555ZM63.8675 0.737754C63.5362 0.737754 63.2082 0.80237 62.9024 0.92788C62.5968 1.05325 62.3195 1.23691 62.0862 1.46828C61.6257 1.94911 61.3691 2.58531 61.3691 3.24655C61.3691 3.90769 61.6256 4.5438 62.086 5.02459C62.5596 5.48826 63.2 5.7485 63.8675 5.7485C64.5351 5.7485 65.1756 5.48821 65.6492 5.02446C66.1114 4.54462 66.3691 3.90822 66.3691 3.24655C66.3691 2.58479 66.1113 1.94829 65.649 1.46843C65.4157 1.23699 65.1383 1.05328 64.8327 0.92788C64.5269 0.80237 64.1988 0.737754 63.8675 0.737754ZM62.838 0.775555C63.1642 0.641678 63.5141 0.572754 63.8675 0.572754C64.2209 0.572754 64.5708 0.641678 64.8971 0.775555C65.2233 0.909433 65.5194 1.10562 65.7684 1.3528L65.7697 1.35408C66.262 1.8647 66.5365 2.54217 66.5365 3.24655C66.5365 3.95093 66.262 4.6284 65.7697 5.13901L65.7681 5.1407C65.263 5.63568 64.5798 5.9135 63.8675 5.9135C63.1553 5.9135 62.4721 5.63566 61.967 5.14067L61.9652 5.13886C61.4749 4.62733 61.2017 3.95026 61.2017 3.24655C61.2017 2.54285 61.4749 1.86581 61.9652 1.35427L61.9666 1.35279C62.2156 1.1056 62.5118 0.909433 62.838 0.775555ZM41.6806 0.947666C41.3731 0.809935 41.038 0.742663 40.7004 0.750902L40.6967 0.750994C40.3624 0.744445 40.0303 0.804556 39.7203 0.927869C39.4102 1.05118 39.1287 1.23506 38.8927 1.46844C38.6567 1.70181 38.471 1.97986 38.3469 2.28582C38.2228 2.59179 38.1628 2.91935 38.1705 3.24877L38.1706 3.25258C38.1629 3.58201 38.2228 3.90957 38.3469 4.21553C38.471 4.5215 38.6567 4.79954 38.8927 5.03291C39.1287 5.26629 39.4102 5.45017 39.7203 5.57348C40.0303 5.6968 40.3624 5.75699 40.6967 5.75044L40.6984 5.83293L40.7 5.75044C41.0794 5.75761 41.4557 5.68131 41.8015 5.52709C42.0907 5.39154 42.3487 5.19951 42.5599 4.96292L42.2272 4.63498C42.0458 4.83905 41.8246 5.00559 41.5765 5.12453C41.3006 5.25679 40.9983 5.32686 40.6914 5.32967C40.4234 5.33644 40.1568 5.28959 39.9077 5.19197C39.6583 5.09425 39.4317 4.9477 39.2415 4.76116L39.2387 4.75843C38.8617 4.35234 38.6526 3.82176 38.6526 3.2713C38.6526 2.72084 38.8617 2.19032 39.2388 1.78423L39.2414 1.78138C39.4316 1.59484 39.6583 1.44835 39.9077 1.35063C40.1561 1.2533 40.4218 1.20645 40.689 1.21288C40.9681 1.19975 41.2465 1.25242 41.5008 1.36652C41.7282 1.46848 41.9305 1.61686 42.0946 1.80145L42.4248 1.48808C42.2178 1.259 41.9644 1.07483 41.6806 0.947666ZM40.6984 5.91544C40.3421 5.9222 39.9881 5.85794 39.6576 5.72649C39.3266 5.59485 39.0261 5.39854 38.7741 5.1494C38.5222 4.90026 38.324 4.60343 38.1915 4.27679C38.0592 3.95074 37.9951 3.60172 38.0031 3.25068C37.9951 2.89963 38.0592 2.55061 38.1915 2.22456C38.324 1.89793 38.5222 1.6011 38.7741 1.35195C39.0261 1.10281 39.3266 0.906504 39.6576 0.774858C39.988 0.643443 40.3419 0.579177 40.6982 0.585908C41.0604 0.577345 41.4199 0.649662 41.7498 0.797456C42.0803 0.945504 42.3724 1.16544 42.6042 1.44074L42.6539 1.4997L42.0793 2.04507L42.0221 1.97348C41.865 1.77695 41.6625 1.62033 41.4315 1.5167C41.2005 1.41308 40.9476 1.36546 40.6941 1.37783L40.6878 1.37813C40.4422 1.37184 40.1979 1.41449 39.9695 1.50396C39.7418 1.59319 39.5348 1.7269 39.3609 1.89705C39.013 2.27254 38.82 2.76272 38.82 3.2713C38.82 3.77989 39.013 4.27007 39.3609 4.64555C39.5348 4.8157 39.7418 4.94941 39.9695 5.03864C40.1979 5.12811 40.4422 5.171 40.6878 5.1647L40.6892 5.16468C40.9714 5.1622 41.2495 5.09779 41.5033 4.97614C41.7571 4.8545 41.9802 4.67866 42.1564 4.46141L42.2148 4.38939L42.7867 4.95308L42.7383 5.01091C42.5027 5.29258 42.2072 5.51979 41.8726 5.67644L41.8713 5.67709C41.5031 5.84143 41.1025 5.92284 40.6984 5.91544ZM71.8634 1.2161C71.6007 0.979653 71.2559 0.851541 70.9002 0.858162L70.8986 0.858177H69.166V5.64173L71.006 5.61019L71.0086 5.61018C71.3837 5.61531 71.7464 5.47844 72.0221 5.22778L72.0239 5.22612C72.1604 5.1093 72.269 4.96434 72.3422 4.80146C72.4153 4.63858 72.4512 4.46183 72.4472 4.28375L72.4472 4.28069C72.4508 4.04267 72.3714 3.81063 72.2223 3.62336L72.2216 3.62252C72.0765 3.43542 71.8776 3.29575 71.6508 3.22175L71.4438 3.15423L71.6434 3.06788C71.8288 2.98773 71.9875 2.85787 72.1015 2.69311C72.2157 2.52416 72.275 2.32489 72.2714 2.12188V2.11881C72.2748 1.9484 72.2401 1.77934 72.1699 1.62359C72.0997 1.46784 71.9956 1.3292 71.865 1.21748L71.8634 1.2161ZM71.9755 1.09358C71.6814 0.829255 71.2958 0.685971 70.8979 0.693177H68.9986V5.80962L71.0063 5.77517L71.0076 5.77518C71.4246 5.78055 71.8279 5.62838 72.1347 5.3499C72.2892 5.21733 72.4123 5.0529 72.4953 4.86824C72.5782 4.68368 72.6189 4.48343 72.6146 4.28165L72.6146 4.28316L72.5309 4.28193L72.6145 4.2801L72.6146 4.28165C72.6184 4.00654 72.5266 3.73841 72.3543 3.52189C72.2263 3.35694 72.0616 3.22435 71.8739 3.1337C72.0184 3.04406 72.1432 2.92576 72.2401 2.78564L72.2406 2.78496C72.3736 2.58843 72.4427 2.35666 72.4388 2.12049L72.4388 2.12204L72.3551 2.12043L72.4388 2.11897L72.4388 2.12049C72.4424 1.92643 72.4029 1.73395 72.3229 1.55658C72.2428 1.37906 72.1243 1.22102 71.9755 1.09358ZM27.7075 0.693177H31.2231V5.03268H31.7839V6.84768H30.9971V5.80818H27.3309V6.85593H26.5441V5.04093H27.1186C27.3386 4.80394 27.5053 4.52367 27.6076 4.21845C27.7137 3.90205 27.748 3.56656 27.7081 3.23565L27.7075 3.2308V0.693177ZM27.875 0.858177V3.22109C27.9168 3.57439 27.8798 3.93245 27.7665 4.27022C27.6528 4.60955 27.4648 4.92013 27.216 5.18005L27.1912 5.20593H26.7115V6.69093H27.1635V5.64318H31.1645V6.68268H31.6165V5.19768H31.0557V0.858177H27.875ZM43.1676 0.693177H46.7836V1.46868H45.3858V5.80818H44.5738V1.46868H43.1676V0.693177ZM43.335 0.858177V1.30368H44.7412V5.64318H45.2184V1.30368H46.6162V0.858177H43.335ZM50.3187 0.693177H51.2655L49.3146 4.97924C49.233 5.24043 49.0717 5.4705 48.8525 5.63801C48.6318 5.80661 48.3635 5.90352 48.0846 5.91535L48.08 5.91555C47.8957 5.91324 47.7138 5.87427 47.5451 5.80121L47.4785 5.77235L47.6949 5.01503L47.7883 5.06863C47.8775 5.11981 47.9786 5.14722 48.0818 5.14818L48.0873 5.14823C48.1908 5.15591 48.2942 5.1325 48.3836 5.08087C48.4713 5.00633 48.5389 4.9116 48.5805 4.80506L48.5823 4.80023L48.7508 4.43842L47.039 0.701427H47.9855L49.168 3.4105L50.3187 0.693177ZM50.4303 0.858177L49.1703 3.83335L47.8752 0.866427H47.2983L48.9347 4.43893L48.7357 4.86677C48.6832 5.00023 48.5975 5.11863 48.4867 5.21114L48.4815 5.21541L48.4758 5.21882C48.3561 5.29 48.2169 5.32293 48.0775 5.31314C47.9818 5.31192 47.8876 5.29294 47.7996 5.25754L47.6797 5.67691C47.8077 5.72352 47.943 5.74843 48.0798 5.7504C48.3232 5.7396 48.5573 5.6548 48.7499 5.50762C48.9431 5.35996 49.085 5.1568 49.156 4.92621L49.1576 4.92119L51.0069 0.858177H50.4303ZM51.7807 0.693177H55.5809V5.80818H54.7689V1.46868H52.5926V5.80818H51.7807V0.693177ZM51.9481 0.858177V5.64318H52.4252V1.30368H54.9363V5.64318H55.4135V0.858177H51.9481ZM56.5602 0.693177H57.3721V2.81343H59.7158V0.693177H60.5278V5.80818H59.7158V3.57243H57.3721V5.80818H56.5602V0.693177ZM56.7276 0.858177V5.64318H57.2047V3.40743H59.8832V5.64318H60.3604V0.858177H59.8832V2.97843H57.2047V0.858177H56.7276ZM33.4408 1.77322C33.8188 1.40215 34.3307 1.19381 34.8642 1.19381C35.3978 1.19381 35.9096 1.40215 36.2876 1.77322L36.2907 1.77618C36.6622 2.17991 36.868 2.70558 36.868 3.25068C36.868 3.79578 36.6622 4.32137 36.2906 4.72511L36.2877 4.72821C35.9097 5.09928 35.3978 5.30754 34.8642 5.30754C34.3307 5.30754 33.8188 5.09921 33.4408 4.72813L33.4998 4.66968L33.4378 4.72511C33.0663 4.32137 32.8604 3.79578 32.8604 3.25068C32.8604 2.70557 33.0663 2.17998 33.4378 1.77625L33.4408 1.77322ZM33.5604 4.61269C33.907 4.95205 34.3756 5.14254 34.8642 5.14254C35.3528 5.14254 35.8215 4.95205 36.168 4.61269C36.5108 4.23952 36.7006 3.75409 36.7006 3.25068C36.7006 2.74726 36.5108 2.26184 36.168 1.88866C35.8215 1.5493 35.3528 1.35881 34.8642 1.35881C34.3756 1.35881 33.907 1.5493 33.5604 1.88866C33.2177 2.26184 33.0278 2.74726 33.0278 3.25068C33.0278 3.75409 33.2177 4.23952 33.5604 4.61269ZM62.4441 1.77322C62.8222 1.40215 63.334 1.19381 63.8675 1.19381C64.4011 1.19381 64.9129 1.40215 65.291 1.77322L65.294 1.77618C65.6656 2.17991 65.8713 2.70557 65.8713 3.25068C65.8713 3.79578 65.6655 4.32137 65.2939 4.72511L65.291 4.72821C64.913 5.09928 64.4011 5.30754 63.8675 5.30754C63.334 5.30754 62.8222 5.09921 62.4441 4.72813L62.5032 4.66968L62.4412 4.72511C62.0696 4.32137 61.8638 3.79578 61.8638 3.25068C61.8638 2.70557 62.0696 2.17998 62.4412 1.77625L62.4441 1.77322ZM62.5637 4.6127C62.9103 4.95205 63.379 5.14254 63.8675 5.14254C64.3561 5.14254 64.8248 4.95205 65.1713 4.6127C65.5141 4.23952 65.7039 3.7541 65.7039 3.25068C65.7039 2.74726 65.5141 2.26183 65.1713 1.88865C64.8248 1.5493 64.3561 1.35881 63.8675 1.35881C63.379 1.35881 62.9103 1.5493 62.5637 1.88865C62.221 2.26183 62.0312 2.74726 62.0312 3.25068C62.0312 3.7541 62.221 4.23952 62.5637 4.6127ZM70.956 1.27893C71.0734 1.27565 71.1901 1.29779 71.2979 1.34377C71.4055 1.38968 71.5016 1.45822 71.5795 1.5446C71.6564 1.6229 71.7166 1.71558 71.7567 1.8172C71.7969 1.91944 71.8159 2.02863 71.8124 2.13826C71.8089 2.24788 71.7831 2.35569 71.7364 2.45526C71.6903 2.5537 71.6247 2.64209 71.5436 2.71528C71.4617 2.80226 71.3617 2.87082 71.2504 2.91625C71.1385 2.96194 71.0179 2.98315 70.8969 2.97843H69.6413L69.6784 1.27893H70.956ZM71.2314 1.4952C71.1458 1.45866 71.053 1.44114 70.9597 1.44389L70.9572 1.44393H69.8422L69.8123 2.81343H70.9021C70.9994 2.81743 71.0964 2.80055 71.1864 2.76382C71.2763 2.72709 71.357 2.67147 71.423 2.60083L71.4255 2.59808L71.4283 2.59556C71.4941 2.53677 71.5472 2.46552 71.5845 2.38607C71.6217 2.30662 71.6423 2.22059 71.6451 2.1331C71.6479 2.04563 71.6327 1.95849 71.6006 1.8769C71.5685 1.79531 71.52 1.72094 71.4581 1.65821L71.4553 1.65538C71.3935 1.58647 71.3171 1.53174 71.2314 1.4952ZM28.327 1.30368H30.5284V5.23068H27.7852L27.8619 5.1055C28.203 4.54928 28.3652 3.90428 28.3271 3.25544L28.3268 3.25068L28.327 1.30368ZM28.4944 1.46868V3.24831C28.5311 3.88147 28.3864 4.51106 28.0783 5.06568H30.361V1.46868H28.4944ZM69.6695 3.39093H71.0242C71.2684 3.39093 71.5026 3.48654 71.6753 3.65673C71.8479 3.82691 71.9449 4.05774 71.9449 4.29843L71.9449 4.29959C71.9416 4.52953 71.8499 4.74964 71.6883 4.91546C71.6052 5.00766 71.5026 5.08073 71.3877 5.12951C71.2726 5.17834 71.148 5.20161 71.0228 5.19768H69.6418L69.6695 3.39093ZM69.8344 3.55593L69.8118 5.03268H71.027C71.128 5.03602 71.2286 5.01736 71.3215 4.97796C71.4143 4.93855 71.4972 4.87942 71.5642 4.80477L71.5665 4.80211C71.6992 4.66646 71.7747 4.48622 71.7775 4.29783C71.7774 4.10112 71.698 3.9125 71.5569 3.7734C71.4156 3.63415 71.224 3.55593 71.0242 3.55593H69.8344Z" fill="white"/>
<path d="M0.826475 21.9773L11.0807 11.4946L0.835066 1.03076C0.561408 1.19367 0.392059 1.57087 0.392059 2.06462V20.9535C0.39573 21.4472 0.558953 21.7968 0.826475 21.9773Z" fill="white"/>
<path d="M11.4476 11.2049L14.502 8.08199L2.06351 1.10943C1.85406 0.985019 1.61614 0.919306 1.37384 0.918945L11.4464 11.2036L11.4476 11.2049Z" fill="white"/>
<path d="M11.4476 11.7847L1.34317 22.1145C1.59678 22.1188 1.84659 22.0511 2.06474 21.919L14.5278 14.9276L11.4476 11.7847Z" fill="white"/>
<path d="M19.0079 10.6127L14.8687 8.28809L11.7309 11.4962L14.892 14.7243L19.0067 12.406C19.8817 11.9135 19.8817 11.1027 19.0079 10.6127Z" fill="white"/>
</svg>
