<svg width="35" height="35" viewBox="0 0 35 35" fill="none" xmlns="http://www.w3.org/2000/svg">
<g clip-path="url(#clip0)">
<path d="M13.8552 17.5C13.8552 15.4865 15.487 13.8539 17.5005 13.8539C19.5139 13.8539 21.1466 15.4865 21.1466 17.5C21.1466 19.5135 19.5139 21.1461 17.5005 21.1461C15.487 21.1461 13.8552 19.5135 13.8552 17.5ZM11.8842 17.5C11.8842 20.6019 14.3986 23.1163 17.5005 23.1163C20.6024 23.1163 23.1168 20.6019 23.1168 17.5C23.1168 14.3981 20.6024 11.8837 17.5005 11.8837C14.3986 11.8837 11.8842 14.3981 11.8842 17.5ZM22.0266 11.661C22.0265 11.9206 22.1034 12.1744 22.2475 12.3903C22.3916 12.6062 22.5966 12.7745 22.8363 12.874C23.0761 12.9734 23.34 12.9995 23.5946 12.9489C23.8493 12.8984 24.0832 12.7735 24.2668 12.59C24.4504 12.4065 24.5755 12.1727 24.6263 11.9181C24.677 11.6636 24.6511 11.3996 24.5519 11.1598C24.4526 10.9199 24.2845 10.7149 24.0687 10.5705C23.8529 10.4262 23.5992 10.3492 23.3396 10.3491H23.3391C22.9911 10.3492 22.6575 10.4875 22.4114 10.7335C22.1653 10.9795 22.0269 11.3131 22.0266 11.661ZM13.0817 26.4029C12.0154 26.3543 11.4358 26.1767 11.0506 26.0266C10.5399 25.8278 10.1756 25.591 9.79253 25.2085C9.40945 24.8259 9.17233 24.4619 8.9744 23.9513C8.82425 23.5663 8.64663 22.9865 8.59815 21.9201C8.54513 20.7672 8.53454 20.4209 8.53454 17.5001C8.53454 14.5792 8.546 14.2339 8.59815 13.08C8.64671 12.0137 8.82565 11.435 8.9744 11.0489C9.1732 10.5382 9.40998 10.1739 9.79253 9.79081C10.1751 9.40774 10.5391 9.17061 11.0506 8.97269C11.4356 8.82254 12.0154 8.64491 13.0817 8.59644C14.2346 8.54341 14.581 8.53282 17.5005 8.53282C20.42 8.53282 20.7667 8.54429 21.9205 8.59644C22.9869 8.645 23.5655 8.82394 23.9517 8.97269C24.4623 9.17061 24.8267 9.40826 25.2098 9.79081C25.5928 10.1734 25.8291 10.5382 26.0279 11.0489C26.178 11.4339 26.3557 12.0137 26.4041 13.08C26.4572 14.2339 26.4677 14.5792 26.4677 17.5001C26.4677 20.4209 26.4572 20.7663 26.4041 21.9201C26.3556 22.9865 26.1771 23.5661 26.0279 23.9513C25.8291 24.4619 25.5923 24.8263 25.2098 25.2085C24.8272 25.5907 24.4623 25.8278 23.9517 26.0266C23.5667 26.1768 22.9869 26.3544 21.9205 26.4029C20.7676 26.4559 20.4213 26.4665 17.5005 26.4665C14.5796 26.4665 14.2343 26.4559 13.0817 26.4029ZM12.9912 6.62874C11.8268 6.68176 11.0312 6.86639 10.3363 7.13676C9.61674 7.41597 9.00756 7.79056 8.39883 8.39834C7.79009 9.00611 7.41646 9.61625 7.13725 10.3358C6.86688 11.0311 6.68225 11.8263 6.62923 12.9907C6.57533 14.1569 6.56299 14.5297 6.56299 17.5C6.56299 20.4703 6.57533 20.8431 6.62923 22.0093C6.68225 23.1738 6.86688 23.9689 7.13725 24.6641C7.41646 25.3833 7.79018 25.9941 8.39883 26.6017C9.00748 27.2092 9.61674 27.5832 10.3363 27.8632C11.0325 28.1336 11.8268 28.3182 12.9912 28.3713C14.158 28.4243 14.5302 28.4375 17.5005 28.4375C20.4708 28.4375 20.8436 28.4252 22.0098 28.3713C23.1742 28.3182 23.9694 28.1336 24.6646 27.8632C25.3838 27.5832 25.9934 27.2094 26.6021 26.6017C27.2109 25.9939 27.5837 25.3833 27.8637 24.6641C28.1341 23.9689 28.3196 23.1737 28.3717 22.0093C28.4248 20.8422 28.4371 20.4703 28.4371 17.5C28.4371 14.5297 28.4248 14.1569 28.3717 12.9907C28.3187 11.8262 28.1341 11.0307 27.8637 10.3358C27.5837 9.61669 27.2099 9.00707 26.6021 8.39834C25.9944 7.7896 25.3838 7.41597 24.6655 7.13676C23.9694 6.86639 23.1742 6.68089 22.0107 6.62874C20.8445 6.57571 20.4716 6.5625 17.5014 6.5625C14.5311 6.5625 14.158 6.57484 12.9912 6.62874Z" fill="white"/>
</g>
<defs>
<clipPath id="clip0">
<rect width="35" height="35" fill="white"/>
</clipPath>
</defs>
</svg>
