<svg width="36" height="35" viewBox="0 0 36 35" fill="none" xmlns="http://www.w3.org/2000/svg">
<g clip-path="url(#clip0)">
<path fill-rule="evenodd" clip-rule="evenodd" d="M21.87 26.1659C23.0932 26.7011 23.5519 25.5798 23.5519 25.5798L26.7882 9.32166C26.7628 8.22589 25.2847 8.88845 25.2847 8.88845L7.16633 15.9982C7.16633 15.9982 6.29991 16.304 6.37636 16.8391C6.45281 17.3743 7.14085 17.6291 7.14085 17.6291L11.7023 19.1581C11.7023 19.1581 13.0784 23.6686 13.3587 24.535C13.6135 25.376 13.8429 25.4014 13.8429 25.4014C14.0977 25.5034 14.3271 25.325 14.3271 25.325L17.2831 22.6493L21.87 26.1659ZM22.6598 12.2013C22.6598 12.2013 23.2968 11.819 23.2714 12.2013C23.2714 12.2013 23.3733 12.2522 23.042 12.609C22.7362 12.9148 15.5245 19.3875 14.5562 20.2539C14.4797 20.3049 14.4287 20.3813 14.4287 20.4832L14.1484 22.8786C14.0975 23.1335 13.7662 23.159 13.6897 22.9296L12.492 19.0052C12.4411 18.8523 12.492 18.6739 12.6449 18.572L22.6598 12.2013Z" fill="white"/>
</g>
<defs>
<clipPath id="clip0">
<rect width="35" height="35" fill="white" transform="translate(0.478516)"/>
</clipPath>
</defs>
</svg>
