<svg width="35" height="35" viewBox="0 0 35 35" fill="none" xmlns="http://www.w3.org/2000/svg">
<g clip-path="url(#clip0)">
<path fill-rule="evenodd" clip-rule="evenodd" d="M25.7313 10.3108C26.6479 10.563 27.3706 11.3018 27.6174 12.2388C28.0757 13.9506 28.058 17.5183 28.058 17.5183C28.058 17.5183 28.058 21.068 27.6174 22.7798C27.3706 23.7168 26.6479 24.4556 25.7313 24.7078C24.0567 25.1583 17.3584 25.1583 17.3584 25.1583C17.3584 25.1583 10.6777 25.1583 8.98547 24.6898C8.06886 24.4376 7.34615 23.6988 7.09937 22.7618C6.65869 21.068 6.65869 17.5003 6.65869 17.5003C6.65869 17.5003 6.65869 13.9506 7.09937 12.2388C7.34615 11.3018 8.08649 10.545 8.98547 10.2928C10.6601 9.84229 17.3584 9.84229 17.3584 9.84229C17.3584 9.84229 24.0567 9.84229 25.7313 10.3108ZM20.7961 17.5003L15.2259 20.7797V14.2209L20.7961 17.5003Z" fill="white"/>
</g>
<defs>
<clipPath id="clip0">
<rect width="34.2391" height="35" fill="white" transform="translate(0.239258)"/>
</clipPath>
</defs>
</svg>
