<svg width="40" height="40" viewBox="0 0 40 40" fill="none" xmlns="http://www.w3.org/2000/svg">
<g opacity="0.44" clip-path="url(#clip0)">
<path d="M39.721 14.3698L35.2521 2.75072C34.4053 0.55425 31.9382 -0.539823 29.7417 0.306997C29.7098 0.319318 29.678 0.331972 29.6464 0.345042L7.31402 9.60245C5.18756 10.4747 4.14244 12.8818 4.95704 15.031L5.5711 16.6701H4.16251C1.86472 16.6726 0.00258075 18.5348 0 20.8326V35.8176C0.00258075 38.1154 1.86472 39.9775 4.16251 39.9801H32.4675C34.7653 39.9775 36.6275 38.1154 36.63 35.8176V20.8326C36.6287 20.6066 36.6087 20.3812 36.5701 20.1586L37.3433 19.8455C39.4888 18.9662 40.5432 16.5378 39.721 14.3698ZM4.16251 18.0021H32.4675C33.9624 18.0064 35.1955 19.1738 35.2814 20.6661H1.34865C1.43457 19.1737 2.66767 18.0063 4.16251 18.0021ZM10.8565 13.9901L15.308 11.7637L16.2231 14.0528L11.7716 16.2785L10.8565 13.9901ZM35.298 35.8177C35.2962 37.3802 34.0301 38.6463 32.4675 38.6482H4.16251C2.59998 38.6463 1.33383 37.3802 1.332 35.8177V27.3261H35.298V35.8177ZM35.298 25.9941H1.332V21.9981H35.298V25.9941ZM36.8438 18.6149L36.1479 18.8966C35.429 17.5293 34.0123 16.6723 32.4675 16.6701H13.9674L17.3673 14.9698C17.6773 14.8151 17.8169 14.4484 17.6883 14.1267L16.2757 10.5969C16.1391 10.2554 15.7516 10.0892 15.4101 10.2257C15.3929 10.2327 15.376 10.2402 15.3594 10.2486L9.71237 13.0737C9.4026 13.2287 9.26332 13.5953 9.39203 13.9169L10.4936 16.6701H6.99301L6.20446 14.5669C5.64544 13.0902 6.36347 11.4369 7.82418 10.8373L30.1559 1.57989C31.6488 0.960843 33.3609 1.66922 33.98 3.16214C33.9897 3.18537 33.999 3.20876 34.008 3.23224L38.4769 14.8513C39.0422 16.341 38.318 18.01 36.8438 18.6149Z" fill="white"/>
<path d="M23.9572 36.7752C25.1983 37.4962 26.7309 37.4962 27.972 36.7752C29.8802 37.8838 32.3259 37.2356 33.4346 35.3273C34.5432 33.4191 33.8949 30.9733 31.9867 29.8647C31.3742 29.5089 30.6782 29.3222 29.97 29.3239C29.2678 29.3242 28.5783 29.5108 27.972 29.8647C26.0637 28.7561 23.618 29.4042 22.5093 31.3125C21.4007 33.2208 22.049 35.6665 23.9572 36.7752ZM29.0855 30.8185C29.3688 30.7141 29.668 30.6592 29.97 30.656C31.4412 30.656 32.634 31.8487 32.634 33.32C32.634 34.7913 31.4412 35.984 29.97 35.984C29.668 35.9808 29.3688 35.9259 29.0855 35.8215C30.2647 34.3622 30.2647 32.2777 29.0855 30.8185ZM27.972 31.5764C28.86 32.5692 28.86 34.0707 27.972 35.0636C27.0839 34.0707 27.0839 32.5692 27.972 31.5764ZM25.9739 30.656C26.2759 30.6591 26.5751 30.7141 26.8584 30.8185C25.6792 32.2777 25.6792 34.3623 26.8584 35.8215C26.5751 35.9259 26.2759 35.9808 25.9739 35.984C24.5027 35.984 23.3099 34.7913 23.3099 33.32C23.3099 31.8486 24.5027 30.656 25.9739 30.656Z" fill="#D8004E"/>
<path d="M28.0935 13.7648L28.6345 14.9819L34.9882 12.1576L34.4472 10.9404L28.0935 13.7648Z" fill="#D8004E"/>
<path d="M33.0293 8.12099L23.8519 12.3569L24.4099 13.5658L33.5873 9.32985L33.0293 8.12099Z" fill="#D8004E"/>
</g>
<defs>
<clipPath id="clip0">
<rect width="40" height="40" fill="white"/>
</clipPath>
</defs>
</svg>
