<svg width="68" height="68" viewBox="0 0 68 68" fill="none" xmlns="http://www.w3.org/2000/svg">
<path d="M67.5256 24.3937L59.9286 4.64136C58.489 0.907361 54.2949 -0.952562 50.5609 0.487032C50.5067 0.507977 50.4526 0.529489 50.3988 0.551709L12.4338 16.2893C8.81886 17.7722 7.04215 21.8641 8.42698 25.5179L9.47087 28.3042H7.07626C3.17002 28.3086 0.00438728 31.4742 0 35.3805V60.855C0.00438728 64.7612 3.17002 67.9269 7.07626 67.9313H55.1948C59.1011 67.9269 62.2667 64.7612 62.2711 60.855V35.3805C62.2688 34.9964 62.2347 34.6131 62.1692 34.2347L63.4837 33.7026C67.1309 32.2076 68.9235 28.0793 67.5256 24.3937ZM7.07626 30.5688H55.1948C57.7361 30.576 59.8323 32.5606 59.9784 35.0976H2.29271C2.43876 32.5605 4.53503 30.5758 7.07626 30.5688ZM18.456 23.7484L26.0237 19.9634L27.5793 23.8548L20.0117 27.6386L18.456 23.7484ZM60.0067 60.8551C60.0036 63.5114 57.8511 65.6639 55.1948 65.667H7.07626C4.41997 65.6639 2.26752 63.5114 2.2644 60.8551V46.4196H60.0067V60.8551ZM60.0067 44.1552H2.2644V37.362H60.0067V44.1552ZM62.6345 31.6104L61.4514 32.0893C60.2293 29.7649 57.821 28.308 55.1948 28.3044H23.7445L29.5244 25.4139C30.0515 25.1508 30.2888 24.5275 30.0701 23.9805L27.6687 17.9798C27.4365 17.3993 26.7777 17.1168 26.1972 17.3489C26.1679 17.3607 26.1391 17.3735 26.111 17.3877L16.511 22.1905C15.9844 22.454 15.7477 23.0771 15.9664 23.6238L17.8391 28.3044H11.8881L10.5476 24.7289C9.59725 22.2185 10.8179 19.4078 13.3011 18.3885L51.265 2.65095C53.8029 1.59857 56.7135 2.80281 57.7661 5.34078C57.7825 5.38026 57.7983 5.42003 57.8136 5.45994L65.4107 25.2123C66.3718 27.7449 65.1406 30.5822 62.6345 31.6104Z" fill="white"/>
</svg>
