<svg width="64" height="64" viewBox="0 0 64 64" fill="none" xmlns="http://www.w3.org/2000/svg">
<path d="M61.1876 27.3114H60.2506V24.4984V14.4984C60.2506 11.2244 57.587 8.56081 54.3131 8.56081H28.5658L11.1955 3.59782C11.1905 3.59645 11.1854 3.5957 11.1804 3.59432C11.1752 3.59295 11.1704 3.59095 11.1652 3.5897C11.1547 3.58707 11.1444 3.58582 11.134 3.58357C11.1179 3.5802 11.1017 3.5767 11.0856 3.57407C11.071 3.5717 11.0566 3.5702 11.042 3.56845C11.025 3.56645 11.0081 3.5647 10.9912 3.5637C10.9775 3.56295 10.9639 3.56282 10.9501 3.56257C10.9326 3.56232 10.9152 3.5622 10.8979 3.56295C10.885 3.56345 10.8721 3.5647 10.8594 3.5657C10.8415 3.5672 10.8236 3.56882 10.806 3.57145C10.794 3.5732 10.7821 3.57545 10.7702 3.57757C10.752 3.58082 10.734 3.58432 10.7161 3.5887C10.705 3.59145 10.6941 3.59457 10.6831 3.5977C10.6649 3.60295 10.6469 3.60832 10.6289 3.61457C10.6187 3.6182 10.6087 3.62207 10.5986 3.62607C10.5805 3.63307 10.5625 3.64045 10.5449 3.64857C10.5355 3.65295 10.5264 3.6577 10.5171 3.66232C10.4995 3.6712 10.4821 3.6802 10.4651 3.69032C10.4562 3.69545 10.4477 3.70095 10.439 3.70645C10.4222 3.71695 10.4057 3.7277 10.3897 3.73932C10.3814 3.74532 10.3732 3.75182 10.365 3.7582C10.3496 3.77007 10.3344 3.7822 10.3197 3.79507C10.3115 3.80232 10.3036 3.80995 10.2956 3.81745C10.2819 3.83045 10.2682 3.84345 10.2552 3.8572C10.2471 3.86582 10.2395 3.87482 10.2316 3.88382C10.2197 3.89745 10.208 3.9112 10.1969 3.92557C10.1889 3.93595 10.1814 3.94657 10.1737 3.9572C10.1639 3.97107 10.1541 3.98507 10.1451 3.99945C10.1374 4.0117 10.1302 4.02445 10.1231 4.03707C10.1152 4.05095 10.1074 4.06495 10.1002 4.07932C10.0932 4.09332 10.087 4.1077 10.0806 4.12207C10.0744 4.1362 10.0682 4.15032 10.0627 4.16482C10.057 4.18007 10.052 4.1957 10.0469 4.21145C10.0436 4.22157 10.0396 4.23107 10.0366 4.24132C10.0351 4.24645 10.0345 4.25144 10.0331 4.25644C10.0317 4.26157 10.0297 4.26645 10.0285 4.27157L8.95648 8.56056H5.93811C2.67075 8.56056 0.01175 11.2134 0.000999998 14.4784C0.000874998 14.4852 0 14.4916 0 14.4982V46.9981C0 47.5156 0.421249 47.9356 0.937498 47.9356C1.455 47.9356 1.875 47.5156 1.875 46.9981V18.8223C2.93799 19.8218 4.36724 20.436 5.93811 20.436H54.3131C54.3143 20.436 54.3153 20.4359 54.3164 20.4359C56.5549 20.4377 58.3756 22.2594 58.3756 24.4985V31.0615H48.0617C48.061 31.0615 48.0605 31.0616 48.0599 31.0616C48.0328 31.0616 48.0058 31.0633 47.9789 31.0656C47.949 31.0683 47.9195 31.0725 47.8905 31.0779C47.8862 31.0786 47.8819 31.079 47.8775 31.0799C47.853 31.0848 47.829 31.0913 47.8052 31.098C47.7999 31.0995 47.7945 31.1005 47.7894 31.1021C47.7682 31.1086 47.7475 31.1164 47.7269 31.1243C47.719 31.1273 47.711 31.1298 47.7032 31.133C47.6859 31.1401 47.6693 31.1485 47.6527 31.1566C47.6417 31.1619 47.6305 31.1668 47.6198 31.1724C47.6068 31.1793 47.5945 31.1871 47.582 31.1946C47.5682 31.2029 47.554 31.2109 47.5405 31.2199C47.5314 31.2259 47.523 31.2328 47.5143 31.2391C47.4983 31.2506 47.4822 31.262 47.4669 31.2746C47.4603 31.2801 47.4542 31.2863 47.4478 31.2919C47.4314 31.3061 47.415 31.3203 47.3995 31.3358C47.3904 31.3449 47.3822 31.3549 47.3735 31.3644C47.3614 31.3775 47.3489 31.3904 47.3374 31.4044C47.318 31.428 47.2999 31.4525 47.2829 31.4779C47.2825 31.4783 47.2822 31.4788 47.2819 31.4793L42.2822 38.9794C42.2473 39.0316 42.2178 39.087 42.1944 39.1446C42.1855 39.1661 42.1784 39.188 42.1713 39.2098C42.1692 39.2164 42.1664 39.2228 42.1644 39.2294C42.1574 39.2525 42.152 39.2759 42.1469 39.2991C42.1455 39.3053 42.1438 39.3113 42.1425 39.3174C42.1384 39.3384 42.1357 39.3595 42.133 39.3806C42.1319 39.3896 42.1302 39.3986 42.1293 39.4078C42.1275 39.4251 42.1272 39.4424 42.1265 39.4598C42.1259 39.473 42.1248 39.4863 42.1248 39.4996C42.1248 39.5125 42.1259 39.5254 42.1264 39.5383C42.127 39.556 42.1275 39.5739 42.1293 39.5916C42.1302 39.6003 42.1318 39.6089 42.1329 39.6175C42.1357 39.639 42.1384 39.6605 42.1427 39.6819C42.1438 39.6878 42.1455 39.6935 42.1469 39.6994C42.152 39.7229 42.1575 39.7464 42.1645 39.7698C42.1665 39.7764 42.1693 39.7827 42.1714 39.7895C42.1785 39.8113 42.1857 39.8331 42.1945 39.8546C42.218 39.9121 42.2475 39.9676 42.2825 40.02L47.2822 47.519C47.2824 47.5194 47.2827 47.5196 47.2829 47.52C47.303 47.5499 47.325 47.5784 47.3483 47.6057C47.3559 47.6147 47.364 47.6231 47.3719 47.6316C47.3878 47.649 47.4043 47.6657 47.4214 47.6819C47.4315 47.6914 47.4415 47.7006 47.4518 47.7095C47.47 47.7251 47.4889 47.7397 47.5083 47.754C47.517 47.7604 47.5254 47.7674 47.5343 47.7734C47.5624 47.7925 47.5915 47.8101 47.6217 47.8261C47.6293 47.8301 47.6372 47.8335 47.6448 47.8372C47.6688 47.8492 47.6933 47.8604 47.7184 47.8702C47.7282 47.8741 47.7379 47.8776 47.7478 47.8811C47.7717 47.8896 47.7959 47.8971 47.8207 47.9037C47.8308 47.9064 47.8408 47.9091 47.851 47.9116C47.8764 47.9175 47.9022 47.922 47.9283 47.9257C47.9378 47.9271 47.9472 47.929 47.9567 47.9301C47.9889 47.9337 48.0217 47.9357 48.0549 47.936C48.0575 47.936 48.0602 47.9365 48.0629 47.9365C48.0634 47.9365 48.064 47.9364 48.0647 47.9364H58.376V54.4999C58.376 56.7401 56.5535 58.5626 54.3135 58.5626H5.93861C3.69862 58.5626 1.87612 56.7401 1.87612 54.4999C1.87612 54.495 1.8755 54.4902 1.87537 54.4854V50.7486C1.87537 50.2324 1.45537 49.8111 0.937873 49.8111C0.421624 49.8111 0.000374999 50.2324 0.000374999 50.7486V54.4999C0.000374999 54.5096 0.0015 54.5191 0.001875 54.5287C0.0175 57.7895 2.67437 60.4376 5.93861 60.4376H54.3135C57.5871 60.4376 60.2505 57.7745 60.251 54.5009C60.251 54.5007 60.251 54.5006 60.251 54.5004V47.9364H61.188C62.7385 47.9364 64 46.6749 64 45.1244V30.1234C63.9996 28.5729 62.7381 27.3114 61.1876 27.3114ZM11.6125 5.66694L28.1548 10.3936C28.1556 10.3938 28.1564 10.3939 28.1572 10.3942L39.2442 13.5619H9.63923L11.6125 5.66694ZM58.3755 20.1742C57.3126 19.1749 55.8836 18.5608 54.3131 18.5608C54.3115 18.5608 54.31 18.561 54.3083 18.561H5.93811C3.69799 18.561 1.8755 16.7385 1.8755 14.4984C1.8755 12.2583 3.69799 10.4358 5.93811 10.4358H8.48786L7.70661 13.5619H5.93836C5.42061 13.5619 5.00087 13.9817 5.00087 14.4994C5.00087 15.0172 5.42061 15.4369 5.93836 15.4369H8.43536C8.43661 15.4369 8.43798 15.4372 8.43936 15.4372C8.44036 15.4372 8.44136 15.4369 8.44223 15.4369H45.9348C45.936 15.4369 45.9372 15.4372 45.9383 15.4372C45.9393 15.4372 45.9403 15.4369 45.9413 15.4369H53.062C53.5798 15.4369 53.9995 15.0172 53.9995 14.4994C53.9995 13.9817 53.5798 13.5619 53.062 13.5619H46.0692L35.1281 10.4358H54.313C56.553 10.4358 58.3755 12.2583 58.3755 14.4984V20.1742ZM62.1246 45.1239C62.1246 45.6405 61.7043 46.0609 61.1876 46.0609H48.5634L44.1885 39.4991L48.5634 32.9364H61.1876C61.2008 32.9364 61.2135 32.9349 61.2265 32.9344C61.541 32.93 61.843 32.874 62.1246 32.7743V45.1239ZM61.1876 31.0604C61.1811 31.0604 61.1748 31.0613 61.1683 31.0614H60.2506V29.1864H61.1876C61.7043 29.1864 62.1246 29.6068 62.1246 30.1234C62.1246 30.64 61.7043 31.0604 61.1876 31.0604Z" fill="white"/>
<path d="M51.812 36.0615C49.9165 36.0615 48.3745 37.6036 48.3745 39.4991C48.3745 41.3946 49.9165 42.9366 51.812 42.9366C53.7075 42.9366 55.2495 41.3946 55.2495 39.4991C55.2495 37.6036 53.7075 36.0615 51.812 36.0615ZM51.812 41.0616C50.9504 41.0616 50.2495 40.3608 50.2495 39.4991C50.2495 38.6375 50.9504 37.9365 51.812 37.9365C52.6736 37.9365 53.3745 38.6375 53.3745 39.4991C53.3745 40.3608 52.6736 41.0616 51.812 41.0616Z" fill="#D8004E"/>
</svg>
