<svg width="68" height="66" viewBox="0 0 68 66" fill="none" xmlns="http://www.w3.org/2000/svg">
<path d="M56.1293 43.2369L56.2389 43.4175L56.4448 43.4648L64.6263 45.3433C65.7322 45.5972 66.1666 46.9397 65.4191 47.7934L59.9238 54.0693L59.7833 54.2298L59.8019 54.4423L60.5285 62.7417C60.6269 63.8665 59.4943 64.6927 58.4533 64.2555L50.6936 60.9965L50.5 60.9151L50.3064 60.9965L42.5467 64.2555C41.5057 64.6927 40.3731 63.8665 40.4715 62.7417L41.1981 54.4423L41.2167 54.2298L41.0762 54.0693L35.5809 47.7934C34.8334 46.9397 35.2678 45.5972 36.3737 45.3433L44.5552 43.4648L44.7611 43.4175L44.8707 43.2369L49.2178 36.0758C49.8018 35.1137 51.1982 35.1137 51.7822 36.0758L56.1293 43.2369Z" stroke="white"/>
<path d="M56.1293 10.2369L56.2389 10.4175L56.4448 10.4648L64.6263 12.3433C65.7322 12.5972 66.1666 13.9397 65.4191 14.7934L59.9238 21.0693L59.7833 21.2298L59.8019 21.4423L60.5285 29.7417C60.6269 30.8665 59.4943 31.6927 58.4533 31.2555L50.6936 27.9965L50.5 27.9151L50.3064 27.9965L42.5467 31.2555C41.5057 31.6927 40.3731 30.8665 40.4715 29.7417L41.1981 21.4423L41.2167 21.2298L41.0762 21.0693L35.5809 14.7934C34.8334 13.9397 35.2678 12.5972 36.3737 12.3433L44.5552 10.4648L44.7611 10.4175L44.8707 10.2369L49.2178 3.07582C49.8018 2.11365 51.1982 2.11365 51.7822 3.07582L56.1293 10.2369Z" stroke="white"/>
<path d="M23.1293 43.2369L23.2389 43.4175L23.4448 43.4648L31.6263 45.3433C32.7322 45.5972 33.1666 46.9397 32.4191 47.7934L26.9238 54.0693L26.7833 54.2298L26.8019 54.4423L27.5285 62.7417C27.6269 63.8665 26.4943 64.6927 25.4533 64.2555L17.6936 60.9965L17.5 60.9151L17.3064 60.9965L9.54669 64.2555C8.5057 64.6927 7.37309 63.8665 7.47155 62.7417L8.19809 54.4423L8.2167 54.2298L8.07617 54.0693L2.58086 47.7934C1.83336 46.9397 2.26778 45.5972 3.37371 45.3433L11.5552 43.4648L11.7611 43.4175L11.8707 43.2369L16.2178 36.0758C16.8018 35.1137 18.1982 35.1137 18.7822 36.0758L23.1293 43.2369Z" stroke="white"/>
<path d="M23.1293 10.2369L23.2389 10.4175L23.4448 10.4648L31.6263 12.3433C32.7322 12.5972 33.1666 13.9397 32.4191 14.7934L26.9238 21.0693L26.7833 21.2298L26.8019 21.4423L27.5285 29.7417C27.6269 30.8665 26.4943 31.6927 25.4533 31.2555L17.6936 27.9965L17.5 27.9151L17.3064 27.9965L9.54669 31.2555C8.5057 31.6927 7.37309 30.8665 7.47155 29.7417L8.19809 21.4423L8.2167 21.2298L8.07617 21.0693L2.58086 14.7934C1.83336 13.9397 2.26778 12.5972 3.37371 12.3433L11.5552 10.4648L11.7611 10.4175L11.8707 10.2369L16.2178 3.07582C16.8018 2.11365 18.1982 2.11365 18.7822 3.07582L23.1293 10.2369Z" stroke="white"/>
<path d="M43.6182 23.9398L43.7274 24.1213L43.9338 24.1691L59.664 27.8123C60.7655 28.0674 61.1995 29.4031 60.4583 30.2569L49.8737 42.4502L49.7348 42.6102L49.7531 42.8212L51.1492 58.9074C51.247 60.0338 50.1107 60.8593 49.0697 60.4182L34.2023 54.1196L34.0072 54.037L33.8122 54.1196L18.9448 60.4182C17.9037 60.8593 16.7675 60.0338 16.8652 58.9074L18.2613 42.8212L18.2796 42.6102L18.1408 42.4502L7.55613 30.2569C6.81496 29.4031 7.24896 28.0674 8.35043 27.8123L24.0807 24.1691L24.287 24.1213L24.3963 23.9398L32.722 10.1053C33.305 9.13653 34.7094 9.13653 35.2924 10.1053L43.6182 23.9398Z" fill="#101010" stroke="white"/>
</svg>
