<svg width="49" height="62" viewBox="0 0 49 62" fill="none" xmlns="http://www.w3.org/2000/svg">
<path d="M8.00676 6.59473H2C1.44772 6.59473 1 7.04244 1 7.59473V60.0001C1 60.5524 1.44772 61.0001 2 61.0001H41.2162C41.7685 61.0001 42.2162 60.5524 42.2162 60.0001V53.9934" stroke="white"/>
<path d="M8.09473 1C8.09473 0.723858 8.31858 0.5 8.59473 0.5H33.3461L48.3109 16.2738V53.4054C48.3109 53.6815 48.0871 53.9054 47.8109 53.9054H8.59473C8.31858 53.9054 8.09473 53.6815 8.09473 53.4054V1Z" stroke="white"/>
<rect x="13.8647" y="5.4458" width="11.3649" height="11.3649" rx="0.5" stroke="white"/>
<path d="M14.189 21.8447H19.1349" stroke="white"/>
<path d="M22.02 21.8447H42.6281" stroke="white"/>
<path d="M14.189 27.2026H19.1349" stroke="white"/>
<path d="M22.02 27.2026H42.6281" stroke="white"/>
<path d="M14.189 32.561H19.1349" stroke="white"/>
<path d="M22.02 32.561H42.6281" stroke="white"/>
<path d="M14.189 37.9189H19.1349" stroke="white"/>
<path d="M22.02 37.9189H42.6281" stroke="white"/>
<path d="M14.189 43.2769H19.1349" stroke="white"/>
<path d="M22.02 43.2769H42.6281" stroke="white"/>
<path d="M14.189 48.6353H19.1349" stroke="white"/>
<path d="M22.02 48.6353H42.6281" stroke="white"/>
</svg>
