<svg width="58" height="66" viewBox="0 0 58 66" fill="none" xmlns="http://www.w3.org/2000/svg">
<path d="M4.5 29.0674H57.5V61.0002C57.5 63.4855 55.4853 65.5002 53 65.5002H9C6.51472 65.5002 4.5 63.4855 4.5 61.0002V29.0674Z" stroke="white"/>
<path d="M5 39.4033H57.5" stroke="white"/>
<path d="M52 29.0601L41.5 39.4033" stroke="white"/>
<path d="M41.5 29.0601L31 39.4033" stroke="white"/>
<path d="M31 29.0601L20.5 39.4033" stroke="white"/>
<path d="M20.5 29.0601L10 39.4033" stroke="white"/>
<path d="M4.53627 29.2414L54.1039 10.7637L51.8291 4.84209C50.9378 2.52211 48.3275 1.34514 45.9988 2.21324L4.86425 17.5473C2.53551 18.4154 1.37019 20.9999 2.26144 23.3199L4.53627 29.2414Z" stroke="white"/>
<path d="M5.98847 17.638L19.5191 23.6642" stroke="white" stroke-linecap="round"/>
<path d="M15.8127 13.9872L29.3433 20.0133" stroke="white" stroke-linecap="round"/>
<path d="M25.6364 10.3358L39.167 16.362" stroke="white" stroke-linecap="round"/>
<path d="M35.4606 6.68443L48.9912 12.7106" stroke="white" stroke-linecap="round"/>
<path d="M37.2244 52.1515L27.4972 57.6837C27.1639 57.8733 26.75 57.6325 26.75 57.2491L26.75 46.1847C26.75 45.8012 27.1639 45.5605 27.4972 45.7501L37.2244 51.2823C37.5615 51.474 37.5615 51.9598 37.2244 52.1515Z" stroke="white"/>
</svg>
