<svg width="18" height="12" viewBox="0 0 18 12" fill="none" xmlns="http://www.w3.org/2000/svg">
<path fill-rule="evenodd" clip-rule="evenodd" d="M14 1V4.5L18 0.5V11.5L14 7.5V11C14 11.55 13.55 12 13 12H1C0.45 12 0 11.55 0 11V1C0 0.45 0.45 0 1 0H13C13.55 0 14 0.45 14 1ZM9.12 5.808C9.34933 5.92 9.608 5.976 9.896 5.976C10.184 5.976 10.4427 5.92 10.672 5.808C10.9013 5.696 11.08 5.53867 11.208 5.336C11.3413 5.13333 11.408 4.90667 11.408 4.656C11.408 4.40533 11.3413 4.17867 11.208 3.976C11.08 3.77333 10.9013 3.616 10.672 3.504C10.4427 3.392 10.184 3.336 9.896 3.336C9.608 3.336 9.34933 3.392 9.12 3.504C8.89067 3.616 8.70933 3.77333 8.576 3.976C8.448 4.17867 8.384 4.40533 8.384 4.656C8.384 4.90667 8.448 5.13333 8.576 5.336C8.70933 5.53867 8.89067 5.696 9.12 5.808ZM7.8 3.4H6.52V6.8L3.736 3.4H2.664V9H3.944V5.6L6.736 9H7.8V3.4ZM9.408 4.176C9.536 4.05867 9.69867 4 9.896 4C10.0933 4 10.2533 4.05867 10.376 4.176C10.4987 4.29333 10.56 4.45333 10.56 4.656C10.56 4.85333 10.4987 5.01333 10.376 5.136C10.2533 5.25333 10.0933 5.312 9.896 5.312C9.69867 5.312 9.536 5.25333 9.408 5.136C9.28533 5.01333 9.224 4.85333 9.224 4.656C9.224 4.45333 9.28533 4.29333 9.408 4.176ZM11.248 7.264V6.504H8.544V7.264H11.248Z" fill="white"/>
</svg>
