<svg width="41" height="33" viewBox="0 0 41 33" fill="none" xmlns="http://www.w3.org/2000/svg">
<path d="M16.1802 23.5433C17.8027 25.7985 20.1101 27.4817 22.766 28.3478C25.422 29.2138 28.2878 29.2175 30.946 28.3582C33.6042 27.4989 35.9159 25.8215 37.5443 23.5705C39.1727 21.3195 40.0327 18.6124 39.9991 15.8436C39.9654 13.0748 39.0399 10.389 37.3572 8.17739C35.6746 5.96582 33.3229 4.34404 30.6446 3.54833C27.9662 2.75261 25.1013 2.82454 22.4672 3.75363C19.833 4.68271 17.5673 6.42042 16 8.71359" stroke="white"/>
<path d="M5.4968 10.5139C8.52774 7.483 13.4595 7.483 16.4905 10.5139C17.1643 11.1878 17.6993 11.9623 18.0848 12.8205L28.5969 12.8209C28.7472 12.8209 28.8913 12.8806 28.9975 12.9868L31.8736 15.8629C32.0949 16.0841 32.0949 16.4428 31.8736 16.664L29.5035 19.0342C29.3973 19.1403 29.2535 19.2 29.1034 19.2001L27.5071 19.2013C27.3567 19.2015 27.2124 19.1417 27.1061 19.0354L26.1253 18.0546L25.1458 19.0342C24.9245 19.2554 24.5659 19.2554 24.3446 19.0342L23.952 18.6415L23.5594 19.0342C23.3382 19.2554 22.9794 19.2554 22.7582 19.0342L21.8962 18.1722L21.0343 19.0342C20.9281 19.1404 20.784 19.2001 20.6337 19.2001H18.0848C17.6995 20.0586 17.1645 20.8334 16.4905 21.5075C13.4595 24.5384 8.52774 24.5384 5.4968 21.5075C2.46589 18.4766 2.46586 13.5449 5.4968 10.5139ZM15.6892 20.7064C16.3449 20.0507 16.8466 19.2841 17.1804 18.4278C17.2668 18.2064 17.4772 18.0703 17.7013 18.0674C17.7037 18.0674 17.7058 18.0671 17.7083 18.0671L20.399 18.0671L21.4956 16.9705C21.7168 16.7493 22.0755 16.7493 22.2968 16.9705L23.1587 17.8325L23.5514 17.4399C23.7726 17.2186 24.1313 17.2186 24.3525 17.4399L24.7451 17.8325L25.7247 16.8529C25.9459 16.6317 26.3046 16.6317 26.5259 16.8529L27.7411 18.0681L28.868 18.0672L30.6718 16.2635L30.1057 15.6974L20.3133 15.6974C20.0317 15.6974 19.8034 15.4692 19.8034 15.1876C19.8035 14.906 20.0316 14.6777 20.3133 14.6777L29.086 14.6777L28.3623 13.954L17.7083 13.9536C17.7059 13.9536 17.7039 13.9534 17.7016 13.9533C17.4776 13.9506 17.267 13.8146 17.1806 13.5931C16.8465 12.7371 16.3447 11.9707 15.6892 11.3152C13.1 8.72604 8.8871 8.72604 6.2979 11.3152C3.70871 13.9044 3.70874 18.1173 6.29797 20.7065C8.88716 23.2956 13.1001 23.2955 15.6892 20.7064Z" fill="white"/>
<path d="M6.14724 14.5102C6.97461 13.6829 8.3208 13.6829 9.14817 14.5102C9.97554 15.3376 9.97554 16.6838 9.14817 17.5112C8.3208 18.3385 6.97461 18.3385 6.14724 17.5112C5.31987 16.6838 5.31984 15.3376 6.14724 14.5102ZM8.347 16.71C8.73259 16.3244 8.73259 15.697 8.347 15.3114C7.96141 14.9258 7.334 14.9258 6.94841 15.3114C6.56282 15.697 6.56282 16.3244 6.94841 16.71C7.334 17.0956 7.96141 17.0956 8.347 16.71Z" fill="white"/>
</svg>
