<svg width="231" height="274" viewBox="0 0 231 274" fill="none" xmlns="http://www.w3.org/2000/svg">
<path d="M213.566 68.492C215.691 72.1717 215.157 77.2822 212.129 83.501C209.11 89.7008 203.669 96.8789 196.218 104.58C181.322 119.976 158.475 137.378 131.208 153.12C103.941 168.863 77.4474 179.948 56.6654 185.151C46.271 187.753 37.334 188.876 30.4555 188.39C23.5559 187.903 18.863 185.81 16.7385 182.131C14.6141 178.451 15.1483 173.34 18.1761 167.122C21.1947 160.922 26.636 153.744 34.0867 146.043C48.9832 130.647 71.8296 113.245 99.097 97.5024C126.364 81.7596 152.858 70.6747 173.64 65.4722C184.034 62.87 192.971 61.7468 199.849 62.2325C206.749 62.7197 211.442 64.8124 213.566 68.492Z" stroke="#3C3C3C"/>
<path d="M196.5 272.503L40.9999 0.503904" stroke="#3C3C3C" stroke-linecap="round"/>
</svg>
