<svg width="75" height="75" viewBox="0 0 75 75" fill="none" xmlns="http://www.w3.org/2000/svg">
<path d="M56.2505 69.5087C56.2506 69.509 56.2475 69.5083 56.2408 69.5059C56.247 69.5072 56.2503 69.5084 56.2505 69.5087ZM55.8933 69.1564C55.903 69.2047 55.9113 69.2495 55.9182 69.291C55.8857 69.2642 55.851 69.2347 55.8141 69.2022C55.45 68.8809 54.9619 68.349 54.3589 67.6105C53.1575 66.1393 51.5541 63.9152 49.6583 61.0976C45.8693 55.4661 40.938 47.5017 35.7642 38.5404C30.5903 29.579 26.1586 21.3262 23.1761 15.2291C21.6839 12.1785 20.5595 9.67783 19.886 7.90181C19.548 7.01032 19.3314 6.32167 19.2352 5.8457C19.2255 5.79749 19.2172 5.75268 19.2103 5.71114C19.2429 5.7379 19.2775 5.76744 19.3144 5.79999C19.6785 6.12128 20.1666 6.65314 20.7697 7.39164C21.971 8.86287 23.5745 11.087 25.4702 13.9046C29.2592 19.5361 34.1905 27.5005 39.3643 36.4618C44.5382 45.4231 48.9699 53.676 51.9524 59.7731C53.4446 62.8236 54.5691 65.3243 55.2425 67.1003C55.5805 67.9918 55.7971 68.6805 55.8933 69.1564ZM19.188 5.31453C19.1881 5.3148 19.1875 5.31833 19.1855 5.32428C19.1868 5.31723 19.1878 5.31426 19.188 5.31453ZM18.8781 5.49346C18.8779 5.49316 18.881 5.49379 18.8877 5.49624C18.8816 5.49498 18.8782 5.49375 18.8781 5.49346ZM55.943 69.6779C55.9417 69.6849 55.9407 69.6879 55.9406 69.6876C55.9404 69.6873 55.941 69.6839 55.943 69.6779Z" stroke="#D8014E"/>
<path d="M47.3297 73.2538C47.3298 73.2541 47.3269 73.2527 47.3211 73.2486C47.3267 73.2514 47.3296 73.2534 47.3297 73.2538ZM47.0758 72.8211C47.0728 72.8702 47.0691 72.9156 47.0651 72.9575C47.0406 72.9232 47.0147 72.8857 46.9875 72.8447C46.719 72.4402 46.3852 71.8001 45.9938 70.9307C45.2142 69.1987 44.241 66.6353 43.1391 63.4231C40.9368 57.0028 38.2348 48.0335 35.5566 38.0384C32.8785 28.0433 30.7338 18.9247 29.4309 12.2634C28.7791 8.93057 28.3402 6.22408 28.1494 4.33428C28.0536 3.38567 28.0226 2.66444 28.0529 2.1798C28.056 2.13071 28.0596 2.08529 28.0637 2.04338C28.0882 2.07764 28.114 2.11515 28.1412 2.15613C28.4098 2.56072 28.7436 3.20078 29.1349 4.0702C29.9146 5.80223 30.8877 8.36555 31.9896 11.5778C34.192 17.9981 36.8939 26.9674 39.5721 36.9625C42.2503 46.9575 44.395 56.0762 45.6978 62.7375C46.3497 66.0703 46.7886 68.7768 46.9794 70.6666C47.0752 71.6152 47.1061 72.3364 47.0758 72.8211ZM28.1447 1.65449C28.1448 1.6548 28.1433 1.65804 28.1399 1.66328C28.1429 1.6568 28.1446 1.65418 28.1447 1.65449ZM27.7991 1.74711C27.799 1.74679 27.8018 1.74819 27.8077 1.7523C27.8021 1.74948 27.7991 1.74743 27.7991 1.74711ZM46.9889 73.3377C46.9859 73.3441 46.9841 73.3467 46.984 73.3464C46.9839 73.3461 46.9854 73.3429 46.9889 73.3377Z" stroke="#D8014E"/>
<path d="M37.6839 74.5652C37.6838 74.5656 37.6814 74.5634 37.6766 74.5575C37.6815 74.562 37.6839 74.5649 37.6839 74.5652ZM37.5384 74.0807C37.5253 74.1202 37.5125 74.157 37.5 74.1913C37.4876 74.157 37.4747 74.1202 37.4617 74.0807C37.3089 73.62 37.154 72.915 37.003 71.9738C36.7021 70.0988 36.4291 67.3707 36.1991 63.9826C35.7395 57.2109 35.4548 47.8478 35.4548 37.5C35.4548 27.1522 35.7395 17.7891 36.1991 11.0174C36.4291 7.62931 36.7021 4.90123 37.003 3.02616C37.154 2.08496 37.3089 1.37996 37.4617 0.919278C37.4748 0.879805 37.4876 0.842974 37.5 0.808667C37.5125 0.842974 37.5253 0.879805 37.5384 0.919278C37.6912 1.37996 37.846 2.08496 37.9971 3.02616C38.298 4.90123 38.571 7.62931 38.8009 11.0174C39.2606 17.7891 39.5453 27.1522 39.5453 37.5C39.5453 47.8478 39.2606 57.2109 38.8009 63.9826C38.571 67.3707 38.298 70.0988 37.9971 71.9738C37.846 72.915 37.6912 73.62 37.5384 74.0807ZM37.6839 0.434766C37.6839 0.435119 37.6815 0.438038 37.6766 0.442462C37.6814 0.436625 37.6839 0.434413 37.6839 0.434766ZM37.3162 0.434766C37.3162 0.434413 37.3187 0.436625 37.3235 0.442462C37.3186 0.438038 37.3162 0.43512 37.3162 0.434766ZM37.3235 74.5575C37.3187 74.5634 37.3162 74.5656 37.3162 74.5652C37.3162 74.5649 37.3186 74.562 37.3235 74.5575Z" stroke="#D8014E"/>
<path d="M28.1449 73.3456C28.1448 73.3459 28.1431 73.3433 28.1401 73.3368C28.1435 73.3421 28.145 73.3453 28.1449 73.3456ZM28.1414 72.844C28.1142 72.8849 28.0884 72.9225 28.0639 72.9567C28.0598 72.9148 28.0562 72.8694 28.0531 72.8203C28.0228 72.3357 28.0538 71.6144 28.1496 70.6658C28.3404 68.776 28.7793 66.0695 29.4311 62.7367C30.734 56.0754 32.8787 46.9568 35.5568 36.9617C38.235 26.9666 40.937 17.9973 43.1393 11.577C44.2412 8.36477 45.2144 5.80145 45.994 4.06942C46.3854 3.20001 46.7192 2.55994 46.9877 2.15536C47.0149 2.11438 47.0408 2.07686 47.0653 2.0426C47.0693 2.08452 47.073 2.12993 47.076 2.17902C47.1063 2.66367 47.0754 3.3849 46.9796 4.33351C46.7888 6.22331 46.3499 8.92979 45.698 12.2626C44.3952 18.9239 42.2505 28.0426 39.5723 38.0376C36.8941 48.0327 34.1922 57.002 31.9898 63.4223C30.8879 66.6345 29.9148 69.1979 29.1351 70.9299C28.7438 71.7993 28.41 72.4394 28.1414 72.844ZM47.3299 1.74633C47.3298 1.74666 47.3269 1.74871 47.3213 1.75152C47.3271 1.74741 47.33 1.74601 47.3299 1.74633ZM46.9842 1.65371C46.9843 1.6534 46.9861 1.65602 46.9891 1.66251C46.9856 1.65727 46.9841 1.65402 46.9842 1.65371ZM27.8078 73.2478C27.802 73.2519 27.7992 73.2533 27.7993 73.253C27.7993 73.2527 27.8022 73.2506 27.8078 73.2478Z" stroke="#D8014E"/>
<path d="M19.188 69.6862C19.1878 69.6865 19.1868 69.6835 19.1855 69.6765C19.1875 69.6824 19.1881 69.6859 19.188 69.6862ZM19.3144 69.2007C19.2775 69.2333 19.2429 69.2628 19.2103 69.2896C19.2172 69.248 19.2255 69.2032 19.2352 69.155C19.3314 68.6791 19.548 67.9904 19.886 67.0989C20.5595 65.3229 21.6839 62.8222 23.1761 59.7717C26.1586 53.6746 30.5903 45.4217 35.7642 36.4604C40.938 27.499 45.8693 19.5346 49.6583 13.9032C51.5541 11.0856 53.1575 8.86146 54.3589 7.39023C54.9619 6.65172 55.45 6.11987 55.8141 5.79857C55.851 5.76603 55.8857 5.73649 55.9182 5.70973C55.9113 5.75127 55.903 5.79608 55.8933 5.84429C55.7971 6.32026 55.5805 7.0089 55.2425 7.9004C54.5691 9.67641 53.4446 12.1771 51.9524 15.2276C48.9699 21.3248 44.5382 29.5776 39.3643 38.5389C34.1905 47.5003 29.2592 55.4647 25.4702 61.0962C23.5745 63.9138 21.971 66.1379 20.7697 67.6091C20.1666 68.3476 19.6785 68.8795 19.3144 69.2007ZM56.2505 5.49204C56.2503 5.49234 56.247 5.49356 56.2408 5.49483C56.2475 5.49238 56.2506 5.49175 56.2505 5.49204ZM55.9406 5.31312C55.9407 5.31284 55.9417 5.31582 55.943 5.32287C55.941 5.31692 55.9404 5.31339 55.9406 5.31312ZM18.8876 69.5045C18.881 69.5069 18.8779 69.5076 18.878 69.5073C18.8782 69.507 18.8815 69.5058 18.8876 69.5045Z" stroke="#D8014E"/>
<path d="M11.4842 63.834C11.484 63.8342 11.4838 63.8311 11.4844 63.824C11.4848 63.8302 11.4845 63.8338 11.4842 63.834ZM11.732 63.3978C11.688 63.4197 11.6468 63.4393 11.6085 63.4567C11.6259 63.4183 11.6455 63.3772 11.6673 63.3332C11.8835 62.8983 12.2709 62.2892 12.8281 61.5155C13.9383 59.9743 15.6716 57.8499 17.9025 55.2895C22.3615 50.1721 28.7782 43.3475 36.0951 36.0306C43.412 28.7136 50.2366 22.297 55.354 17.838C57.9144 15.6071 60.0389 13.8738 61.5801 12.7636C62.3537 12.2063 62.9628 11.8189 63.3977 11.6028C63.4417 11.5809 63.4829 11.5614 63.5212 11.5439C63.5038 11.5823 63.4842 11.6234 63.4623 11.6675C63.2462 12.1023 62.8588 12.7115 62.3016 13.4851C61.1914 15.0263 59.4581 17.1507 57.2271 19.7111C52.7682 24.8286 46.3515 31.6532 39.0346 38.9701C31.7177 46.287 24.8931 52.7037 19.7757 57.1626C17.2153 59.3936 15.0908 61.1269 13.5496 62.237C12.776 62.7943 12.1669 63.1817 11.732 63.3978ZM63.8985 11.4197C63.8983 11.4199 63.8947 11.4202 63.8885 11.4199C63.8956 11.4192 63.8987 11.4194 63.8985 11.4197ZM63.6455 11.1666C63.6457 11.1664 63.6459 11.1696 63.6453 11.1767C63.6449 11.1704 63.6452 11.1669 63.6455 11.1666ZM11.2411 63.5808C11.2341 63.5814 11.231 63.5812 11.2312 63.581C11.2314 63.5807 11.2349 63.5804 11.2411 63.5808Z" stroke="#D8014E"/>
<path d="M5.55906 56.1865C5.55876 56.1867 5.55941 56.1836 5.56184 56.1769C5.56057 56.183 5.55936 56.1864 5.55906 56.1865ZM5.9113 55.8293C5.8631 55.8391 5.81829 55.8473 5.77675 55.8542C5.8035 55.8217 5.83305 55.787 5.86559 55.7502C6.18689 55.386 6.71874 54.8979 7.45724 54.2949C8.92847 53.0935 11.1526 51.4901 13.9702 49.5944C19.6017 45.8054 27.5661 40.874 36.5274 35.7002C45.4887 30.5264 53.7416 26.0947 59.8387 23.1122C62.8892 21.6199 65.3899 20.4955 67.1659 19.8221C68.0574 19.484 68.7461 19.2675 69.222 19.1713C69.2703 19.1615 69.3151 19.1533 69.3566 19.1464C69.3299 19.1789 69.3003 19.2136 69.2678 19.2505C68.9465 19.6146 68.4146 20.1027 67.6761 20.7057C66.2049 21.9071 63.9808 23.5105 61.1632 25.4062C55.5317 29.1952 47.5673 34.1266 38.606 39.3004C29.6446 44.4742 21.3918 48.9059 15.2947 51.8885C12.2441 53.3807 9.74343 54.5051 7.96741 55.1785C7.07592 55.5166 6.38727 55.7331 5.9113 55.8293ZM69.7532 19.124C69.7529 19.1242 69.7494 19.1236 69.7435 19.1216C69.7505 19.1228 69.7535 19.1238 69.7532 19.124ZM69.5743 18.8141C69.5746 18.8139 69.574 18.817 69.5715 18.8237C69.5728 18.8176 69.574 18.8142 69.5743 18.8141ZM5.38982 55.879C5.38282 55.8778 5.37986 55.8768 5.38013 55.8766C5.38041 55.8764 5.38388 55.877 5.38982 55.879Z" stroke="#D8014E"/>
<path d="M1.81093 47.2665C1.8106 47.2665 1.81202 47.2637 1.8161 47.2579C1.81329 47.2635 1.81126 47.2664 1.81093 47.2665ZM2.24361 47.0126C2.19453 47.0096 2.14911 47.0059 2.1072 47.0018C2.14146 46.9774 2.17898 46.9515 2.21995 46.9243C2.62454 46.6558 3.2646 46.3219 4.13402 45.9306C5.86605 45.151 8.42937 44.1778 11.6416 43.0759C18.0619 40.8735 27.0312 38.1716 37.0263 35.4934C47.0214 32.8152 56.14 30.6705 62.8013 29.3677C66.1341 28.7158 68.8406 28.277 70.7304 28.0861C71.679 27.9903 72.4003 27.9594 72.8849 27.9897C72.934 27.9928 72.9794 27.9964 73.0213 28.0005C72.9871 28.0249 72.9495 28.0508 72.9086 28.078C72.504 28.3465 71.8639 28.6804 70.9945 29.0717C69.2625 29.8513 66.6991 30.8245 63.4869 31.9264C57.0666 34.1288 48.0973 36.8307 38.1022 39.5089C28.1072 42.1871 18.9885 44.3318 12.3272 45.6346C8.99439 46.2865 6.2879 46.7253 4.3981 46.9162C3.44949 47.012 2.72827 47.0429 2.24361 47.0126ZM73.4102 28.0815C73.4099 28.0816 73.4067 28.0801 73.4014 28.0766C73.4079 28.0797 73.4105 28.0814 73.4102 28.0815ZM73.3176 27.7358C73.3179 27.7358 73.3165 27.7386 73.3124 27.7444C73.3152 27.7388 73.3173 27.7359 73.3176 27.7358ZM1.72704 46.9256C1.72061 46.9226 1.718 46.9209 1.71831 46.9208C1.71862 46.9207 1.72182 46.9222 1.72704 46.9256Z" stroke="#D8014E"/>
<path d="M0.434769 37.6835C0.434403 37.6835 0.436646 37.681 0.442467 37.6762C0.43805 37.6811 0.435127 37.6835 0.434769 37.6835ZM0.919281 37.5381C0.879807 37.525 0.842987 37.5121 0.808678 37.4997C0.842987 37.4872 0.879807 37.4744 0.919281 37.4613C1.37996 37.3085 2.08496 37.1537 3.02616 37.0026C4.90123 36.7017 7.62931 36.4287 11.0174 36.1988C17.7891 35.7391 27.1522 35.4544 37.5 35.4544C47.8478 35.4544 57.2109 35.7391 63.9826 36.1988C67.3707 36.4287 70.0988 36.7017 71.9738 37.0026C72.915 37.1537 73.62 37.3085 74.0807 37.4613C74.1202 37.4744 74.157 37.4872 74.1913 37.4997C74.157 37.5122 74.1202 37.525 74.0807 37.5381C73.62 37.6909 72.915 37.8457 71.9738 37.9967C70.0988 38.2976 67.3707 38.5706 63.9826 38.8006C57.2109 39.2602 47.8478 39.5449 37.5 39.5449C27.1522 39.5449 17.7891 39.2602 11.0174 38.8006C7.62931 38.5706 4.90123 38.2976 3.02616 37.9967C2.08496 37.8457 1.37996 37.6909 0.919281 37.5381ZM74.5652 37.6835C74.5649 37.6835 74.562 37.6811 74.5575 37.6762C74.5634 37.681 74.5656 37.6835 74.5652 37.6835ZM74.5652 37.3158C74.5656 37.3159 74.5634 37.3183 74.5575 37.3231C74.562 37.3182 74.5649 37.3158 74.5652 37.3158ZM0.442459 37.3231C0.436615 37.3183 0.43441 37.3158 0.434769 37.3158C0.435127 37.3158 0.438042 37.3182 0.442459 37.3231Z" stroke="#D8014E"/>
<path d="M1.71945 28.0812C1.71913 28.0811 1.72178 28.0794 1.72822 28.0763C1.723 28.0798 1.71977 28.0813 1.71945 28.0812ZM2.22109 28.0777C2.18012 28.0505 2.1426 28.0246 2.10835 28.0002C2.15026 27.9961 2.19567 27.9924 2.24476 27.9894C2.72941 27.9591 3.45064 27.99 4.39925 28.0858C6.28904 28.2767 8.99554 28.7155 12.3284 29.3674C18.9897 30.6702 28.1083 32.8149 38.1034 35.4931C48.0985 38.1713 57.0678 40.8732 63.4881 43.0756C66.7003 44.1775 69.2636 45.1507 70.9956 45.9303C71.8651 46.3216 72.5051 46.6555 72.9097 46.924C72.9507 46.9512 72.9882 46.9771 73.0225 47.0015C72.9805 47.0056 72.9351 47.0093 72.886 47.0123C72.4014 47.0426 71.6802 47.0117 70.7316 46.9159C68.8418 46.725 66.1353 46.2862 62.8024 45.6343C56.1411 44.3315 47.0225 42.1868 37.0274 39.5086C27.0324 36.8304 18.063 34.1285 11.6428 31.9261C8.43052 30.8242 5.86719 29.851 4.13516 29.0714C3.26575 28.6801 2.62568 28.3462 2.22109 28.0777ZM73.3187 47.2662C73.3184 47.2661 73.3164 47.2632 73.3135 47.2576C73.3176 47.2634 73.3191 47.2662 73.3187 47.2662ZM73.4114 46.9205C73.4117 46.9206 73.409 46.9223 73.4026 46.9254C73.4078 46.9219 73.411 46.9204 73.4114 46.9205ZM1.81722 27.7441C1.81315 27.7383 1.81175 27.7355 1.81207 27.7355C1.81239 27.7356 1.81442 27.7385 1.81722 27.7441Z" stroke="#D8014E"/>
<path d="M5.37764 19.124C5.37736 19.1238 5.38036 19.1228 5.38737 19.1216C5.38143 19.1236 5.37792 19.1242 5.37764 19.124ZM5.86309 19.2504C5.83056 19.2136 5.80101 19.1789 5.77426 19.1464C5.81579 19.1533 5.8606 19.1615 5.90881 19.1713C6.38478 19.2675 7.07343 19.484 7.96492 19.8221C9.74093 20.4955 12.2416 21.6199 15.2922 23.1121C21.3893 26.0947 29.6421 30.5264 38.6035 35.7002C47.5648 40.874 55.5292 45.8054 61.1607 49.5944C63.9783 51.4901 66.2024 53.0935 67.6736 54.2949C68.4121 54.8979 68.944 55.386 69.2653 55.7501C69.2978 55.787 69.3274 55.8217 69.3541 55.8542C69.3126 55.8473 69.2678 55.8391 69.2196 55.8293C68.7436 55.7331 68.0549 55.5166 67.1634 55.1785C65.3874 54.5051 62.8868 53.3807 59.8362 51.8884C53.7391 48.9059 45.4862 44.4742 36.5249 39.3004C27.5636 34.1265 19.5992 29.1952 13.9677 25.4062C11.1501 23.5105 8.92598 21.9071 7.45475 20.7057C6.71625 20.1027 6.18439 19.6146 5.86309 19.2504ZM69.5718 56.1865C69.5715 56.1864 69.5703 56.183 69.569 56.1769C69.5715 56.1836 69.5721 56.1867 69.5718 56.1865ZM69.7507 55.8766C69.751 55.8768 69.748 55.8778 69.741 55.879C69.7469 55.877 69.7505 55.8764 69.7507 55.8766ZM5.55933 18.8237C5.5569 18.817 5.55627 18.8139 5.55657 18.8141C5.55686 18.8142 5.55807 18.8175 5.55933 18.8237Z" stroke="#D8014E"/>
<path d="M11.231 11.4194C11.2307 11.4191 11.2339 11.419 11.241 11.4196C11.2347 11.4199 11.2312 11.4196 11.231 11.4194ZM11.6671 11.6672C11.6452 11.6231 11.6257 11.582 11.6083 11.5437C11.6466 11.5611 11.6877 11.5806 11.7318 11.6025C12.1666 11.8186 12.7758 12.206 13.5494 12.7633C15.0906 13.8735 17.2151 15.6068 19.7754 17.8377C24.8929 22.2967 31.7175 28.7134 39.0344 36.0303C46.3513 43.3472 52.768 50.1718 57.2269 55.2892C59.4579 57.8496 61.1912 59.974 62.3013 61.5152C62.8586 62.2889 63.246 62.898 63.4621 63.3329C63.484 63.3769 63.5036 63.4181 63.521 63.4564C63.4827 63.439 63.4415 63.4194 63.3975 63.3975C62.9626 63.1814 62.3535 62.794 61.5799 62.2367C60.0387 61.1266 57.9142 59.3933 55.3538 57.1623C50.2364 52.7034 43.4118 46.2867 36.0949 38.9698C28.778 31.6529 22.3613 24.8283 17.9023 19.7108C15.6714 17.1504 13.9381 15.026 12.8279 13.4848C12.2706 12.7112 11.8832 12.102 11.6671 11.6672ZM63.6453 63.8337C63.645 63.8335 63.6447 63.8299 63.6451 63.8237C63.6457 63.8308 63.6455 63.8339 63.6453 63.8337ZM63.8983 63.5807C63.8985 63.5809 63.8954 63.5811 63.8883 63.5805C63.8945 63.5801 63.8981 63.5804 63.8983 63.5807ZM11.4842 11.1763C11.4836 11.1692 11.4837 11.1661 11.484 11.1663C11.4842 11.1666 11.4845 11.1701 11.4842 11.1763Z" stroke="#D8014E"/>
<g filter="url(#filter0_f)">
<circle cx="37.5" cy="36.5" r="17.5" fill="#D8004E"/>
</g>
<path d="M48.5 34.4019C50.5 35.5566 50.5 38.4434 48.5 39.5981L35 47.3923C33 48.547 30.5 47.1036 30.5 44.7942L30.5 29.2058C30.5 26.8964 33 25.453 35 26.6077L48.5 34.4019Z" fill="white"/>
<defs>
<filter id="filter0_f" x="15" y="14" width="45" height="45" filterUnits="userSpaceOnUse" color-interpolation-filters="sRGB">
<feFlood flood-opacity="0" result="BackgroundImageFix"/>
<feBlend mode="normal" in="SourceGraphic" in2="BackgroundImageFix" result="shape"/>
<feGaussianBlur stdDeviation="2.5" result="effect1_foregroundBlur"/>
</filter>
</defs>
</svg>
