<svg width="76" height="68" viewBox="0 0 76 68" fill="none" xmlns="http://www.w3.org/2000/svg">
<path d="M69.4592 15.1761C70.0676 16.2299 69.9518 17.7635 68.9786 19.7623C68.0146 21.7422 66.2643 24.0572 63.8429 26.5599C59.005 31.5601 51.5705 37.2253 42.6842 42.3558C33.7979 47.4863 25.1745 51.0922 18.4252 52.7818C15.0471 53.6275 12.1671 53.9858 9.97048 53.8307C7.75288 53.6741 6.36681 53.0076 5.7584 51.9538C5.14999 50.9 5.26586 49.3664 6.23904 47.3676C7.20301 45.3878 8.9533 43.0727 11.3747 40.5701C16.2126 35.5698 23.6471 29.9047 32.5334 24.7741C41.4198 19.6436 50.0432 16.0377 56.7925 14.3481C60.1705 13.5024 63.0506 13.1442 65.2472 13.2993C67.4648 13.4559 68.8508 14.1223 69.4592 15.1761Z" stroke="#D8004E"/>
<path d="M56.185 65.3801C56.1851 65.3804 56.182 65.3798 56.1753 65.3773C56.1815 65.3786 56.1849 65.3798 56.185 65.3801ZM55.8261 65.0334C55.8352 65.0783 55.843 65.1202 55.8496 65.1592C55.819 65.134 55.7866 65.1063 55.7523 65.076C55.3905 64.7568 54.9054 64.2282 54.306 63.4941C53.1119 62.0317 51.518 59.8209 49.6335 57.02C45.867 51.422 40.965 43.5049 35.8218 34.5967C30.6787 25.6885 26.2733 17.4847 23.3085 11.4238C21.8251 8.39134 20.7074 5.90558 20.038 4.14022C19.702 3.25406 19.4868 2.56967 19.3912 2.09676C19.3822 2.05188 19.3744 2.00997 19.3678 1.97093C19.3983 1.99616 19.4307 2.02383 19.4651 2.05413C19.8268 2.37336 20.3119 2.90191 20.9114 3.636C22.1055 5.0984 23.6994 7.30923 25.5839 10.1101C29.3504 15.7081 34.2524 23.6253 39.3955 32.5334C44.5387 41.4416 48.9441 49.6455 51.9089 55.7064C53.3922 58.7388 54.5099 61.2246 55.1793 62.9899C55.5154 63.8761 55.7306 64.5605 55.8261 65.0334ZM19.3442 1.56997C19.3444 1.57025 19.3438 1.57378 19.3418 1.57976C19.343 1.57269 19.344 1.5697 19.3442 1.56997ZM19.0324 1.75001C19.0322 1.74972 19.0353 1.75036 19.042 1.75282C19.0359 1.75154 19.0325 1.75031 19.0324 1.75001ZM55.8756 65.5504C55.8743 65.5575 55.8734 65.5604 55.8732 65.5602C55.873 65.5599 55.8736 65.5564 55.8756 65.5504Z" stroke="#D8004E"/>
<g filter="url(#filter0_f)">
<circle cx="37.5" cy="34.5" r="17.5" fill="#D8004E"/>
</g>
<path d="M48.5 31.4019C50.5 32.5566 50.5 35.4434 48.5 36.5981L35 44.3923C33 45.547 30.5 44.1036 30.5 41.7942L30.5 26.2058C30.5 23.8964 33 22.453 35 23.6077L48.5 31.4019Z" fill="white"/>
<defs>
<filter id="filter0_f" x="15" y="12" width="45" height="45" filterUnits="userSpaceOnUse" color-interpolation-filters="sRGB">
<feFlood flood-opacity="0" result="BackgroundImageFix"/>
<feBlend mode="normal" in="SourceGraphic" in2="BackgroundImageFix" result="shape"/>
<feGaussianBlur stdDeviation="2.5" result="effect1_foregroundBlur"/>
</filter>
</defs>
</svg>
