<svg width="46" height="46" viewBox="0 0 46 46" fill="none" xmlns="http://www.w3.org/2000/svg">
<path d="M40.25 17.25H41.6875V18.6875H40.25V17.25Z" fill="white"/>
<path d="M38.8125 19.4062H41.6875V20.8438H38.8125V19.4062Z" fill="white"/>
<path d="M37.375 21.5625H41.6875V23H37.375V21.5625Z" fill="white"/>
<path d="M6.38025 9.00928L9.00832 6.3812L10.0248 7.39767L7.39671 10.0257L6.38025 9.00928Z" fill="white"/>
<path d="M4.22473 6.854L6.8528 4.22593L7.86927 5.2424L5.2412 7.87047L4.22473 6.854Z" fill="white"/>
<path d="M42.4062 25.875C42.9776 25.8733 43.5251 25.6456 43.9291 25.2416C44.3331 24.8376 44.5608 24.2901 44.5625 23.7188V3.59375C44.5608 3.0224 44.3331 2.47494 43.9291 2.07094C43.5251 1.66693 42.9776 1.43921 42.4062 1.4375H3.59375C3.0224 1.43921 2.47494 1.66693 2.07094 2.07094C1.66693 2.47494 1.43921 3.0224 1.4375 3.59375V23.7188C1.43921 24.2901 1.66693 24.8376 2.07094 25.2416C2.47494 25.6456 3.0224 25.8733 3.59375 25.875H11.9959C12.2454 26.4125 12.5913 26.8998 13.0166 27.3125H12.9375C12.3662 27.3142 11.8187 27.5419 11.4147 27.9459C11.0107 28.3499 10.783 28.8974 10.7812 29.4688V30.1875H7.90625C7.3349 30.1892 6.78744 30.4169 6.38344 30.8209C5.97943 31.2249 5.75171 31.7724 5.75 32.3438V33.7812H3.59375C3.0224 33.783 2.47494 34.0107 2.07094 34.4147C1.66693 34.8187 1.43921 35.3661 1.4375 35.9375V43.8438C1.4375 44.0344 1.51323 44.2172 1.64802 44.352C1.78281 44.4868 1.96563 44.5625 2.15625 44.5625H6.46875C6.65937 44.5625 6.84219 44.4868 6.97698 44.352C7.11177 44.2172 7.1875 44.0344 7.1875 43.8438V43.125H38.8125V43.8438C38.8125 44.0344 38.8882 44.2172 39.023 44.352C39.1578 44.4868 39.3406 44.5625 39.5312 44.5625H43.8438C44.0344 44.5625 44.2172 44.4868 44.352 44.352C44.4868 44.2172 44.5625 44.0344 44.5625 43.8438V35.9375C44.5608 35.3661 44.3331 34.8187 43.9291 34.4147C43.5251 34.0107 42.9776 33.783 42.4062 33.7812H40.25V32.3438C40.2483 31.7724 40.0206 31.2249 39.6166 30.8209C39.2126 30.4169 38.6651 30.1892 38.0938 30.1875H35.2188V29.4688C35.217 28.8974 34.9893 28.3499 34.5853 27.9459C34.1813 27.5419 33.6339 27.3142 33.0625 27.3125H32.9834C33.4087 26.8998 33.7546 26.4125 34.0041 25.875H42.4062ZM5.75 43.125H2.875V35.9375C2.875 35.7469 2.95073 35.5641 3.08552 35.4293C3.22031 35.2945 3.40313 35.2188 3.59375 35.2188H5.75V43.125ZM40.25 35.2188H42.4062C42.5969 35.2188 42.7797 35.2945 42.9145 35.4293C43.0493 35.5641 43.125 35.7469 43.125 35.9375V43.125H40.25V35.2188ZM11.5575 24.4375H3.59375C3.40313 24.4375 3.22031 24.3618 3.08552 24.227C2.95073 24.0922 2.875 23.9094 2.875 23.7188V3.59375C2.875 3.40313 2.95073 3.22031 3.08552 3.08552C3.22031 2.95073 3.40313 2.875 3.59375 2.875H42.4062C42.5969 2.875 42.7797 2.95073 42.9145 3.08552C43.0493 3.22031 43.125 3.40313 43.125 3.59375V23.7188C43.125 23.9094 43.0493 24.0922 42.9145 24.227C42.7797 24.3618 42.5969 24.4375 42.4062 24.4375H34.4425C34.4798 24.1997 34.499 23.9594 34.5 23.7188C34.5 22.3844 33.9699 21.1047 33.0264 20.1611C32.0828 19.2176 30.8031 18.6875 29.4688 18.6875C28.1344 18.6875 26.8547 19.2176 25.9111 20.1611C24.9676 21.1047 24.4375 22.3844 24.4375 23.7188C24.4385 23.9594 24.4577 24.1997 24.495 24.4375H21.505C21.5423 24.1997 21.5615 23.9594 21.5625 23.7188C21.5625 22.3844 21.0324 21.1047 20.0889 20.1611C19.1453 19.2176 17.8656 18.6875 16.5312 18.6875C15.1969 18.6875 13.9172 19.2176 12.9736 20.1611C12.0301 21.1047 11.5 22.3844 11.5 23.7188C11.501 23.9594 11.5202 24.1997 11.5575 24.4375ZM20.125 27.3125H20.0459C20.4712 26.8998 20.8171 26.4125 21.0666 25.875H24.9334C25.1829 26.4125 25.5288 26.8998 25.9541 27.3125H25.875C25.3037 27.3142 24.7562 27.5419 24.3522 27.9459C23.9482 28.3499 23.7205 28.8974 23.7188 29.4688V30.1875H22.2812V29.4688C22.2795 28.8974 22.0518 28.3499 21.6478 27.9459C21.2438 27.5419 20.6963 27.3142 20.125 27.3125ZM12.9375 23.7188C12.9375 23.008 13.1483 22.3132 13.5432 21.7222C13.938 21.1312 14.4993 20.6706 15.156 20.3986C15.8127 20.1266 16.5352 20.0554 17.2324 20.1941C17.9295 20.3327 18.5698 20.675 19.0724 21.1776C19.575 21.6802 19.9173 22.3205 20.0559 23.0176C20.1946 23.7148 20.1234 24.4373 19.8514 25.094C19.5794 25.7507 19.1188 26.312 18.5278 26.7068C17.9368 27.1017 17.242 27.3125 16.5312 27.3125C15.5781 27.3125 14.664 26.9339 13.9901 26.2599C13.3161 25.586 12.9375 24.6719 12.9375 23.7188ZM12.2188 29.4688C12.2188 29.2781 12.2945 29.0953 12.4293 28.9605C12.5641 28.8257 12.7469 28.75 12.9375 28.75H20.125C20.3156 28.75 20.4984 28.8257 20.6332 28.9605C20.768 29.0953 20.8438 29.2781 20.8438 29.4688V30.1875H12.2188V29.4688ZM38.0938 31.625C38.2844 31.625 38.4672 31.7007 38.602 31.8355C38.7368 31.9703 38.8125 32.1531 38.8125 32.3438V41.6875H7.1875V32.3438C7.1875 32.1531 7.26323 31.9703 7.39802 31.8355C7.53281 31.7007 7.71563 31.625 7.90625 31.625H38.0938ZM33.0625 28.75C33.2531 28.75 33.4359 28.8257 33.5707 28.9605C33.7055 29.0953 33.7812 29.2781 33.7812 29.4688V30.1875H25.1562V29.4688C25.1562 29.2781 25.232 29.0953 25.3668 28.9605C25.5016 28.8257 25.6844 28.75 25.875 28.75H33.0625ZM29.4688 27.3125C28.758 27.3125 28.0632 27.1017 27.4722 26.7068C26.8812 26.312 26.4206 25.7507 26.1486 25.094C25.8766 24.4373 25.8054 23.7148 25.9441 23.0176C26.0827 22.3205 26.425 21.6802 26.9276 21.1776C27.4302 20.675 28.0705 20.3327 28.7676 20.1941C29.4648 20.0554 30.1873 20.1266 30.844 20.3986C31.5007 20.6706 32.062 21.1312 32.4568 21.7222C32.8517 22.3132 33.0625 23.008 33.0625 23.7188C33.0625 24.6719 32.6839 25.586 32.0099 26.2599C31.336 26.9339 30.4219 27.3125 29.4688 27.3125Z" fill="white"/>
<path d="M29.0734 11.5793L20.4484 7.26683C20.339 7.21169 20.2173 7.18544 20.0949 7.19057C19.9725 7.1957 19.8534 7.23203 19.749 7.29613C19.6446 7.36022 19.5583 7.44994 19.4983 7.55677C19.4383 7.6636 19.4066 7.78399 19.4063 7.90652V16.5315C19.406 16.6537 19.4369 16.7739 19.496 16.8807C19.5551 16.9876 19.6405 17.0777 19.7441 17.1424C19.8587 17.2128 19.9905 17.2502 20.125 17.2503C20.2374 17.2488 20.348 17.2218 20.4484 17.1712L29.0734 12.8587C29.1912 12.7984 29.29 12.7067 29.359 12.5939C29.4279 12.481 29.4645 12.3513 29.4645 12.219C29.4645 12.0867 29.4279 11.957 29.359 11.8441C29.29 11.7313 29.1912 11.6396 29.0734 11.5793ZM20.8437 15.3671V9.07089L27.14 12.219L20.8437 15.3671Z" fill="#D8004E"/>
</svg>
