<svg width="46" height="46" viewBox="0 0 46 46" fill="none" xmlns="http://www.w3.org/2000/svg">
<g clip-path="url(#clip0)">
<path d="M18.6083 32.1523C19.0313 32.3652 19.4732 32.5484 19.9221 32.697C20.0252 32.7312 20.0947 32.8272 20.0947 32.9361V33.9344C20.0947 34.8168 20.8125 35.5347 21.695 35.5347H24.3051C25.1875 35.5347 25.9055 34.8168 25.9055 33.9344V32.9361C25.9055 32.8273 25.9748 32.7312 26.0781 32.697C26.5269 32.5484 26.9689 32.3652 27.3918 32.1523C27.4896 32.1032 27.6072 32.1217 27.6844 32.1987L28.3906 32.9049C28.6927 33.2072 29.0947 33.3737 29.5221 33.3737C29.9496 33.3737 30.3514 33.2072 30.6538 32.9049L32.4995 31.0594C33.1233 30.4354 33.1233 29.4202 32.4995 28.7963L31.7931 28.0899C31.7162 28.013 31.6976 27.8954 31.7469 27.7974C31.9597 27.3742 32.1429 26.9323 32.2915 26.4838C32.3256 26.3806 32.4218 26.3112 32.5306 26.3112H33.5288C34.4112 26.3112 35.1291 25.5934 35.1291 24.7109V22.1008C35.1291 21.2184 34.4113 20.5005 33.5288 20.5005H32.5306C32.4218 20.5005 32.3256 20.4311 32.2915 20.3279C32.143 19.8795 31.9598 19.4375 31.7468 19.014C31.6975 18.9161 31.7161 18.7987 31.7932 18.7216L32.4995 18.0152C33.1233 17.3914 33.1233 16.3761 32.4994 15.7522L30.6538 13.9066C30.0298 13.2826 29.0146 13.2825 28.3907 13.9066L27.6844 14.6128C27.6075 14.6897 27.49 14.7083 27.392 14.6592C26.969 14.4464 26.527 14.2632 26.0782 14.1146C25.975 14.0803 25.9056 13.9843 25.9056 13.8754V12.8772C25.9056 11.9947 25.1877 11.2769 24.3053 11.2769H21.6951C20.8127 11.2769 20.0948 11.9947 20.0948 12.8772V13.8754C20.0948 13.9842 20.0254 14.0803 19.9222 14.1146C19.4733 14.2632 19.0314 14.4464 18.6085 14.6592C18.5106 14.7083 18.3929 14.6898 18.3159 14.6128L17.6096 13.9065C16.9857 13.2826 15.9704 13.2827 15.3465 13.9065L13.5009 15.7522C12.8771 16.3761 12.8771 17.3914 13.5009 18.0152L14.2072 18.7216C14.2841 18.7985 14.3027 18.916 14.2535 19.0141C14.0406 19.4374 13.8574 19.8793 13.7088 20.3277C13.6747 20.4309 13.5786 20.5003 13.4698 20.5003H12.4715C11.5892 20.5003 10.8712 21.2182 10.8712 22.1006V24.7107C10.8712 25.5931 11.5891 26.311 12.4715 26.311H13.4698C13.5786 26.311 13.6747 26.3804 13.7088 26.4836C13.8574 26.932 14.0405 27.3741 14.2535 27.7973C14.3028 27.8953 14.2842 28.0129 14.2071 28.0899L13.5009 28.7962C12.8771 29.4201 12.8771 30.4353 13.5009 31.0593L15.3465 32.9049C15.9705 33.5287 16.9856 33.5289 17.6096 32.9049L18.3159 32.1986C18.3928 32.1217 18.5103 32.1031 18.6083 32.1523ZM17.363 31.2458L16.6566 31.9521C16.5581 32.0505 16.3979 32.0504 16.2993 31.9521L14.4537 30.1065C14.3552 30.0079 14.3552 29.8476 14.4537 29.7492L15.1599 29.0429C15.6487 28.5541 15.7682 27.8102 15.4573 27.1919C15.2739 26.8271 15.116 26.4463 14.9881 26.0601C14.7709 25.4042 14.1607 24.9634 13.4697 24.9634H12.4714C12.3322 24.9634 12.2188 24.8501 12.2188 24.7107V22.1006C12.2188 21.9613 12.3322 21.848 12.4714 21.848H13.4697C14.1607 21.848 14.7709 21.4073 14.9881 20.7513C15.116 20.3651 15.2739 19.9842 15.4572 19.6197C15.7684 19.0014 15.649 18.2574 15.16 17.7686L14.4537 17.0623C14.3552 16.9639 14.3552 16.8036 14.4537 16.705L16.2993 14.8595C16.3979 14.761 16.5581 14.7609 16.6566 14.8595L17.363 15.5658C17.8519 16.0547 18.5959 16.1741 19.2141 15.8631C19.5784 15.6797 19.9592 15.522 20.3458 15.3939C21.0017 15.1768 21.4424 14.5666 21.4424 13.8755V12.8772C21.4424 12.7379 21.5558 12.6246 21.6951 12.6246H24.3053C24.4445 12.6246 24.5579 12.7379 24.5579 12.8772V13.8755C24.5579 14.5665 24.9986 15.1767 25.6546 15.3939C26.0412 15.522 26.4219 15.6798 26.7863 15.8632C27.4046 16.1742 28.1484 16.0548 28.6374 15.5658L29.3437 14.8596C29.4423 14.761 29.6025 14.7612 29.701 14.8596L31.5466 16.7051C31.6452 16.8037 31.6452 16.964 31.5466 17.0624L30.8404 17.7687C30.3514 18.2576 30.232 19.0015 30.543 19.6197C30.7264 19.9845 30.8844 20.3653 31.0122 20.7515C31.2294 21.4075 31.8397 21.8482 32.5307 21.8482H33.5289C33.6682 21.8482 33.7815 21.9615 33.7815 22.1009V24.711C33.7815 24.8504 33.6682 24.9637 33.5289 24.9637H32.5307C31.8397 24.9637 31.2294 25.4043 31.0122 26.0603C30.8843 26.4465 30.7264 26.8274 30.5431 27.1919C30.2319 27.8103 30.3513 28.5542 30.8403 29.043L31.5466 29.7493C31.6452 29.8477 31.6452 30.008 31.5466 30.1066L29.7009 31.9522C29.6365 32.0166 29.5614 32.0262 29.5223 32.0262C29.4832 32.0262 29.4081 32.0166 29.3437 31.9522L28.6375 31.2459C28.1485 30.757 27.4044 30.6376 26.7863 30.9486C26.422 31.132 26.0412 31.2897 25.6546 31.4178C24.9987 31.6349 24.558 32.2451 24.558 32.9362V33.9345C24.558 34.0738 24.4446 34.1871 24.3053 34.1871H21.6951C21.5559 34.1871 21.4425 34.0738 21.4425 33.9345V32.9362C21.4425 32.2452 21.0018 31.635 20.3459 31.4178C19.9593 31.2897 19.5785 31.1319 19.2141 30.9485C18.9846 30.8331 18.738 30.777 18.4935 30.777C18.0787 30.7769 17.6704 30.9383 17.363 31.2458Z" fill="#D8004E"/>
<path d="M23.0389 29.6714C26.5151 29.6714 29.3432 26.8433 29.3432 23.3671C29.3432 22.3683 29.1161 21.4126 28.6684 20.5267C28.5004 20.1946 28.095 20.0615 27.7631 20.2293C27.4309 20.3972 27.2977 20.8025 27.4656 21.1346C27.8172 21.8303 27.9954 22.5815 27.9954 23.3672C27.9954 26.1003 25.7719 28.3238 23.0388 28.3238C20.3057 28.3238 18.0822 26.1003 18.0822 23.3672C18.0822 20.6342 20.3057 18.4106 23.0388 18.4106C23.9477 18.4106 24.8363 18.6586 25.6085 19.1278C25.9264 19.3209 26.341 19.2198 26.5343 18.9018C26.7275 18.5838 26.6264 18.1693 26.3083 17.9761C25.3253 17.3787 24.1947 17.063 23.0388 17.063C19.5627 17.063 16.7345 19.8911 16.7345 23.3672C16.7345 26.8434 19.5627 29.6714 23.0389 29.6714Z" fill="white"/>
<path d="M23.039 19.7808C21.0615 19.7808 19.4528 21.3895 19.4528 23.367C19.4528 25.3444 21.0615 26.9531 23.039 26.9531C25.0163 26.9531 26.6251 25.3443 26.6251 23.367C26.6251 21.3896 25.0162 19.7808 23.039 19.7808ZM23.039 25.6053C21.8047 25.6053 20.8004 24.6012 20.8004 23.3669C20.8004 22.1326 21.8047 21.1283 23.039 21.1283C24.2732 21.1283 25.2774 22.1325 25.2774 23.3669C25.2774 24.6012 24.2732 25.6053 23.039 25.6053Z" fill="#D8004E"/>
<path d="M43.1862 21.4982C42.9701 21.0085 42.4807 20.6655 41.9121 20.6655H41.5846C41.3974 15.3675 38.9842 10.4521 34.8871 7.04144C34.954 6.58836 34.7782 6.11695 34.3872 5.81804C31.3959 3.53043 27.0265 2.10938 22.9843 2.10938C18.7297 2.10938 14.4636 3.52873 11.5726 5.90626C11.2017 6.21128 11.0404 6.67883 11.1114 7.12284C9.69369 8.32117 8.46166 9.71627 7.44571 11.2764C7.24266 11.5883 7.33089 12.0057 7.64265 12.2087C7.75621 12.2827 7.8837 12.318 8.00975 12.318C8.22996 12.318 8.44585 12.2101 8.57505 12.0117C9.47636 10.6276 10.5607 9.38295 11.8034 8.3041L13.1011 10.0612C10.018 12.7727 8.19312 16.5767 8.01236 20.6654H5.77066C5.86797 18.5991 6.33039 16.5862 7.15102 14.6728C7.29774 14.3307 7.13934 13.9346 6.79731 13.7879C6.45527 13.6412 6.05906 13.7996 5.91244 14.1416C5.01939 16.2237 4.51977 18.4155 4.42148 20.6654H4.08789C3.51918 20.6654 3.0298 21.0085 2.81373 21.4981C1.21981 21.7642 0 23.1535 0 24.8209V30.2115C0 31.8773 1.22035 33.2679 2.81382 33.5341C3.02989 34.0238 3.51927 34.3668 4.08789 34.3668H7.95117C8.71907 34.3668 9.34375 33.7421 9.34375 32.9742V29.9293C9.34375 29.5572 9.04214 29.2555 8.66992 29.2555C8.2977 29.2555 7.99609 29.5572 7.99609 29.9293V32.9742C7.99609 32.999 7.97588 33.0191 7.95117 33.0191H4.08789C4.06318 33.0191 4.04297 32.999 4.04297 32.9742V22.0582C4.04297 22.0334 4.06318 22.0133 4.08789 22.0133H7.99609V26.779C7.99609 27.1512 8.2977 27.4529 8.66992 27.4529C9.04214 27.4529 9.34375 27.1512 9.34375 26.779C9.34375 26.7818 9.34375 21.3521 9.34375 21.3377C9.34375 17.3759 11.0394 13.6583 14.0129 11.0539C14.3102 11.2251 14.931 11.259 15.3664 10.9337C17.6086 9.26058 20.1855 8.41784 23.0371 8.42746C25.8839 8.43752 28.4486 9.27675 30.6599 10.9219C30.9359 11.1085 31.4654 11.2934 31.9553 11.0672C34.9067 13.6706 36.6147 17.3911 36.6562 21.3447V32.974C36.6562 33.5558 37.0152 34.0548 37.5229 34.2627C37.4545 34.907 37.2707 35.5254 36.9703 36.1053C36.7991 36.4357 36.9281 36.8423 37.2586 37.0135C37.3577 37.0649 37.4636 37.0891 37.568 37.0891C37.8116 37.0891 38.0469 36.9564 38.1668 36.7252C38.5513 35.9831 38.7863 35.1916 38.8687 34.3666H40.2214C39.8788 38.4228 36.4283 41.6439 32.3058 41.6439H31.8047V40.2963H32.3057C33.543 40.2963 34.75 39.9501 35.7964 39.2953C36.112 39.0979 36.2076 38.6821 36.0102 38.3666C35.8128 38.0512 35.3968 37.9556 35.0816 38.153C34.2497 38.6735 33.2899 38.9487 32.3057 38.9487H28.9555C28.7025 38.4185 28.1627 38.0503 27.5371 38.0503H21.1582C19.5481 38.0503 18.2383 39.3602 18.2383 40.9702C18.2383 42.5802 19.5481 43.8901 21.1582 43.8901H27.5371C28.1627 43.8901 28.7026 43.522 28.9555 42.9917H32.3057C34.7498 42.9917 37.059 42.047 38.8082 40.3318C40.442 38.7296 41.4135 36.6264 41.5738 34.3667H41.9121C42.4807 34.3667 42.9702 34.0237 43.1862 33.534C44.7794 33.2677 46 31.8764 46 30.2115V24.8209C46 23.1557 44.7794 21.7646 43.1862 21.4982ZM1.34766 30.2115V24.8209C1.34766 23.9431 1.91116 23.1938 2.69531 22.9155V32.1167C1.91143 31.838 1.34766 31.0884 1.34766 30.2115ZM30.457 41.6441H29.1094V40.2965H30.457V41.6441ZM27.7617 42.318C27.7617 42.4418 27.661 42.5426 27.5371 42.5426H21.1582C20.2913 42.5426 19.5859 41.8372 19.5859 40.9703C19.5859 40.1034 20.2913 39.398 21.1582 39.398H27.5371C27.661 39.398 27.7617 39.4988 27.7617 39.6226V42.318ZM23.0419 7.07989C19.9887 7.06084 17.0437 7.99872 14.601 9.82363L12.4585 6.92266C15.1156 4.75195 19.0467 3.45712 22.9842 3.45712C26.7299 3.45712 30.768 4.76138 33.5351 6.8631L31.4238 9.81069C28.9855 8.00959 26.1657 7.09094 23.0419 7.07989ZM32.8824 10.0888L34.2109 8.23384C37.8862 11.3803 40.0522 15.8511 40.2358 20.6655H37.9812C37.762 16.5944 35.9326 12.7961 32.8824 10.0888ZM41.957 32.9742C41.957 32.999 41.9368 33.0191 41.9121 33.0191H38.0488C38.0241 33.0191 38.0039 32.999 38.0039 32.9742V22.0133H41.9121C41.9368 22.0133 41.957 22.0334 41.957 22.0582V32.9742ZM44.6523 30.2115C44.6523 31.088 44.0885 31.8379 43.3047 32.1166V22.9158C44.0885 23.1945 44.6523 23.9444 44.6523 24.8209V30.2115Z" fill="white"/>
</g>
<defs>
<clipPath id="clip0">
<rect width="46" height="46" fill="white"/>
</clipPath>
</defs>
</svg>
